<?xml version="1.0" encoding="utf-8"?>
<!-- Generator: Adobe Illustrator 18.0.0, SVG Export Plug-In . SVG Version: 6.00 Build 0)  -->
<!DOCTYPE svg PUBLIC "-//W3C//DTD SVG 1.1//EN" "http://www.w3.org/Graphics/SVG/1.1/DTD/svg11.dtd">
<svg version="1.1" id="Layer_2" xmlns="http://www.w3.org/2000/svg" xmlns:xlink="http://www.w3.org/1999/xlink" x="0px" y="0px"
	 viewBox="0 0 144.014 84.008" enable-background="new 0 0 144.014 84.008" xml:space="preserve">
<g>
	<g>
		<g>
			<g>
				<path fill="#e3e3e3" d="M73.621,51.605c-0.049,0.134,0.223,0.143,0.015,0.139C73.569,51.646,73.527,51.564,73.621,51.605z"/>
				<path fill="#e3e3e3" d="M100.487,48.104c0.151,0.852-0.748,0.578-0.799,1.236c-0.021,0.058-0.248-0.337-0.278-0.185
					c0.026,0.734-0.729,0.877-1.427,0.844l-0.048-0.113c-0.131-0.005,0.013,0.378-0.104,0.401c-0.049-0.061-0.042-0.109-0.128-0.178
					c0.125,0.202-0.084,0.205-0.011,0.371c-0.09-0.046-0.202-0.196-0.309-0.244l0.118,0.249c0.262,0.608-0.351,0.22-0.329,0.622
					c-0.03-0.056-0.042-0.109-0.094-0.145c-0.052,0.535-0.462,0.765-0.7,1.134c-0.046-0.085-0.14-0.23-0.226-0.3
					c0.159,0.235,0.102,0.371,0.049,0.483c-0.219-0.198,0.014,0.327-0.187,0.281l-0.031-0.058c0.112,0.299-0.221-0.05-0.057,0.286
					l-0.189-0.142c0.22,0.349-0.241-0.081-0.175,0.132l0.054,0.064c0.003,0.125-0.156-0.013-0.168,0.084l-0.034-0.033
					c-0.062,0.185-0.278,0.064-0.077,0.314c-0.204-0.167,0.052-0.19-0.249-0.428c-0.218,0.591-0.693,0.882-1.115,1.221
					c-0.128-0.064-0.183-0.07-0.268-0.157c-0.003,0.084-0.123,0.171-0.063,0.332c0.01-0.017-0.128-0.109-0.16-0.104
					c-0.15-0.039,0.122,0.348-0.054,0.297c-0.012-0.096-0.061-0.188-0.142-0.277c0.071,0.257-0.058,0.296-0.113,0.423
					c-0.013-0.055-0.006-0.096-0.063-0.18c0.041,0.307-0.217,0.059-0.228,0.263l-0.047-0.183c-0.243-0.131,0.123,0.371-0.073,0.314
					c0.011-0.068-0.03-0.13-0.054-0.201c0.006,0.366-0.271,0.343-0.391,0.481c0.004-0.027-0.01-0.076-0.01-0.076
					c-0.166,0.078-0.324-0.01-0.506,0.141c-0.066-0.08,0.013-0.449-0.139-0.385c-0.008,0.377-0.288,0.128-0.233,0.555
					c-0.16-0.074-0.358-0.267-0.49-0.174c0.102-0.119,0.064-0.451,0.181-0.453l-0.012-0.238c0.054-0.14,0.059,0.071,0.09-0.119
					c-0.046,0.003-0.231,0.097-0.252,0.021c-0.165,0.179-0.438,0.526-0.628,0.477c0.142-0.088,0.153-0.382,0.232-0.412
					c0,0-0.139,0.126-0.278,0.253c-0.148,0.119-0.295,0.237-0.295,0.237c-0.065-0.019,0.145-0.255,0.018-0.222
					c-0.05,0.085-0.116,0.114-0.185,0.164c0.004-0.046-0.276-0.082-0.072-0.389c0.066-0.129,0.122-0.002,0.15-0.146
					c-0.085-0.062-0.169,0.034-0.256-0.031l0.029-0.039c-0.018-0.084-0.264-0.022-0.337,0.183c0.033,0.044,0.129-0.179,0.119-0.047
					c-0.175,0.13-0.334,0.069-0.404,0.008c0.065-0.019,0.129-0.094,0.209-0.16c-0.307,0.108-0.472,0.072-0.672,0.047
					c-0.123,0.123,0.263-0.186,0.216-0.104c0.025-0.312-0.539-0.049-0.409-0.419c0.041-0.002-0.165,0.185-0.131,0.149
					c-0.054-0.085,0.129-0.259,0.018-0.238c0.1-0.108-0.09-0.023-0.168-0.039c-0.1,0.05,0.04-0.063,0.091-0.033
					c-0.152,0.024-0.572-0.086-0.56-0.388c-0.068,0.07-0.351,0.148-0.377,0.105l0.181-0.141c0.07-0.125-0.126-0.107,0.013-0.245
					c-0.275,0.112,0.445,0.133,0.192,0.175c0.115-0.156-0.401,0.103-0.151-0.086c-0.073-0.065-0.326,0.036-0.231-0.177
					c-0.009,0.045,0.288-0.154,0.224-0.201c-0.123-0.075-0.108,0.044-0.24,0.011l-0.117,0.009c-0.17,0.144-0.06-0.114-0.212,0.09
					c0.127-0.134-0.22-0.079,0.068-0.31l0.232-0.177c-0.055-0.03-0.295,0.127-0.423,0.174c0.015-0.023,0.049-0.073,0.086-0.102
					c-0.344,0.282-0.065-0.133-0.374,0.035c0.037-0.197-0.198-0.257-0.021-0.48c-0.165,0.01-0.347,0.042-0.342-0.105
					c0.047-0.009,0.076,0.007,0.154-0.049c0.058-0.136-0.043-0.076-0.14-0.081c0.061-0.03,0.117-0.272,0.194-0.428
					c-0.163,0.007-0.333,0.18-0.454,0.262c0.294-0.339-0.394-0.045-0.143-0.376c0.069-0.009,0.257-0.018,0.296-0.149
					c0.298-0.334-0.365,0.055-0.282-0.187l-0.272,0.246c0.143-0.186-0.299-0.05,0.01-0.256c-0.135,0.037-0.003-0.21-0.282,0.011
					c0.118-0.352-0.479-0.364-0.028-0.833c-0.067,0.008-0.063-0.092-0.203,0.026c-0.133,0.156,0.158-0.02,0.059,0.073
					c-0.025-0.017-0.109,0.033-0.151,0.059c0.027-0.103,0.017-0.161,0.297-0.277c0.093-0.251-0.585,0.218-0.577-0.009
					c0.124-0.08,0.161-0.124,0.111-0.153l-0.261,0.07c-0.02-0.124,0.228-0.253,0.426-0.405c-0.072-0.025-0.11-0.093-0.273,0.001
					l0.198-0.254c-0.141,0.184-0.149,0.055-0.214,0.072l0.065-0.017c0.075-0.076-0.021-0.09-0.068-0.097
					c-0.111,0.107-0.115,0.201-0.126,0.258c-0.103,0.047-0.113-0.006-0.236,0.049c0.194-0.148,0.071-0.183,0.06-0.234
					c0.004-0.073-0.2,0.106-0.204,0.09c0.092-0.087-0.039-0.074,0.116-0.168c0.042-0.015-0.063,0.113,0.038,0.058
					c0.047-0.088,0.21-0.237,0.044-0.18c-0.124,0.047-0.338,0.344-0.294,0.169c0.06-0.025,0.133-0.09,0.21-0.137l0.023-0.157
					l-0.159,0.156c0.031-0.049,0.051-0.057,0.067-0.082c-0.183,0.15-0.151-0.044-0.343,0.139c-0.047-0.009,0.034-0.176,0.019-0.222
					l0.018-0.01c0.046-0.13-0.048-0.098-0.177-0.007l0.031-0.037c-0.019-0.036-0.11-0.06-0.225,0.018
					c0.086-0.143,0.474-0.694,0.256-0.502c-0.069-0.039-0.317,0.283-0.368,0.418c-0.029-0.194-0.317,0.06-0.269-0.298
					c-0.055,0.073-0.07,0.129-0.124,0.161c-0.138-0.16-0.437,0.105-0.445-0.355c0.082-0.074,0.069-0.212,0.104-0.334
					c-0.104,0.178,0-0.215-0.112,0.108c-0.051,0.195-0.081,0.288-0.054,0.38c-0.136,0.072-0.287,0.035-0.31-0.16
					c0.011,0.096-0.025,0.152-0.059,0.207c0.073-0.313-0.004-0.377-0.084-0.276l-0.04,0.192l-0.008-0.204
					c-0.034,0.058-0.083,0.402-0.115,0.208c0.006-0.076,0.013-0.153,0.008-0.21c-0.085,0.154-0.185,0.414-0.235,0.247l-0.039-0.287
					c-0.032,0.03-0.081,0.199-0.036,0.284c-0.102-0.176-0.176-0.193-0.221-0.441c-0.036,0.154-0.067,0.27-0.096,0.356
					c-0.039,0.091-0.194,0.169-0.174,0.204c-0.091,0.094-0.19,0.108-0.285,0.115l-0.035-0.143c-0.09-0.116,0.047,0.253-0.015,0.166
					c-0.024-0.138-0.132-0.278-0.141-0.453c-0.133-0.122-0.023,0.277-0.044,0.354c0.061,0.183-0.005-0.129,0.07,0.104
					c0.018,0.064-0.152-0.104-0.05,0.171c-0.061-0.098-0.132-0.3-0.167-0.414l0.01,0.149c-0.203-0.283-0.097-0.618-0.32-0.979
					l-0.039,0.066c-0.179-0.255,0.028-0.385-0.167-0.416c-0.015,0.162,0.112,0.566,0.216,0.662
					c-0.083,0.127,0.239,0.654,0.126,0.681c-0.107-0.139,0.065-0.077-0.06-0.282c-0.159-0.186-0.046,0.17-0.128,0.121
					c0.103,0.069,0.199,0.351,0.198,0.412c-0.118-0.092-0.101-0.26-0.19-0.243c0.07,0.154,0.073,0.299,0.187,0.367
					c0.172,0.341-0.124-0.05-0.004,0.225c-0.17-0.209-0.256-0.572-0.412-0.63c0.15,0.21,0.092,0.358,0.347,0.649
					c-0.069-0.044-0.189-0.207-0.254-0.354c-0.139-0.098,0.164,0.46-0.149,0.054l0.14,0.225c-0.067-0.055-0.121-0.1-0.233-0.192
					c-0.046,0.027,0.089,0.384-0.156,0.069c0.012,0.041-0.095,0.108,0.117,0.29c0.164,0.082-0.059-0.21,0.204,0.055
					c-0.229-0.207-0.056,0.096-0.023,0.201l-0.104-0.114c0.019,0.063-0.048,0.073,0.047,0.212c-0.042-0.08-0.118-0.154-0.158-0.168
					l0.131,0.196c-0.004,0.159-0.289-0.296-0.325-0.172L79.32,49.15c0.012,0.041-0.161-0.099-0.153-0.008
					c0.123,0.176,0.272,0.388,0.368,0.524c0.016,0.111-0.184-0.159-0.087,0.05l-0.106-0.251c-0.036-0.062-0.281-0.223-0.348-0.154
					c0.012,0.089,0.145,0.385,0.297,0.406c-0.033,0.035-0.17-0.017-0.247-0.158c-0.03,0.128,0.166,0.161,0.186,0.322
					c-0.124-0.08-0.349-0.15-0.541-0.254l-0.17-0.33l-0.05,0.041c-0.132-0.269-0.179-0.133-0.348-0.389
					c-0.064-0.005-0.035,0.107-0.013,0.194c0.422,0.271,0.339,0.587,0.664,0.888c-0.049,0.209-0.806-0.719-0.476-0.084
					c0.1,0.065,0.262,0.372,0.258,0.202c-0.114,0.039,0.243,0.378,0.024,0.331c-0.051-0.199-0.378-0.261-0.453-0.549
					c0.092,0.114,0.132,0.03,0.12-0.015c-0.148-0.095-0.293-0.335-0.376-0.259c-0.023,0.077-0.086,0.147,0.079,0.308
					c0.172,0.185,0.059-0.091,0.199,0.128c-0.042,0.157-0.318-0.112-0.057,0.259c0.04-0.085,0.231,0.093,0.347,0.223l-0.003,0.146
					l-0.099-0.137c-0.201,0.019,0.17,0.257,0.024,0.33l-0.278-0.196c-0.165-0.237,0.254-0.06-0.081-0.385
					c-0.088,0.055,0.047,0.252-0.105,0.228c-0.011-0.044,0.002-0.072-0.01-0.117c-0.037,0.013-0.48-0.419-0.344-0.054
					c0.039,0.154,0.097,0.136,0.213,0.266c-0.085,0.149-0.001,0.313-0.061,0.404c-0.213-0.266-0.16,0.101-0.308-0.234
					c0.174,0.111,0.335-0.062,0.159-0.341c-0.316-0.258,0.133-0.045-0.116-0.37c-0.103,0.081-0.366-0.216-0.556-0.394
					c-0.039,0.011,0.009,0.116,0.02,0.16c0.154,0.191,0.186,0.157,0.358,0.341c-0.153,0.049-0.165,0.245-0.064,0.476
					c-0.118-0.057-0.271-0.247-0.244-0.304c-0.08,0.171-0.24,0.271-0.412,0.328c0.348,0.223-0.073,0.193,0.205,0.39
					c0.126,0.007,0.374,0.166,0.458,0.331c-0.058,0.019-0.116-0.13-0.191-0.178c0.095,0.208-0.316-0.185-0.136,0.116
					c0.03-0.202-0.305-0.38-0.494-0.631c0.034,0.207-0.146-0.168-0.23-0.092c0.033,0.205,0.021,0.401-0.027,0.536
					c-0.317-0.111-0.302,0.268-0.399,0.373c-0.162-0.067-0.363-0.362-0.464-0.353c-0.066,0.069,0.309,0.235,0.096,0.21l-0.037-0.061
					c0.024,0.089-0.352-0.004-0.041,0.399l-0.226-0.312c-0.043-0.008-0.002,0.073,0.01,0.118c-0.085-0.092-0.184-0.155-0.208-0.244
					c-0.242-0.136-0.106,0.154-0.169,0.225l0.198,0.127c0.001,0.24-0.23,0.147-0.292,0.31l-0.146-0.167l0.021,0.161
					c-0.128-0.174-0.284-0.219-0.199-0.053l-0.188-0.564c0.138,0.052,0.126,0.247,0.305,0.38c0.155,0.117,0.221-0.025,0.094-0.198
					c-0.057,0.019-0.026,0.057-0.004,0.145c-0.221-0.216-0.151-0.264-0.26-0.444c-0.013,0.029-0.106-0.013-0.045,0.064
					c-0.059-0.149-0.033-0.205,0.032-0.275c0.034,0.133,0.155,0.118,0.196,0.199c-0.177-0.206-0.167-0.329-0.029-0.351
					c0.274,0.176,0.026-0.297,0.185-0.325c0.145,0.241,0.242,0.451,0.256,0.589c0.156,0.044,0.065-0.07,0.221-0.025
					c-0.108-0.179-0.298-0.432-0.3-0.599l0.141,0.146c0.005-0.144-0.198-0.367-0.065-0.411c0.229-0.074,0.396-0.227,0.537-0.321
					l0.141,0.145c-0.223-0.383,0.122-0.328,0.085-0.554c0.289,0,0.212-0.455,0.529-0.271c0.173-0.369,0.314-0.704,0.652-0.912
					l0.15,0.262c-0.094-0.207,0.148,0.095,0.169,0.016c-0.217-0.121-0.136-0.29-0.222-0.456c0.283,0.052,0.28-0.283,0.254-0.539
					l0.141,0.146c-0.139-0.389,0.218-0.264,0.417-0.356c0.074,0.047,0.227,0.165,0.259,0.108c-0.13-0.322-0.069-0.343-0.065-0.612
					c0.1-0.082,0.32-0.149,0.502-0.122c0.148-0.672,0.783-0.708,1.228-1.156l0.119,0.21c0.178-0.332,0.505-0.436,0.813-0.463
					c0.247-0.029,0.245-0.008,0.418-0.028c0.16-0.014,0.318-0.045,0.431-0.109l-0.038,0.408c0.141,0.122,0.325-0.105,0.3-0.394
					c0.142,0.128,0.395-0.175,0.456,0.17c0.139,0.09,0.204-0.163,0.342-0.2c0.278,0.203,0.385,0.191,0.683,0.189l-0.062-0.043
					c-0.053,0.079-0.097,0.247-0.037,0.288c0.13-0.082,0.332,0.21,0.376-0.284c0.196,0.353,0.772,0.033,0.893,0.515
					c0.035-0.131,0.115-0.12,0.185-0.186c0.262,0.127,0.371,0.503,0.688,0.45c0,0.08-0.188,0.146-0.099,0.223
					c0.096,0.005,0.079-0.159,0.237-0.136c0.169-0.032,0.404,0.231,0.493,0.432c0.109,0.214,0.18,0.438,0.333,0.557
					c0.669,0.339,0.946,0.982,1.265,1.366l-0.083,0.051c0.398-0.08-0.091,0.535,0.449,0.324c-0.054,0.083,0.047,0.139-0.121,0.227
					c0.283-0.059,0.015,0.438,0.397,0.384c-0.004-0.019-0.025-0.015-0.071-0.005c-0.055,0.283,0.281,0.233,0.254,0.511
					c-0.046,0.01-0.092,0-0.172,0.056c-0.097,0.18,0.437-0.116,0.098,0.215c0.032,0.033,0.203-0.125,0.175-0.137
					c0.138,0.46,0.678,0.625,1.064,0.888c0.016,0.432-0.57,0.552-0.134,0.506c-0.052,0.078,0.142-0.111,0.073-0.042
					c0.165-0.017-0.273,0.476-0.046,0.358c0.19-0.22,0.15-0.077,0.279-0.197c0.004,0.276-0.152,0.488,0.118,0.45l-0.117,0.098
					c0.439-0.167,0.431,0.151,0.891-0.093c0.814,0.726,1.35,0.531,1.349,0.442c0.078,0.034,0.11,0.013,0.402-0.212
					c0.13-0.103,0.366-0.293,0.577-0.434c0.217-0.148,0.447-0.283,0.697-0.396c0.443,0.16,0.451,0.14,0.566-0.157
					c0.031,0.058,0.027,0.08,0.079,0.117c-0.192-0.266,0.132-0.144-0.04-0.406c0.347-0.196,0.577-0.49,0.894-0.742
					c-0.029,0.067,0.111,0.298,0.158,0.234l-0.067-0.213l0.067,0.064c0.011-0.071-0.045-0.233-0.152-0.283
					c0.625-0.851,1.819-0.952,2.553-1.632c0.271-0.039,0.458-0.345,0.619-0.557c0.87-0.127,1.628-0.274,2.048-0.993
					C100.174,47.024,100.618,47.753,100.487,48.104z"/>
				<path fill="#FFFFFF" d="M73.711,51.478c0.131,0.103,0.257,0.11,0.352,0.319C73.953,51.689,73.803,51.592,73.711,51.478z"/>
				<path fill="#FFFFFF" d="M76.597,51.13c-0.031-0.038,0.07,0.026,0.093,0.041c-0.013,0.029,0.06,0.149-0.015,0.102
					C76.689,51.245,76.633,51.19,76.597,51.13z"/>
				<path fill="#FFFFFF" d="M77.11,50.795c0.091,0.114,0.074,0.287,0.029,0.351L77.11,50.795z"/>
				<path fill="#FFFFFF" d="M77.932,50.86c0.119,0.058,0.154,0.117,0.103,0.158C77.98,50.964,77.969,50.921,77.932,50.86z"/>
				<path fill="#FFFFFF" d="M77.738,50.587c0.032-0.034,0.107,0.013,0.18,0.06C77.832,50.555,77.891,50.778,77.738,50.587z"/>
				<path fill="#FFFFFF" d="M78.928,50.076c0.014-0.028-0.021-0.161,0.109-0.06C78.938,49.953,79.055,50.249,78.928,50.076z"/>
				<path fill="#FFFFFF" d="M79.195,49.534c0.02-0.005,0.043,0.009,0.032-0.035c0.07,0.027,0.115,0.129,0.103,0.159L79.195,49.534z"
					/>
				<polygon fill="#FFFFFF" points="85.641,50.971 85.544,50.963 85.666,50.884 				"/>
				<path fill="#FFFFFF" d="M88.79,54.483c0.126-0.007-0.057,0.134-0.059,0.161C88.675,54.613,88.877,54.535,88.79,54.483z"/>
				<polygon fill="#FFFFFF" points="91.675,55.109 91.654,55.112 91.672,54.813 				"/>
			</g>
		</g>
	</g>
	<g>
		<g>
			<g>
				<path fill="#FFFFFF" d="M70.04,52.403c0.138,0.036,0.122-0.235,0.137-0.028C70.085,52.451,70.007,52.5,70.04,52.403z"/>
				<path fill="#FFFFFF" d="M43.439,48.692c0.792-0.348,0.738,0.59,1.39,0.484c0.061,0.007-0.269,0.32-0.114,0.314
					c0.707-0.199,1.025,0.501,1.158,1.186l-0.098,0.073c0.026,0.129,0.364-0.103,0.414,0.006c-0.048,0.062-0.096,0.066-0.143,0.166
					c0.167-0.169,0.219,0.033,0.363-0.077c-0.024,0.098-0.143,0.243-0.164,0.358l0.214-0.173c0.528-0.398,0.297,0.289,0.682,0.172
					c-0.047,0.042-0.096,0.067-0.119,0.125c0.532-0.076,0.852,0.267,1.267,0.412c-0.072,0.064-0.19,0.191-0.238,0.29
					c0.191-0.21,0.336-0.187,0.458-0.162c-0.14,0.26,0.314-0.091,0.318,0.116l-0.049,0.044c0.264-0.18,0.004,0.227,0.291-0.012
					l-0.093,0.218c0.286-0.296-0.022,0.254,0.17,0.138l0.05-0.068c0.121-0.032,0.024,0.154,0.122,0.143l-0.024,0.041
					c0.195,0.016,0.128,0.255,0.323,0c-0.114,0.237-0.197-0.006-0.357,0.343c0.626,0.072,1.021,0.465,1.45,0.794
					c-0.031,0.139-0.025,0.194-0.089,0.298c0.082-0.017,0.197,0.08,0.335-0.021c-0.018-0.006-0.072,0.151-0.059,0.181
					c0.008,0.157,0.294-0.219,0.294-0.043c-0.082,0.046-0.155,0.121-0.213,0.226c0.22-0.149,0.295-0.051,0.427-0.066
					c-0.042,0.038-0.08,0.052-0.13,0.139c0.244-0.183,0.157,0.162,0.333,0.049l-0.117,0.148c0.058,0.279,0.212-0.326,0.279-0.149
					c-0.053,0.041-0.071,0.112-0.107,0.178c0.252-0.254,0.393-0.092,0.539-0.18c-0.012,0.023-0.021,0.073-0.021,0.073
					c0.122-0.015,0.271,0.106,0.413-0.037c0.052,0.083-0.025,0.453,0.134,0.38c-0.018-0.365,0.238-0.173,0.111-0.582
					c0.106,0.054,0.318,0.145,0.357,0.004c-0.014,0.149,0.189,0.419,0.092,0.476l0.148,0.192c0.031,0.15-0.106-0.023-0.024,0.153
					c0.06-0.033,0.183-0.228,0.252-0.194c0.026-0.255-0.073-0.676,0.03-0.784c0.004,0.162,0.231,0.34,0.216,0.42
					c0,0-0.037-0.182-0.075-0.365c-0.048-0.178-0.096-0.357-0.096-0.357c0.03-0.038,0.165,0.242,0.172,0.122
					c-0.057-0.081-0.065-0.148-0.094-0.225c0.041,0.026,0.101-0.183,0.34,0.091c0.105,0.099-0.02,0.112,0.104,0.181
					c0.075-0.064,0.002-0.163,0.071-0.229l0.033,0.036c0.088,0,0.037-0.237-0.145-0.345c-0.038,0.017,0.156,0.156,0.04,0.115
					c-0.103-0.192-0.083-0.286-0.004-0.366c0.014,0.067,0.084,0.135,0.144,0.221c-0.105-0.293-0.063-0.463-0.041-0.65
					c-0.119-0.126,0.18,0.265,0.101,0.215c0.307,0.039,0.042-0.518,0.402-0.381c0.003,0.04-0.185-0.164-0.149-0.131
					c0.08-0.05,0.256,0.13,0.232,0.023c0.109,0.099,0.019-0.087,0.029-0.163c-0.054-0.097,0.063,0.039,0.037,0.088
					c-0.028-0.15,0.044-0.55,0.334-0.547c-0.074-0.064-0.181-0.333-0.143-0.358l0.156,0.168c0.129,0.062,0.088-0.124,0.238,0.002
					c-0.138-0.259-0.08,0.435-0.148,0.194c0.163,0.104-0.144-0.381,0.066-0.149c0.056-0.073-0.076-0.311,0.141-0.232
					c-0.044-0.006,0.186,0.268,0.223,0.202c0.057-0.125-0.056-0.101-0.043-0.23l-0.026-0.112c-0.164-0.151,0.099-0.067-0.12-0.195
					c0.148,0.109,0.038-0.214,0.308,0.038l0.208,0.205c0.021-0.057-0.171-0.271-0.24-0.387c0.025,0.012,0.079,0.039,0.112,0.071
					c-0.332-0.297,0.115-0.077-0.104-0.35c0.192,0.01,0.2-0.216,0.448-0.083c-0.047-0.156-0.12-0.319,0.018-0.338
					c0.02,0.042,0.012,0.072,0.083,0.136c0.143,0.032,0.061-0.054,0.041-0.145c0.044,0.052,0.284,0.062,0.453,0.102
					c-0.049-0.153-0.258-0.276-0.368-0.374c0.397,0.204-0.071-0.37,0.306-0.21c0.03,0.061,0.093,0.235,0.226,0.242
					c0.4,0.198-0.158-0.328,0.088-0.306l-0.311-0.191c0.215,0.088-0.061-0.275,0.231-0.047c-0.081-0.111,0.188-0.051-0.11-0.247
					c0.38-0.014,0.152-0.53,0.76-0.289c-0.03-0.061,0.066-0.093-0.093-0.184c-0.194-0.068,0.073,0.143-0.049,0.083
					c0.008-0.03-0.069-0.091-0.107-0.122c0.107-0.012,0.16-0.044,0.364,0.181c0.271-0.004-0.401-0.482-0.163-0.576
					c0.114,0.094,0.168,0.114,0.187,0.049l-0.131-0.247c0.135-0.081,0.317,0.137,0.518,0.284c0.01-0.085,0.075-0.149-0.049-0.291
					l0.301,0.124c-0.217-0.09-0.078-0.143-0.101-0.209l0.024,0.066c0.091,0.057,0.096-0.052,0.101-0.106
					c-0.125-0.092-0.231-0.062-0.298-0.051c-0.059-0.1,0-0.133-0.062-0.258c0.174,0.172,0.218,0.015,0.279-0.016
					c0.089-0.018-0.104-0.209-0.083-0.22c0.094,0.085,0.099-0.075,0.189,0.089c0.013,0.046-0.129-0.042-0.076,0.065
					c0.103,0.028,0.259,0.184,0.21,0.001c-0.034-0.138-0.361-0.321-0.146-0.319c0.015,0.071,0.08,0.144,0.122,0.227l0.184-0.006
					l-0.152-0.163c0.053,0.027,0.057,0.05,0.084,0.065c-0.133-0.197,0.102-0.196-0.051-0.413c0.04-0.067,0.216,0.015,0.285-0.01
					l0.002,0.024c0.151,0.046,0.195-0.101,0.156-0.26l0.027,0.041c0.04-0.008,0.089-0.088,0.048-0.22
					c0.239,0.038,0.525,0.659,0.477,0.352c0.085-0.069-0.067-0.44-0.184-0.537c0.258,0.015,0.307-0.425,0.64-0.2
					c-0.011-0.094-0.053-0.137-0.018-0.213c0.312-0.05,0.535-0.504,0.905-0.159c-0.057,0.114,0.06,0.214,0.098,0.336
					c0.01-0.21,0.137,0.176,0.067-0.16c-0.062-0.191-0.081-0.288-0.189-0.341c0.147-0.159,0.436-0.228,0.574-0.063
					c-0.07-0.081-0.043-0.149-0.014-0.216c0.052,0.318,0.19,0.338,0.273,0.21l-0.017-0.195l0.099,0.189
					c0.029-0.067-0.014-0.413,0.117-0.242c0.015,0.075,0.031,0.15,0.056,0.203c0.085-0.169,0.225-0.459,0.361-0.298l0.112,0.28
					c0.048-0.033,0.132-0.209,0.037-0.287c0.215,0.165,0.345,0.193,0.401,0.44c0.1-0.145,0.221-0.252,0.353-0.327
					c0.121-0.072,0.135-0.13,0.326-0.143c0.25-0.036,0.501,0.022,0.711,0.107l-0.053,0.137c0.073,0.165,0.132-0.228,0.184-0.106
					c-0.077,0.123-0.008,0.315-0.145,0.452c0.101,0.192,0.275-0.174,0.404-0.199c0.083-0.174-0.126,0.085-0.021-0.137
					c0.045-0.059,0.164,0.223,0.299-0.034c-0.004,0.122-0.12,0.306-0.184,0.407l0.147-0.091c-0.035,0.354-0.48,0.457-0.526,0.892
					l0.088-0.013c-0.057,0.306-0.307,0.244-0.184,0.409c0.123-0.104,0.368-0.458,0.349-0.606c0.199,0.004,0.37-0.594,0.559-0.474
					c-0.024,0.178-0.177-0.041-0.243,0.193c-0.015,0.251,0.236-0.028,0.278,0.088c-0.035-0.143,0.177-0.363,0.266-0.376
					c0.031,0.175-0.197,0.204-0.077,0.308c0.104-0.134,0.298-0.165,0.246-0.332c0.247-0.296,0.093,0.177,0.322-0.025
					c-0.104,0.251-0.465,0.437-0.398,0.64c0.115-0.233,0.366-0.18,0.503-0.547c0.018,0.101-0.094,0.272-0.221,0.376
					c-0.016,0.182,0.459-0.253,0.186,0.18l0.181-0.194c-0.027,0.087-0.032,0.164-0.081,0.305c0.061,0.05,0.421-0.125,0.167,0.182
					c0.046-0.017,0.168,0.107,0.292-0.148c0.021-0.201-0.226,0.077-0.043-0.254c-0.125,0.288,0.153,0.071,0.269,0.035l-0.09,0.126
					c0.068-0.022,0.115,0.061,0.24-0.051c-0.079,0.048-0.136,0.138-0.138,0.186l0.182-0.152c0.192,0.011-0.242,0.335-0.089,0.379
					l-0.202,0.065c0.044-0.014-0.064,0.183,0.034,0.173c0.167-0.137,0.37-0.302,0.499-0.408c0.122-0.017-0.136,0.202,0.064,0.087
					l-0.243,0.128c-0.056,0.044-0.189,0.305-0.115,0.364c0.102-0.007,0.375-0.177,0.384-0.326c0.038,0.029-0.001,0.171-0.134,0.261
					c0.13,0.018,0.145-0.18,0.303-0.215c-0.068,0.131-0.117,0.361-0.203,0.562l-0.313,0.199l0.046,0.046
					c-0.255,0.156-0.116,0.19-0.355,0.382c0.001,0.064,0.11,0.025,0.195-0.005c0.231-0.445,0.553-0.392,0.823-0.743
					c0.213,0.03-0.642,0.868-0.039,0.482c0.055-0.106,0.346-0.295,0.177-0.276c0.049,0.11,0.354-0.277,0.327-0.055
					c-0.193,0.069-0.225,0.4-0.505,0.501c0.105-0.102,0.018-0.135-0.026-0.119c-0.081,0.156-0.307,0.323-0.224,0.399
					c0.079,0.015,0.155,0.072,0.3-0.107c0.168-0.189-0.096-0.051,0.109-0.21c0.161,0.027-0.082,0.327,0.263,0.033
					c-0.089-0.032,0.071-0.239,0.19-0.366l0.145-0.01l-0.128,0.111c0.038,0.198,0.241-0.193,0.326-0.054l-0.17,0.295
					c-0.22,0.186-0.083-0.247-0.376,0.116c0.063,0.082,0.247-0.07,0.237,0.084c-0.043,0.015-0.072,0.004-0.115,0.02
					c0.016,0.036-0.373,0.517-0.022,0.347c0.15-0.053,0.127-0.109,0.245-0.237c0.156,0.071,0.312-0.027,0.408,0.023
					c-0.245,0.237,0.115,0.15-0.205,0.328c0.095-0.183-0.093-0.328-0.354-0.127c-0.228,0.338-0.057-0.128-0.357,0.15
					c0.09,0.095-0.182,0.384-0.341,0.59c0.014,0.038,0.115-0.02,0.158-0.035c0.177-0.171,0.139-0.2,0.306-0.388
					c0.063,0.148,0.259,0.141,0.479,0.02c-0.046,0.122-0.221,0.292-0.28,0.271c0.177,0.064,0.292,0.213,0.364,0.38
					c0.19-0.367,0.199,0.055,0.369-0.24c-0.005-0.126,0.13-0.387,0.287-0.486c0.024,0.056-0.119,0.128-0.159,0.206
					c0.199-0.113-0.155,0.332,0.128,0.125c-0.204-0.012-0.35,0.339-0.583,0.55c0.203-0.053-0.154,0.161-0.07,0.238
					c0.201-0.052,0.397-0.058,0.536-0.023c-0.082,0.326,0.295,0.276,0.408,0.363c-0.052,0.167-0.327,0.394-0.309,0.494
					c0.075,0.059,0.205-0.329,0.2-0.115l-0.057,0.043c0.087-0.032,0.028,0.351,0.401,0.004l-0.29,0.254
					c-0.004,0.044,0.073-0.005,0.116-0.021c-0.083,0.093-0.137,0.197-0.224,0.229c-0.114,0.253,0.163,0.092,0.24,0.147l0.108-0.208
					c0.239-0.023,0.167,0.216,0.336,0.263l-0.153,0.161l0.158-0.036c-0.161,0.143-0.192,0.303-0.035,0.203l-0.544,0.239
					c0.039-0.142,0.234-0.148,0.351-0.338c0.103-0.166-0.045-0.218-0.206-0.076c0.024,0.055,0.059,0.021,0.145-0.009
					c-0.195,0.24-0.249,0.175-0.418,0.299c0.03,0.01-0.003,0.107,0.068,0.039c-0.143,0.073-0.201,0.052-0.277-0.007
					c0.129-0.046,0.103-0.165,0.18-0.214c-0.188,0.196-0.312,0.197-0.347,0.061c0.15-0.289-0.299,0.001-0.34-0.154
					c0.226-0.166,0.427-0.282,0.563-0.309c0.03-0.159-0.075-0.058-0.045-0.218c-0.169,0.124-0.402,0.336-0.568,0.354l0.132-0.154
					c-0.144,0.009-0.347,0.231-0.403,0.103c-0.095-0.222-0.262-0.374-0.369-0.505l0.131-0.154c-0.361,0.258-0.337-0.091-0.56-0.033
					c-0.026-0.288-0.473-0.169-0.318-0.501c-0.384-0.138-0.73-0.248-0.968-0.566l0.247-0.174c-0.198,0.113,0.081-0.156,0-0.17
					c-0.1,0.227-0.276,0.162-0.434,0.263c0.026-0.287-0.307-0.252-0.561-0.203l0.132-0.154c-0.369,0.179-0.285-0.198-0.377-0.362
					c0.041-0.076,0.142-0.241,0.085-0.26c-0.289,0.183-0.312,0.134-0.546,0.206c-0.075-0.061-0.145-0.217-0.148-0.377
					c-0.54,0.179-0.662-0.225-1.05-0.07l0.059-0.232c-0.225,0.193-0.359,0.166-0.507,0.124c0.021-0.01-0.208-0.056-0.248-0.056
					c-0.054,0.001-0.098,0.014-0.168,0.081l0.032-0.407c-0.088-0.128-0.197,0.107-0.163,0.396c-0.087-0.123-0.176,0.208-0.26-0.12
					c-0.094-0.067-0.08,0.201-0.136,0.263c-0.185-0.126-0.248-0.075-0.378,0.036l0.044,0.015c-0.006-0.091-0.046-0.259-0.093-0.275
					c-0.029,0.127-0.251-0.041-0.049,0.406c-0.255-0.215-0.266,0.337-0.557,0.059c0.07,0.114,0.046,0.154,0.072,0.241
					c-0.107,0.061-0.377-0.098-0.329,0.148c-0.054-0.044-0.101-0.205-0.152-0.187c0.013,0.052,0.076,0.159,0.134,0.208
					c-0.102,0.23-0.134,0.177-0.292,0.199c-0.138,0.007-0.3,0.011-0.353,0.116c-0.075,0.453-0.438,0.749-0.711,1.219l-0.077-0.061
					c0.201,0.366-0.56,0.133-0.183,0.57c-0.102-0.017-0.138,0.115-0.271-0.023c0.12,0.283-0.446,0.186-0.31,0.558
					c0.019-0.01,0.01-0.031-0.009-0.075c-0.301,0.038-0.187,0.369-0.481,0.424c-0.018-0.044-0.016-0.096-0.088-0.162
					c-0.199-0.05,0.19,0.42-0.205,0.16c-0.028,0.041,0.16,0.177,0.169,0.145c-0.453,0.265-0.566,0.856-0.837,1.312
					c-0.457,0.081-0.599-0.521-0.536-0.07c-0.082-0.045,0.12,0.135,0.046,0.071c0.019,0.172-0.501-0.234-0.375-0.01
					c0.231,0.176,0.082,0.149,0.208,0.272c-0.29,0.032-0.507-0.12-0.472,0.16l-0.099-0.116c0.162,0.448-0.17,0.454,0.052,0.93
					c-0.334,0.391-0.839,1.016-1.514,1.474c-0.676,0.478-1.644,0.843-2.683,0.751c-0.974-0.138-1.896-0.62-2.43-1.02
					c-0.288-0.208-0.457-0.348-0.661-0.529c-0.195-0.176-0.381-0.367-0.55-0.583c0.051-0.468,0.029-0.471-0.286-0.513
					c0.049-0.044,0.072-0.046,0.095-0.104c-0.213,0.25-0.171-0.095-0.385,0.135c-0.272-0.291-0.613-0.444-0.933-0.693
					c0.072,0.012,0.263-0.179,0.19-0.209l-0.192,0.115l0.047-0.08c-0.071,0.006-0.216,0.099-0.239,0.215
					c-0.975-0.406-1.356-1.542-2.19-2.094c-0.102-0.254-0.444-0.363-0.688-0.47c-0.329-0.815-0.651-1.517-1.449-1.755
					C42.464,49.253,43.067,48.648,43.439,48.692z"/>
				<path fill="#FFFFFF" d="M69.905,52.325c0.09-0.14,0.085-0.266,0.285-0.38C70.093,52.066,70.01,52.223,69.905,52.325z"/>
				<path fill="#FFFFFF" d="M69.293,49.484c-0.035,0.034,0.02-0.072,0.032-0.096c0.03,0.01,0.143-0.073,0.103,0.005
					C69.398,49.381,69.349,49.442,69.293,49.484z"/>
				<path fill="#FFFFFF" d="M68.912,49.004c0.105-0.101,0.279-0.1,0.347-0.062L68.912,49.004z"/>
				<path fill="#FFFFFF" d="M68.9,48.179c0.047-0.124,0.102-0.164,0.148-0.117C69,48.122,68.957,48.136,68.9,48.179z"/>
				<path fill="#FFFFFF" d="M68.647,48.398c-0.037-0.029,0.003-0.108,0.043-0.185C68.606,48.307,68.823,48.228,68.647,48.398z"/>
				<path fill="#FFFFFF" d="M68.028,47.26c-0.03-0.011-0.158,0.035-0.069-0.103C67.905,47.261,68.189,47.117,68.028,47.26z"/>
				<path fill="#FFFFFF" d="M67.454,47.036c-0.007-0.02,0.005-0.044-0.038-0.029c0.02-0.072,0.117-0.127,0.148-0.118L67.454,47.036z
					"/>
				<polygon fill="#FFFFFF" points="56.989,49.655 56.966,49.565 57.077,49.658 				"/>
				<path fill="#FFFFFF" d="M54.096,52.901c0.037,0.091-0.119-0.076-0.137-0.089C53.985,52.767,54.076,52.949,54.096,52.901z"/>
				<polygon fill="#FFFFFF" points="52.691,54.384 52.707,54.38 52.712,54.679 				"/>
			</g>
		</g>
	</g>
	<g>
		<g>
			<g>
				<path fill="#FFFFFF" d="M72.968,43.801c0.094,0.009,0.172-0.193,0.115-0.039C72.987,43.831,72.91,43.878,72.968,43.801z"/>
				<path fill="#FFFFFF" d="M73.48,42.016c-0.387,0.091-0.455,0.01-0.51-0.12c-0.061-0.115-0.113-0.28-0.364-0.163
					c-0.042,0.007,0.272-0.317,0.156-0.283c-0.553,0.32-0.577-0.116-0.756-0.661l0.058-0.104c-0.035-0.106-0.229,0.242-0.271,0.176
					c0.021-0.075,0.051-0.101,0.067-0.208c-0.082,0.223-0.145,0.074-0.213,0.237c-0.002-0.096,0.044-0.277,0.033-0.387l-0.095,0.254
					c-0.217,0.615-0.23-0.091-0.408,0.229c0.012-0.062,0.03-0.11,0.025-0.171c-0.24,0.37-0.466,0.295-0.654,0.475
					c-0.007-0.095-0.024-0.267-0.053-0.371c0.031,0.283-0.021,0.359-0.061,0.425c-0.089-0.277-0.027,0.282-0.12,0.14l-0.013-0.063
					c0.045,0.304-0.12-0.154-0.039,0.208l-0.1-0.206c0.123,0.392-0.135-0.176-0.098,0.034l0.033,0.077
					c0.007,0.104-0.091-0.079-0.094-0.004l-0.022-0.041c-0.019,0.133-0.164-0.049-0.011,0.233c-0.146-0.213,0.01-0.139-0.2-0.449
					c-0.059,0.224-0.128,0.36-0.228,0.459l0.082-0.202c0.036,0.129,0.036,0.263,0.061,0.391c-0.123,0.051-0.158,0.078-0.276,0.104
					c0.068,0.018,0.074,0.099,0.241,0.096c-0.009-0.008-0.158,0.047-0.171,0.065c-0.109,0.074,0.356-0.008,0.226,0.073
					c-0.088-0.006-0.191,0.006-0.306,0.036c0.255,0.001,0.226,0.072,0.319,0.111c-0.055,0.003-0.089-0.004-0.187,0.019
					c0.291,0.001-0.032,0.126,0.155,0.14l-0.184,0.022c-0.198,0.141,0.382-0.065,0.27,0.041c-0.061-0.004-0.13,0.02-0.203,0.035
					c0.343-0.012,0.266,0.123,0.394,0.159c-0.025,0.003-0.074,0.018-0.074,0.018c0.058,0.061-0.012,0.167,0.151,0.199
					c-0.068,0.055-0.43,0.136-0.339,0.193c0.347-0.125,0.192,0.077,0.568-0.114c-0.034,0.079-0.125,0.231,0.008,0.221
					c-0.142,0.028-0.402,0.212-0.454,0.17l-0.188,0.132c-0.142,0.054,0.027-0.066-0.142,0.024c0.028,0.025,0.202,0.048,0.159,0.099
					c0.233-0.044,0.629-0.187,0.709-0.144c-0.147,0.035-0.349,0.214-0.418,0.22c0,0,0.171-0.06,0.341-0.119
					c0.167-0.065,0.335-0.131,0.335-0.131c0.027,0.012-0.249,0.154-0.148,0.137c0.083-0.053,0.143-0.071,0.216-0.104
					c-0.032,0.034,0.128,0.023-0.167,0.24c-0.11,0.091-0.087,0.008-0.179,0.106c0.032,0.04,0.135-0.031,0.167,0.005l-0.039,0.03
					c-0.025,0.063,0.179-0.023,0.317-0.172c-0.003-0.021-0.169,0.142-0.103,0.053c0.181-0.112,0.255-0.121,0.28-0.097
					c-0.052,0.029-0.125,0.094-0.208,0.157c0.254-0.146,0.348-0.17,0.461-0.236c0.121-0.125-0.23,0.219-0.173,0.147
					c-0.107,0.225,0.305-0.177,0.125,0.118c-0.024,0.02,0.14-0.203,0.112-0.164c0.004,0.028-0.135,0.239-0.07,0.171
					c-0.078,0.125,0.044-0.027,0.078-0.057c0.06-0.091-0.032,0.067-0.053,0.07c0.089-0.098,0.252-0.263,0.17-0.072
					c0.034-0.092,0.091-0.346,0.076-0.335l-0.046,0.223c-0.027,0.135-0.002-0.011-0.028,0.184c0.054-0.269-0.07,0.206-0.02,0.006
					c-0.033,0.187,0.081-0.348,0.02-0.043c-0.014-0.001,0.09-0.25,0.107-0.032c-0.009-0.039-0.081,0.31-0.038,0.298
					c0.077-0.032,0.034-0.106,0.102-0.174l0.048-0.088c0.03-0.221,0.06,0.038,0.065-0.212c-0.002,0.023-0.001,0.039,0.001,0.049
					c0.002,0.005,0.004,0.012,0.004,0.012l0.001,0.002l0,0l0,0l-0.089-0.008l0,0.001l0.001,0.002l0.011-0.008
					c0.007-0.005,0.014,0.013,0.014,0.197l-0.005,0.291c0.02-0.022,0.025-0.306,0.026-0.434c0.002,0.026,0.007,0.085,0.01,0.131
					c-0.026-0.445,0.035,0.033,0.012-0.308c0.041,0.148,0.048,0.008,0.124,0.272c-0.005-0.138-0.036-0.293,0.016-0.211
					c0.008,0.042,0.005,0.056,0.03,0.148c0.056,0.119,0.028,0.005,0.02-0.068c0.016,0.066,0.122,0.234,0.209,0.368
					c-0.016-0.136-0.121-0.353-0.174-0.49c0.201,0.391-0.049-0.287,0.153,0.056c0.018,0.059,0.051,0.216,0.126,0.302
					c0.231,0.373-0.087-0.319,0.056-0.158l-0.188-0.312c0.13,0.185-0.045-0.219,0.138,0.104c-0.053-0.119,0.117,0.07-0.075-0.229
					c0.235,0.21,0.07-0.265,0.493,0.217c-0.023-0.056,0.043-0.031-0.072-0.173c-0.137-0.145,0.056,0.135-0.031,0.031
					c0.004-0.016-0.052-0.096-0.079-0.137c0.073,0.047,0.109,0.051,0.261,0.307c0.193,0.129-0.305-0.526-0.149-0.473
					c0.087,0.119,0.127,0.158,0.135,0.123l-0.116-0.23c0.083,0.008,0.237,0.24,0.393,0.433c0-0.055,0.039-0.071-0.065-0.226
					l0.232,0.214c-0.168-0.154-0.072-0.136-0.097-0.193l0.025,0.058c0.074,0.077,0.063,0.002,0.056-0.034
					c-0.101-0.116-0.166-0.144-0.216-0.161c-0.052-0.098-0.017-0.094-0.087-0.205c0.151,0.192,0.147,0.102,0.181,0.107
					c0.055,0.022-0.121-0.184-0.11-0.183c0.084,0.095,0.046-0.011,0.149,0.135c0.02,0.037-0.097-0.079-0.035,0.014
					c0.075,0.06,0.22,0.226,0.142,0.081c-0.06-0.109-0.327-0.353-0.187-0.274c0.031,0.054,0.095,0.128,0.146,0.2l0.123,0.059
					l-0.15-0.165c0.041,0.04,0.054,0.053,0.075,0.074c-0.149-0.182,0.005-0.105-0.169-0.302c0-0.033,0.145,0.077,0.179,0.077
					l0.011,0.017c0.112,0.072,0.079-0.018-0.014-0.139l0.034,0.035c0.023,0.001,0.024-0.05-0.059-0.152
					c0.149,0.087,0.629,0.56,0.452,0.336c0.023-0.039-0.263-0.32-0.38-0.402c0.161,0.045-0.07-0.242,0.235-0.075
					c-0.065-0.063-0.113-0.094-0.143-0.141c0.136-0.027-0.108-0.301,0.3-0.12c0.065,0.073,0.186,0.122,0.294,0.19
					c-0.156-0.127,0.191,0.085-0.095-0.104c-0.172-0.104-0.254-0.157-0.334-0.181c-0.068-0.101-0.028-0.158,0.146-0.091
					c-0.087-0.033-0.136-0.072-0.186-0.108c0.281,0.157,0.34,0.144,0.251,0.07l-0.173-0.09l0.188,0.074
					c-0.051-0.037-0.366-0.185-0.185-0.125c0.07,0.029,0.141,0.059,0.192,0.081c-0.137-0.09-0.382-0.211-0.219-0.168l0.275,0.081
					c-0.023-0.023-0.187-0.085-0.266-0.103c0.166,0.033,0.194,0.019,0.437,0.07c-0.566-0.217-0.614-0.137-0.562-0.075l0.146-0.018
					c0.136-0.003-0.254,0.041-0.151,0.042c0.139-0.022,0.297-0.046,0.469-0.073c0.151-0.027-0.241,0.049-0.305,0.091
					c-0.186,0.052,0.118-0.046-0.118,0.018c-0.066,0.026,0.15,0-0.121,0.1c0.111-0.028,0.309-0.11,0.421-0.149l-0.128,0.061
					c0.314-0.131,0.569-0.21,0.968-0.339l-0.05-0.005c0.276-0.135,0.351-0.037,0.423-0.149c-0.15,0.006-0.541,0.162-0.657,0.223
					c-0.078,0.006-0.636,0.271-0.605,0.285c0.151-0.076,0.031-0.037,0.248-0.138c0.205-0.107-0.118,0.066-0.042,0.032
					c-0.096,0.053-0.346,0.208-0.38,0.253c0.127-0.063,0.223-0.158,0.262-0.163c-0.134,0.096-0.228,0.193-0.329,0.245
					c-0.298,0.241,0.096-0.04-0.12,0.161c0.201-0.175,0.454-0.396,0.568-0.495c-0.2,0.165-0.247,0.246-0.531,0.504
					c0.066-0.04,0.207-0.187,0.317-0.299c0.048-0.043,0.007,0.001-0.033,0.051l0.9,0.412c-0.004,0.101,0.004,0.207,0.02-0.099
					l-0.008,0.264c0.008-0.085,0.016-0.149,0.02-0.292c0,0,0.05,0.35,0.013-0.047c0.004,0.043,0.017,0.027,0.051,0.299
					c-0.002,0.168-0.039-0.204-0.019,0.172c-0.011-0.309,0.034,0.041,0.073,0.137l-0.022-0.153c0.019,0.059,0.032,0.021,0.075,0.182
					c-0.027-0.084-0.044-0.188-0.046-0.226l0.063,0.225c0.073,0.1-0.094-0.407-0.053-0.343l-0.064-0.171
					c0.014,0.034-0.045-0.175-0.022-0.104c0.067,0.204,0.16,0.444,0.225,0.597c0.055,0.079-0.08-0.227,0.021-0.032l-0.116-0.231
					c-0.022-0.063-0.1-0.284-0.116-0.33c0.028,0.065,0.182,0.337,0.219,0.447c0.013-0.001-0.04-0.118-0.117-0.256
					c0.046,0.063,0.104,0.206,0.183,0.316c-0.06-0.129-0.15-0.312-0.27-0.485l-0.189-0.302l-0.01,0.001
					c-0.142-0.248-0.129-0.178-0.286-0.436c-0.04-0.032,0.002,0.062,0.04,0.136c0.3,0.376,0.375,0.551,0.66,0.887
					c0.096,0.079-0.706-0.812-0.254-0.289c0.08,0.082,0.314,0.325,0.224,0.232c-0.034-0.032,0.313,0.317,0.192,0.181
					c-0.131-0.127-0.33-0.301-0.514-0.491c0.105,0.102,0.085,0.071,0.058,0.039c-0.124-0.115-0.31-0.32-0.329-0.298
					c0.018,0.043,0.009,0.065,0.185,0.214c0.19,0.167-0.009-0.03,0.177,0.146c0.059,0.065-0.246-0.178,0.102,0.111
					c-0.024-0.031,0.177,0.141,0.309,0.253l0.085,0.061l-0.132-0.105c-0.092-0.073,0.242,0.188,0.215,0.152l-0.271-0.192
					c-0.232-0.165,0.104,0.072-0.268-0.209c-0.022,0.001,0.17,0.139,0.066,0.076c-0.03-0.024-0.042-0.033-0.072-0.058
					c-0.011-0.01-0.534-0.344-0.247-0.122c0.115,0.086,0.141,0.088,0.289,0.179c0.039,0.045,0.194,0.129,0.216,0.143
					c-0.307-0.152-0.036-0.001-0.348-0.159c0.187,0.076,0.175,0.061-0.1-0.116c-0.352-0.194,0.056,0.007-0.28-0.216
					c-0.029,0.021-0.365-0.18-0.594-0.306c-0.024,0.006,0.064,0.075,0.095,0.102c0.211,0.125,0.216,0.107,0.435,0.232
					c-0.076,0.007,0.016,0.108,0.233,0.22c-0.114-0.039-0.338-0.137-0.353-0.165c0.051,0.081-0.01,0.112-0.088,0.144
					c0.391,0.082,0.078,0.073,0.405,0.137c0.093,0.003,0.365,0.077,0.537,0.13c-0.037-0.01-0.168-0.046-0.25-0.069
					c0.21,0.06-0.342-0.072-0.011,0.017c-0.119-0.049-0.471-0.118-0.774-0.194c0.161,0.077-0.216-0.054-0.228-0.01
					c0.158,0.081,0.295,0.143,0.355,0.183c-0.304,0.028-0.004,0.116,0.005,0.137c-0.153,0.034-0.508,0.058-0.563,0.099
					c0.013,0.036,0.374-0.078,0.222-0.005l-0.07,0.006c0.083-0.008-0.221,0.162,0.279,0.037l-0.375,0.086
					c-0.03,0.019,0.058,0.006,0.1,0.001c-0.12,0.035-0.224,0.081-0.309,0.085c-0.237,0.121,0.072,0.079,0.094,0.111l0.202-0.11
					c0.178-0.007-0.002,0.092,0.083,0.104l-0.18,0.128l0.121-0.049c-0.174,0.126-0.255,0.252-0.099,0.156
					c0.003,0.014-0.499,0.232-0.511,0.209c0.084-0.114,0.246-0.107,0.409-0.261c0.148-0.127,0.077-0.132-0.122-0.048
					c-0.007,0.038,0.037,0.017,0.116-0.007c-0.257,0.172-0.272,0.122-0.471,0.187c0.022,0.014-0.042,0.09,0.045,0.046
					c-0.15,0.037-0.208-0.008-0.241-0.074c0.128-0.003,0.167-0.099,0.255-0.115c-0.251,0.103-0.356,0.062-0.313-0.05
					c0.279-0.144-0.244-0.108-0.176-0.245c0.279-0.001,0.503-0.002,0.619,0.017c0.126-0.078-0.017-0.052,0.112-0.124
					c-0.205,0.014-0.519,0.047-0.656-0.024l0.201-0.026c-0.113-0.057-0.408-0.04-0.355-0.145c0.09-0.176,0.116-0.333,0.157-0.452
					l0.2,0.031c-0.418-0.145-0.107-0.243-0.269-0.383c0.233-0.078-0.057-0.407,0.301-0.328c-0.021-0.303,0.008-0.625,0.286-0.8
					l0.177,0.242c-0.121-0.188,0.144,0.095,0.143,0.031c-0.204-0.127-0.169-0.268-0.252-0.429c0.258,0.08,0.231-0.218,0.268-0.474
					l0.107,0.172c-0.067-0.411,0.275-0.193,0.45-0.187c0.047,0.074,0.127,0.242,0.167,0.212c0.008-0.337,0.067-0.327,0.195-0.555
					c0.118-0.021,0.32,0.067,0.421,0.196c0.03-0.031,0.061-0.057,0.092-0.081l0.622,0.284c0.534,0.054,0.622,0.591,0.974,0.993
					l-0.225,0.088c0.302,0.185,0.333,0.487,0.293,0.73c-0.044,0.236-0.133,0.439-0.057,0.628l-0.383-0.14
					c-0.146,0.052,0.04,0.238,0.32,0.312c-0.15,0.047,0.093,0.304-0.239,0.231c-0.105,0.059,0.124,0.182,0.138,0.28
					c-0.224,0.102-0.221,0.173-0.244,0.355l0.043-0.023c-0.068-0.062-0.216-0.151-0.259-0.13c0.066,0.111-0.207,0.129,0.233,0.342
					c-0.328-0.015-0.05,0.477-0.455,0.373c0.113,0.072,0.107,0.12,0.166,0.19c-0.092,0.127-0.397,0.057-0.305,0.298
					c-0.064-0.028-0.143-0.18-0.192-0.146c0.014,0.059,0.128,0.118,0.152,0.2c0.012,0.35-0.516,0.161-0.626,0.342
					c-0.076,0.237-0.16,0.346-0.294,0.46c-0.132,0.111-0.285,0.201-0.423,0.324l-0.053-0.082c0.107,0.381-0.447-0.158-0.238,0.371
					c-0.074-0.063-0.131,0.026-0.204-0.149c0.032,0.286-0.375-0.072-0.386,0.298c0.018,0.001,0.018-0.02,0.017-0.066
					c-0.238-0.127-0.276,0.207-0.531,0.081c0.006-0.046,0.031-0.086,0.006-0.18c-0.117-0.158-0.053,0.448-0.217,0.003
					c-0.039,0.014,0.027,0.237,0.051,0.217c-0.232-0.032-0.452,0.028-0.697,0.104l-0.189,0.054l-0.048,0.014l-0.001,0l-0.001,0
					l-0.122-0.01l-0.002,0.001l-0.003,0.001l-0.007,0.003l-0.013,0.006l-0.053,0.024c-0.073,0.031-0.135,0.064-0.214,0.08
					c-0.409-0.38,0.124-0.779-0.279-0.521c0.001-0.094-0.07,0.167-0.046,0.072c-0.178,0.084-0.003-0.552-0.145-0.349
					c-0.086,0.278-0.105,0.13-0.178,0.29c-0.116-0.267-0.015-0.495-0.252-0.391l0.09-0.123c-0.382,0.264-0.422-0.045-0.859,0.218
					c-0.86-0.675-1.422-1.359-1.729-2.083c-0.126-0.679-0.398-1.256-0.315-1.904l0.192-1.495l0.534-0.292
					c0.096-0.053,0.199-0.102,0.304-0.145c0.435,0.18,0.421,0.184,0.578-0.088c0.02,0.062,0.014,0.084,0.057,0.129
					c-0.139-0.298,0.146-0.113,0.037-0.405c0.38-0.1,0.688-0.292,1.072-0.36c-0.055,0.044-0.032,0.312,0.03,0.28l0.037-0.217
					l0.026,0.089c0.039-0.055,0.071-0.223,0.004-0.32c0.479-0.217,0.995-0.111,1.43,0.078c0.446,0.184,0.813,0.459,1.233,0.603
					c0.132,0.211,0.447,0.243,0.686,0.33c0.344,0.789,0.398,1.379,0.971,1.845C74.552,41.801,73.741,42.079,73.48,42.016z"/>
				<path fill="#FFFFFF" d="M72.89,43.76c0.116-0.117,0.154-0.211,0.346-0.323C73.121,43.54,73.005,43.669,72.89,43.76z"/>
				<path fill="#FFFFFF" d="M74.167,42.428c-0.047-0.011,0.067,0.007,0.093,0.012c0.011,0.009,0.144,0.041,0.059,0.027
					C74.31,42.46,74.233,42.445,74.167,42.428z"/>
				<path fill="#FFFFFF" d="M74.298,42.338c0.134,0.058,0.236,0.116,0.248,0.128L74.298,42.338z"/>
				<path fill="#FFFFFF" d="M74.863,42.546c0.1,0.06,0.133,0.079,0.161,0.096C74.957,42.602,74.923,42.582,74.863,42.546z"/>
				<path fill="#FFFFFF" d="M74.579,42.371c-0.001-0.008,0.075,0.038,0.146,0.082C74.618,42.385,74.786,42.499,74.579,42.371z"/>
				<path fill="#FFFFFF" d="M74.892,42.641c-0.011-0.007-0.085-0.107,0.002,0.033C74.833,42.574,75.021,42.813,74.892,42.641z"/>
				<path fill="#FFFFFF" d="M74.709,42.493c0.002,0.011,0.011,0.036-0.008,0.001c0.021,0.064,0.068,0.159,0.08,0.168L74.709,42.493z
					"/>
				<polygon fill="#FFFFFF" points="72.071,43.696 72.055,43.623 72.121,43.751 				"/>
				<path fill="#FFFFFF" d="M71.192,43.613c-0.08,0.047,0.095-0.099,0.11-0.115C71.322,43.498,71.162,43.612,71.192,43.613z"/>
				<polygon fill="#FFFFFF" points="70.088,43.081 70.095,43.089 69.812,43.186 				"/>
			</g>
		</g>
	</g>
</g>
</svg>
