<?xml version="1.0" encoding="utf-8"?>
<!-- Generator: Adobe Illustrator 18.0.0, SVG Export Plug-In . SVG Version: 6.00 Build 0)  -->
<!DOCTYPE svg PUBLIC "-//W3C//DTD SVG 1.1//EN" "http://www.w3.org/Graphics/SVG/1.1/DTD/svg11.dtd">
<svg version="1.1" id="Layer_2" xmlns="http://www.w3.org/2000/svg" xmlns:xlink="http://www.w3.org/1999/xlink" x="0px" y="0px"
	 viewBox="0 0 30 30" enable-background="new 0 0 30 30" xml:space="preserve">
<g>
	<g>
		<g>
			<path fill="#FFFFFF" d="M1.736,13.551c-0.135-0.132-0.192,0.194-0.151-0.057C1.702,13.466,1.797,13.46,1.736,13.551z"/>
			<path fill="#FFFFFF" d="M29.496,8.15c0.689,0.672-0.203,1.284,0.151,1.98c0.018,0.078-0.406-0.103-0.338,0.078
				c0.449,0.709-0.116,1.582-0.774,2.133l-0.101-0.076c-0.12,0.106,0.205,0.381,0.111,0.506c-0.075-0.023-0.093-0.078-0.205-0.079
				c0.215,0.107,0.03,0.286,0.173,0.399c-0.106,0.026-0.282-0.038-0.405-0.001l0.227,0.164c0.527,0.429-0.23,0.52-0.025,0.933
				c-0.053-0.037-0.089-0.084-0.154-0.081c0.176,0.615-0.126,1.198-0.239,1.782c-0.077-0.06-0.226-0.15-0.338-0.163
				c0.246,0.141,0.236,0.334,0.221,0.499c-0.293-0.06,0.128,0.356-0.095,0.455l-0.052-0.042c0.217,0.257-0.241,0.105,0.034,0.364
				l-0.244-0.025c0.339,0.238-0.28,0.078-0.146,0.271l0.076,0.035c0.04,0.14-0.169,0.093-0.153,0.212l-0.046-0.014
				c-0.011,0.254-0.274,0.264,0.01,0.412c-0.263-0.052,0-0.253-0.387-0.319c-0.069,0.813-0.52,1.46-0.932,2.094
				c-0.154,0.002-0.216,0.026-0.328-0.024c0.013,0.099-0.103,0.271-0.009,0.417c0.009-0.025-0.164-0.052-0.2-0.029
				c-0.178,0.043,0.203,0.322-0.002,0.364c-0.035-0.098-0.108-0.174-0.218-0.225c0.131,0.247-0.001,0.366-0.023,0.537
				c-0.03-0.051-0.035-0.1-0.12-0.154c0.132,0.301-0.219,0.214-0.165,0.434l-0.115-0.153c-0.322,0.05,0.268,0.286,0.037,0.367
				c-0.017-0.074-0.085-0.104-0.14-0.156c0.153,0.352-0.124,0.529-0.151,0.75c-0.013-0.025-0.055-0.054-0.055-0.054
				c-0.091,0.193-0.313,0.289-0.347,0.557c-0.116,0.011-0.329-0.309-0.416-0.1c0.289,0.233-0.122,0.382,0.28,0.557
				c-0.165,0.108-0.468,0.236-0.46,0.411c-0.048-0.156-0.398-0.236-0.317-0.371l-0.246-0.065c-0.101-0.114,0.119-0.053-0.049-0.154
				c-0.039,0.066-0.081,0.329-0.172,0.338c0.072,0.258,0.294,0.647,0.166,0.851c-0.027-0.178-0.339-0.239-0.333-0.336l0.277,0.729
				c-0.044,0.069-0.219-0.195-0.232-0.045c0.074,0.066,0.081,0.144,0.112,0.226c-0.051-0.01-0.172,0.303-0.447,0.061
				c-0.122-0.079,0.038-0.146-0.114-0.179c-0.099,0.103-0.017,0.204-0.117,0.304l-0.035-0.034c-0.106,0.023-0.098,0.302,0.114,0.381
				c0.056-0.036-0.167-0.145-0.024-0.132c0.095,0.2,0.015,0.356-0.087,0.456c-0.004-0.076-0.075-0.144-0.131-0.233
				c0.047,0.347-0.015,0.53-0.125,0.792c0.063,0.06,0.005,0.007-0.007-0.103c-0.043-0.082-0.089-0.175-0.047-0.152
				c-0.389,0.025-0.219,0.649-0.635,0.537c0.01-0.048,0.175,0.176,0.141,0.14c-0.119,0.072-0.275-0.126-0.284,0.002
				c-0.1-0.108-0.057,0.107-0.1,0.2c0.03,0.113-0.064-0.041-0.012-0.103c-0.017,0.177-0.286,0.68-0.66,0.686
				c0.064,0.074,0.062,0.399-0.002,0.432l-0.111-0.202c-0.13-0.073-0.179,0.152-0.301-0.002c0.042,0.313,0.324-0.523,0.286-0.233
				c-0.152-0.124-0.012,0.46-0.159,0.181c-0.108,0.086-0.076,0.375-0.307,0.275c0.053,0.008-0.086-0.326-0.168-0.25
				c-0.14,0.144,0.015,0.122-0.078,0.274l-0.034,0.134c0.115,0.191-0.167,0.072,0.029,0.242c-0.116-0.141-0.193,0.253-0.367-0.074
				l-0.127-0.263c-0.061,0.062,0.038,0.335,0.043,0.48c-0.023-0.017-0.073-0.056-0.092-0.098c0.212,0.394-0.199,0.072-0.125,0.422
				c-0.235-0.043-0.433,0.212-0.635,0.002c-0.067,0.186-0.126,0.385-0.318,0.366c0.014-0.052,0.05-0.082,0.02-0.173
				c-0.147-0.078-0.123,0.039-0.182,0.145c-0.005-0.067-0.295-0.164-0.453-0.271c-0.084,0.175,0.042,0.383,0.079,0.526
				c-0.268-0.37-0.311,0.406-0.596,0.073c0.036-0.07,0.141-0.269-0.004-0.338c-0.244-0.387-0.166,0.382-0.433,0.233l0.137,0.341
				c-0.145-0.195-0.31,0.281-0.353-0.088c-0.061,0.146-0.291-0.067-0.209,0.277c-0.088-0.064-0.177-0.078-0.267-0.072
				c-0.112,0.013-0.227,0.026-0.337,0.039c-0.209,0.014-0.409-0.007-0.519-0.331c-0.051,0.058-0.179-0.006-0.156,0.177
				c0.085,0.201,0.123-0.138,0.154-0.002c-0.047,0.009-0.058,0.107-0.063,0.156c-0.116-0.084-0.201-0.112-0.09-0.405
				c-0.229-0.233-0.284,0.61-0.607,0.43c0.03-0.145,0.011-0.203-0.085-0.191l-0.212,0.228c-0.205-0.085-0.067-0.346-0.035-0.593
				c-0.111,0.026-0.234-0.014-0.319,0.159l-0.063-0.332c0.044,0.239-0.117,0.129-0.18,0.178l0.063-0.049
				c0.005-0.108-0.129-0.067-0.196-0.056c-0.025,0.156,0.084,0.247,0.144,0.303c-0.079,0.095-0.161,0.054-0.264,0.156
				c0.084-0.23-0.128-0.217-0.204-0.266c-0.08-0.078-0.172,0.178-0.198,0.162c0.035-0.122-0.152-0.067-0.022-0.214
				c0.045-0.03,0.038,0.139,0.125,0.049c-0.036-0.109,0.039-0.316-0.138-0.201c-0.133,0.08-0.128,0.467-0.262,0.253
				c0.068-0.039,0.109-0.129,0.174-0.198l-0.125-0.181l-0.083,0.207c-0.004-0.062,0.019-0.074,0.019-0.106
				c-0.132,0.201-0.283-0.028-0.42,0.202c-0.096-0.013-0.118-0.221-0.187-0.278l0.023-0.011c-0.044-0.163-0.204-0.141-0.351-0.043
				l0.025-0.042c-0.047-0.038-0.18-0.07-0.305,0.012c-0.053-0.218,0.346-0.768,0.078-0.593c-0.127-0.058-0.397,0.251-0.414,0.403
				c-0.153-0.259-0.602-0.109-0.622-0.532c-0.08,0.054-0.092,0.115-0.185,0.115c-0.27-0.282-0.827-0.263-0.797-0.794
				c0.145-0.007,0.144-0.17,0.221-0.271c-0.195,0.102,0.047-0.227-0.192,0.019c-0.119,0.162-0.19,0.233-0.156,0.363
				c-0.244-0.058-0.511-0.286-0.483-0.507c-0.013,0.11-0.091,0.125-0.169,0.139c0.223-0.231,0.135-0.377-0.032-0.377l-0.144,0.133
				l0.076-0.204c-0.077,0.014-0.318,0.265-0.282,0.043c0.047-0.06,0.095-0.121,0.116-0.177c-0.207,0.032-0.523,0.092-0.508-0.125
				l0.121-0.282c-0.064-0.02-0.258,0.029-0.242,0.161c-0.048-0.287-0.138-0.424-0.009-0.646c-0.763,0.065-1.09-0.268-1.399-0.721
				l0.123-0.081c0.027-0.184-0.24,0.109-0.217-0.024c0.134-0.056,0.177-0.265,0.372-0.295c0.01-0.235-0.346-0.021-0.469-0.074
				c-0.163,0.104,0.154-0.001-0.052,0.132c-0.066,0.026-0.032-0.291-0.28-0.136c0.063-0.106,0.255-0.207,0.363-0.26l-0.179-0.001
				c0.191-0.31,0.665-0.129,0.913-0.495l-0.095-0.05c0.187-0.258,0.427-0.006,0.364-0.262c-0.177,0.005-0.569,0.186-0.614,0.34
				c-0.199-0.13-0.618,0.335-0.746,0.123c0.097-0.155,0.151,0.133,0.315-0.048c0.118-0.23-0.242-0.107-0.236-0.239
				c-0.022,0.156-0.315,0.252-0.403,0.223c0.039-0.182,0.27-0.096,0.192-0.257c-0.153,0.075-0.351,0.015-0.364,0.198
				c-0.348,0.169-0.022-0.212-0.32-0.121c0.186-0.2,0.613-0.208,0.609-0.443c-0.194,0.174-0.422,0.004-0.679,0.307
				c0.017-0.106,0.18-0.228,0.341-0.272c0.071-0.179-0.537,0.048-0.134-0.27l-0.239,0.117c0.052-0.077,0.078-0.153,0.165-0.278
				c-0.05-0.08-0.468-0.058-0.13-0.27c-0.051-0.003-0.154-0.194-0.339,0.026c-0.067,0.206,0.253,0.02-0.016,0.288
				c0.201-0.248-0.14-0.142-0.269-0.154l0.122-0.095c-0.076-0.006-0.106-0.116-0.263-0.05c0.094-0.017,0.172-0.09,0.183-0.141
				l-0.224,0.085c-0.203-0.098,0.322-0.259,0.167-0.378l0.227,0.021c-0.05-0.005,0.104-0.175-0.005-0.21
				c-0.203,0.077-0.449,0.17-0.607,0.229c-0.135-0.039,0.18-0.167-0.061-0.139l0.29-0.022c0.07-0.02,0.253-0.263,0.176-0.376
				c-0.109-0.035-0.445,0.008-0.472,0.188c-0.04-0.057,0.02-0.208,0.183-0.243c-0.145-0.096-0.187,0.138-0.37,0.09
				c0.094-0.122,0.179-0.375,0.305-0.569l0.379-0.064l-0.045-0.081c0.307-0.045,0.157-0.164,0.452-0.261
				c0.008-0.078-0.118-0.09-0.217-0.102c-0.323,0.405-0.676,0.158-1.03,0.426c-0.234-0.162,0.85-0.676,0.119-0.561
				c-0.078,0.095-0.432,0.153-0.241,0.229c-0.037-0.162-0.439,0.126-0.374-0.128c0.227,0.031,0.316-0.349,0.644-0.306
				c-0.134,0.061-0.042,0.152,0.009,0.158c0.115-0.14,0.393-0.209,0.314-0.348c-0.085-0.064-0.159-0.176-0.35-0.046
				c-0.219,0.127,0.098,0.117-0.156,0.188c-0.174-0.128,0.148-0.344-0.284-0.197c0.091,0.091-0.121,0.245-0.274,0.328l-0.162-0.076
				l0.16-0.057c-0.007-0.263-0.3,0.087-0.37-0.133l0.24-0.252c0.277-0.091,0.047,0.348,0.435,0.088
				c-0.054-0.136-0.285-0.065-0.245-0.243c0.05,0.008,0.08,0.039,0.131,0.045c-0.011-0.054,0.505-0.394,0.089-0.402
				c-0.174-0.027-0.159,0.054-0.313,0.134c-0.156-0.181-0.346-0.159-0.441-0.279c0.315-0.132-0.096-0.25,0.29-0.266
				c-0.141,0.16,0.036,0.45,0.36,0.368c0.316-0.266,0.035,0.188,0.419,0.036c-0.08-0.167,0.274-0.348,0.489-0.497
				c-0.008-0.054-0.128-0.045-0.177-0.053c-0.226,0.097-0.191,0.154-0.411,0.277c-0.039-0.213-0.253-0.324-0.517-0.314
				c0.075-0.118,0.301-0.211,0.36-0.15c-0.178-0.183-0.268-0.432-0.309-0.672c-0.287,0.316-0.202-0.188-0.451,0.054
				C1.756,17.775,1.554,18,1.362,18.02c-0.014-0.082,0.157-0.077,0.217-0.145c-0.241,0.01,0.241-0.297-0.109-0.229
				c0.216,0.143,0.453-0.181,0.75-0.286c-0.229-0.064,0.202-0.095,0.13-0.237c-0.227-0.064-0.438-0.179-0.578-0.308
				c0.167-0.332-0.246-0.51-0.344-0.685c0.097-0.163,0.446-0.254,0.452-0.382c-0.064-0.116-0.301,0.255-0.24,0.008l0.072-0.014
				c-0.1-0.018,0.061-0.428-0.423-0.261L1.66,15.37c0.016-0.048-0.078-0.041-0.128-0.05c0.112-0.055,0.196-0.142,0.296-0.124
				c0.185-0.222-0.146-0.21-0.213-0.325l-0.169,0.173c-0.257-0.128-0.119-0.36-0.283-0.523l0.204-0.088l-0.175-0.061
				c0.208-0.062,0.284-0.228,0.092-0.214l0.634,0.074c-0.079,0.139-0.286,0.021-0.459,0.166c-0.152,0.126-0.011,0.282,0.196,0.221
				c-0.011-0.08-0.056-0.062-0.155-0.082c0.269-0.154,0.308-0.043,0.519-0.079c-0.029-0.031,0.032-0.122-0.06-0.089
				c0.17,0.007,0.225,0.069,0.288,0.184c-0.147-0.028-0.152,0.125-0.246,0.133c0.25-0.107,0.379-0.03,0.38,0.149
				c-0.234,0.24,0.314,0.187,0.317,0.393c-0.281,0.051-0.522,0.059-0.672,0.004c-0.073,0.166,0.064,0.115-0.009,0.282
				c0.21-0.037,0.51-0.137,0.689-0.054l-0.179,0.096c0.154,0.08,0.425-0.052,0.452,0.131c0.044,0.316,0.182,0.596,0.264,0.813
				L3.066,16.6c0.445-0.08,0.335,0.311,0.587,0.376c-0.038,0.351,0.464,0.476,0.227,0.771c0.381,0.385,0.73,0.706,0.929,1.205
				L4.507,19.02c0.236-0.024-0.117,0.138-0.031,0.199c0.151-0.211,0.33-0.038,0.519-0.072c-0.083,0.322,0.293,0.456,0.575,0.529
				L5.4,19.788c0.433-0.015,0.282,0.368,0.367,0.627c-0.055,0.07-0.192,0.213-0.13,0.267c0.355-0.056,0.375,0.018,0.66,0.08
				c0.081,0.128,0.15,0.375,0.132,0.574c0.696,0.211,0.798,0.841,1.372,1.132l-0.161,0.18c0.189,0.031,0.333,0.103,0.452,0.199
				l0.085,0.076c-0.006-0.012,0.048,0.046,0.067,0.067c0.055,0.06,0.105,0.123,0.154,0.186c0.201,0.269,0.345,0.488,0.593,0.565
				L8.666,23.99c0.005,0.195,0.311,0.166,0.488-0.064c0.016,0.192,0.393,0.114,0.227,0.42c0.058,0.155,0.263-0.014,0.389,0.027
				c0.11,0.315,0.222,0.356,0.479,0.474l-0.036-0.063c-0.08,0.05-0.194,0.18-0.157,0.246c0.149-0.017,0.229,0.324,0.449-0.12
				c0.059,0.407,0.662,0.209,0.677,0.674c0.053-0.124,0.124-0.107,0.197-0.169c0.204,0.117,0.291,0.491,0.568,0.374
				c0.003,0.077-0.16,0.172-0.079,0.23c0.075-0.018,0.082-0.154,0.178-0.186c0.436-0.052,0.586,0.551,0.941,0.596
				c0.636-0.068,1.167,0.13,1.691,0.061l-0.001,0.098c0.062-0.192,0.212-0.1,0.254-0.035c0.137,0.052,0.296,0.083,0.32-0.209
				c0.046,0.083,0.132,0.015,0.143,0.205c0.035-0.272,0.457,0.148,0.564-0.245c-0.022-0.002-0.026,0.02-0.036,0.067
				c0.285,0.136,0.37-0.212,0.669-0.132c-0.006,0.049-0.036,0.095-0.005,0.188c0.168,0.13,0.04-0.468,0.287-0.064
				c0.05-0.029-0.065-0.232-0.09-0.204c0.586-0.075,0.973-0.659,1.399-1.089c0.519-0.024,0.484,0.631,0.562,0.139
				c0.078,0.056-0.09-0.157-0.028-0.081c0.03-0.184,0.488,0.29,0.417,0.035c-0.208-0.205-0.048-0.168-0.153-0.308
				c0.333-0.019,0.542,0.141,0.576-0.166l0.084,0.128c-0.073-0.497,0.306-0.516,0.144-1.035c0.203-0.208,0.498-0.534,0.731-0.801
				c0.226-0.274,0.414-0.536,0.619-0.799c0.404-0.553,0.791-1.116,1.199-1.659c0.926-0.993,1.487-2.2,2.397-3.25
				c0.505-0.082,0.522-0.107,0.543-0.501c0.05,0.044,0.053,0.071,0.118,0.078c-0.281-0.172,0.089-0.238-0.172-0.415
				c0.296-0.42,0.42-0.883,0.632-1.359c-0.003,0.089,0.223,0.239,0.245,0.14l-0.147-0.18l0.091,0.022
				c-0.016-0.082-0.133-0.213-0.259-0.194c0.261-1.291,1.309-2.274,1.585-3.559c0.207-0.263,0.189-0.722,0.203-1.059
				c0.646-0.862,1.142-1.731,0.969-2.785C28.539,7.46,29.363,7.687,29.496,8.15z"/>
			<path fill="#FFFFFF" d="M1.856,13.729c-0.133,0.104-0.162,0.253-0.402,0.257C1.588,13.91,1.717,13.78,1.856,13.729z"/>
			<path fill="#FFFFFF" d="M1.775,17.439c0.046-0.018-0.038,0.073-0.057,0.094c-0.03-0.031-0.17-0.003-0.109-0.071
				C1.638,17.494,1.705,17.453,1.775,17.439z"/>
			<path fill="#FFFFFF" d="M2.079,18.245c-0.135,0.056-0.323-0.054-0.388-0.142L2.079,18.245z"/>
			<path fill="#FFFFFF" d="M1.925,19.238c-0.075,0.12-0.144,0.135-0.185,0.05C1.805,19.245,1.854,19.254,1.925,19.238z"/>
			<path fill="#FFFFFF" d="M2.244,19.131c0.035,0.057-0.024,0.127-0.082,0.196C2.271,19.265,2.018,19.227,2.244,19.131z"/>
			<path fill="#FFFFFF" d="M2.741,20.875c0.032,0.031,0.183,0.049,0.064,0.166C2.88,20.945,2.539,20.955,2.741,20.875z"/>
			<path fill="#FFFFFF" d="M3.356,21.47c0.006,0.028-0.011,0.051,0.04,0.056c-0.031,0.077-0.148,0.089-0.182,0.06L3.356,21.47z"/>
			<polygon fill="#FFFFFF" points="16.311,29.043 16.233,29.139 16.212,28.995 			"/>
			<path fill="#FFFFFF" d="M22.071,25.464c0-0.125,0.136,0.06,0.161,0.066C22.186,25.594,22.131,25.379,22.071,25.464z"/>
			<polygon fill="#FFFFFF" points="23.958,22.439 23.944,22.462 23.721,22.263 			"/>
		</g>
	</g>
</g>
<g>
	<g>
		<g>
			<path fill="#FFFFFF" d="M23.137,13.893c0.201-0.119-0.179-0.219,0.115-0.145C23.251,13.869,23.231,13.966,23.137,13.893z"/>
			<path fill="#FFFFFF" d="M15.983,15.074c0.762-0.713,1.71,0.069,2.476-0.514c0.089-0.041,0.019,0.418,0.219,0.298
				c0.697-0.674,1.877-0.548,2.943-0.418l-0.019,0.132c0.203,0.02,0.289-0.423,0.486-0.433c0.028,0.073-0.021,0.125,0.058,0.211
				c-0.033-0.234,0.293-0.22,0.302-0.419c0.104,0.056,0.167,0.233,0.298,0.291l0-0.291c0.031-0.694,0.696-0.262,0.927-0.741
				c0.011,0.064-0.004,0.126,0.053,0.165c0.41-0.649,1.142-0.996,1.638-1.552c0.033,0.093,0.114,0.249,0.212,0.31
				c-0.138-0.25-0.002-0.441,0.118-0.599c0.254,0.174,0.083-0.419,0.355-0.439l0.028,0.061c-0.078-0.337,0.308-0.028,0.159-0.39
				l0.231,0.093c-0.232-0.347,0.319-0.016,0.273-0.263l-0.063-0.056c0.02-0.16,0.218-0.062,0.251-0.197l0.042,0.023
				c0.106-0.283,0.386-0.255,0.14-0.46c0.26,0.094-0.092,0.282,0.29,0.412c0.061-0.15,0.129-0.292,0.204-0.429l0.02,0.145
				c-0.759-0.303-1.419-0.755-2.129-1.111c-0.036-0.167-0.083-0.227-0.051-0.347c-0.115,0.017-0.352-0.101-0.498,0.011
				c0.032,0.007,0.013-0.175-0.026-0.211c-0.108-0.186-0.315,0.243-0.431,0.039c0.103-0.049,0.168-0.134,0.192-0.254
				c-0.25,0.167-0.433,0.048-0.639,0.05c0.047-0.039,0.102-0.051,0.132-0.147c-0.296,0.18-0.337-0.192-0.572-0.089l0.128-0.15
				c-0.205-0.313-0.214,0.334-0.408,0.122c0.077-0.035,0.08-0.11,0.115-0.177c-0.333,0.229-0.664,0.021-0.922,0.058
				c0.021-0.02,0.032-0.07,0.032-0.07c-0.255-0.041-0.492-0.201-0.8-0.132c-0.08-0.106,0.143-0.429-0.141-0.432
				c-0.076,0.361-0.489,0.051-0.423,0.494c-0.21-0.105-0.541-0.325-0.716-0.22c0.128-0.121-0.033-0.465,0.166-0.463l-0.107-0.247
				c0.048-0.145,0.143,0.076,0.13-0.12c-0.102-0.001-0.413,0.096-0.491,0.021c-0.218,0.191-0.441,0.593-0.731,0.606
				c0.153-0.127-0.028-0.415,0.072-0.467l-0.48,0.658c-0.095,0.007,0.008-0.294-0.139-0.209c-0.002,0.099-0.067,0.155-0.115,0.231
				c-0.033-0.046-0.396,0.062-0.415-0.305c-0.034-0.146,0.161-0.064,0.063-0.203c-0.179-0.008-0.193,0.111-0.371,0.113l-0.001-0.049
				c-0.116-0.058-0.35,0.145-0.23,0.351c0.08,0.014-0.023-0.22,0.093-0.111c-0.09,0.209-0.292,0.263-0.465,0.262
				c0.06-0.057,0.054-0.155,0.08-0.258c-0.24,0.274-0.483,0.381-0.737,0.502c0,0.174,0.089-0.318,0.129-0.227
				c-0.349-0.242-0.659,0.365-0.949,0.031c0.042-0.033,0.045,0.245,0.038,0.196c-0.155-0.012-0.174-0.263-0.266-0.165
				c-0.024-0.148-0.13,0.062-0.236,0.118c-0.046,0.112-0.037-0.069,0.058-0.095c-0.071,0.071-0.256,0.18-0.471,0.249
				c-0.054,0.017-0.109,0.032-0.166,0.044c-0.008,0.004-0.093,0.021-0.136,0.024c-0.105,0.01-0.208,0-0.301-0.039
				c0.021,0.096-0.147,0.387-0.224,0.388l-0.01-0.23c-0.095-0.126-0.254,0.065-0.304-0.122c-0.117,0.298,0.598-0.346,0.411-0.095
				c-0.093-0.178-0.249,0.409-0.256,0.094c-0.155,0.041-0.252,0.324-0.442,0.145c0.05,0.027,0.062-0.337-0.062-0.294
				c-0.215,0.087-0.041,0.12-0.204,0.232L13.305,8.13c0.044,0.219-0.201,0.021-0.062,0.242c-0.071-0.171-0.284,0.191-0.355-0.172
				l-0.042-0.29c-0.091,0.046-0.078,0.337-0.118,0.479c-0.019-0.022-0.059-0.072-0.067-0.119c0.104,0.431-0.235,0.023-0.247,0.391
				c-0.237-0.088-0.491,0.137-0.67-0.097c-0.105,0.181-0.183,0.38-0.382,0.35c0.019-0.051,0.06-0.08,0.037-0.173
				c-0.15-0.085-0.137,0.035-0.207,0.137c-0.001-0.071-0.303-0.169-0.479-0.262c-0.097,0.184,0.045,0.385,0.085,0.527
				c-0.3-0.348-0.292,0.421-0.61,0.134c0.022-0.079,0.12-0.292-0.044-0.34C9.832,8.6,10.014,9.357,9.719,9.263l0.208,0.305
				c-0.19-0.16-0.208,0.332-0.352-0.011C9.566,9.709,9.281,9.575,9.466,9.879c-0.477-0.098-0.696,0.587-1.219,0.159
				c-0.016,0.079-0.165,0.096-0.045,0.237c0.181,0.124,0.034-0.184,0.133-0.086c-0.036,0.034,0.006,0.122,0.027,0.167
				c-0.142-0.012-0.235,0.017-0.296-0.293c-0.341-0.043,0.097,0.658-0.25,0.719c-0.07-0.131-0.121-0.163-0.189-0.091L7.619,11
				c-0.203,0.075-0.29-0.203-0.438-0.404c-0.069,0.103-0.191,0.177-0.123,0.357l-0.3-0.169c0.219,0.12,0.013,0.176,0.006,0.256
				l0.007-0.08c-0.083-0.074-0.147,0.063-0.181,0.13c0.109,0.112,0.25,0.074,0.337,0.068c0.018,0.12-0.066,0.159-0.047,0.307
				c-0.13-0.209-0.251-0.021-0.338,0.015c-0.114,0.024,0.047,0.242,0.019,0.255c-0.083-0.096-0.145,0.088-0.196-0.099
				c0.002-0.054,0.141,0.045,0.116-0.078c-0.113-0.031-0.248-0.205-0.257,0.008c-0.004,0.162,0.331,0.35,0.081,0.365
				c0-0.081-0.057-0.161-0.082-0.256l-0.226,0.03l0.14,0.174c-0.056-0.026-0.056-0.052-0.084-0.067
				c0.112,0.214-0.169,0.246-0.024,0.47c-0.055,0.079-0.254,0.017-0.334,0.064l-0.001-0.027c-0.169-0.017-0.217,0.15-0.177,0.321
				l-0.031-0.038c-0.055,0.03-0.133,0.155-0.093,0.298c-0.225-0.009-0.641-0.546-0.555-0.226c-0.103,0.123,0.133,0.458,0.28,0.509
				c-0.305,0.1-0.228,0.573-0.653,0.55c0.044,0.087,0.104,0.104,0.094,0.199c-0.049,0.039-0.092,0.085-0.13,0.135
				c-0.127-0.66-0.255-1.331-0.384-2.001c0.315,0.145,0.709,0.13,0.784,0.588c-0.143,0.031-0.103,0.197-0.155,0.313
				c0.172-0.135,0.017,0.243,0.193-0.051c0.076-0.187,0.125-0.271,0.061-0.396c0.255,0.01,0.588,0.127,0.638,0.356
				c-0.026-0.111,0.044-0.148,0.114-0.186c-0.136,0.292,0.012,0.404,0.175,0.348l0.085-0.176l0.01,0.222
				c0.069-0.038,0.189-0.365,0.252-0.151c-0.018,0.074-0.036,0.149-0.031,0.209c0.186-0.111,0.448-0.314,0.539-0.112l0.035,0.31
				c0.071-0.011,0.219-0.144,0.135-0.257c0.191,0.247,0.351,0.299,0.372,0.556c0.58-0.48,1.177-0.376,1.685-0.275L8.904,13.51
				c0.118,0.156,0.105-0.243,0.186-0.128c-0.062,0.132,0.066,0.317-0.064,0.47c0.182,0.182,0.286-0.21,0.422-0.269
				c0.04-0.19-0.117,0.114-0.066-0.127C9.411,13.39,9.642,13.627,9.7,13.34c0.039,0.118-0.019,0.328-0.058,0.443l0.135-0.131
				c0.124,0.351-0.402,0.577-0.283,1.007l0.123-0.036c0.088,0.313-0.35,0.317-0.057,0.445c0.146-0.132,0.289-0.544,0.187-0.682
				c0.271-0.059,0.177-0.681,0.451-0.635c0.064,0.177-0.223,0.023-0.188,0.266c0.116,0.245,0.272-0.109,0.383-0.018
				c-0.123-0.12,0.003-0.404,0.087-0.451c0.134,0.141-0.106,0.273,0.094,0.308c0.041-0.167,0.228-0.289,0.076-0.41
				c0.086-0.379,0.201,0.109,0.318-0.183c0.058,0.269-0.224,0.615-0.007,0.753c-0.027-0.259,0.279-0.345,0.171-0.73
				c0.083,0.076,0.089,0.279,0.024,0.436c0.122,0.162,0.301-0.464,0.338,0.049l0.042-0.263c0.038,0.086,0.093,0.155,0.157,0.295
				c0.111,0.001,0.346-0.368,0.344,0.03c0.035-0.042,0.285-0.032,0.181-0.304c-0.157-0.163-0.173,0.207-0.266-0.163
				c0.114,0.3,0.221-0.047,0.304-0.151l0.019,0.154c0.051-0.062,0.173-0.032,0.199-0.199c-0.037,0.089-0.012,0.194,0.031,0.23
				l0.046-0.236c0.207-0.123,0.069,0.41,0.274,0.336l-0.151,0.186c0.033-0.04,0.116,0.179,0.214,0.1
				c0.036-0.215,0.081-0.479,0.11-0.647c0.111-0.102,0.068,0.237,0.17,0.009l-0.136,0.269c-0.019,0.072,0.125,0.345,0.285,0.327
				c0.098-0.082,0.231-0.401,0.063-0.506c0.078-0.01,0.2,0.112,0.149,0.273c0.174-0.088-0.042-0.228,0.102-0.372
				c0.074,0.137,0.289,0.325,0.43,0.522L13.93,14.03l0.11-0.005c-0.117,0.297,0.093,0.212,0.04,0.52
				c0.081,0.042,0.164-0.071,0.23-0.158c-0.269-0.457,0.18-0.687,0.069-1.119c0.281-0.154,0.307,1.046,0.54,0.323
				c-0.065-0.109,0.041-0.459-0.131-0.31c0.19,0.026,0.071-0.454,0.31-0.298c-0.138,0.199,0.231,0.424,0.03,0.712
				c-0.003-0.147-0.145-0.095-0.176-0.051c0.098,0.16,0.038,0.444,0.231,0.422c0.113-0.054,0.273-0.083,0.219-0.31
				c-0.038-0.248-0.175,0.049-0.133-0.213c0.219-0.118,0.312,0.255,0.345-0.204c-0.141,0.058-0.213-0.195-0.234-0.368l0.153-0.13
				l-0.009,0.171c0.287,0.079,0.037-0.314,0.303-0.308l0.172,0.31c-0.02,0.292-0.4-0.069-0.286,0.385
				c0.175-0.007,0.197-0.25,0.376-0.155c-0.03,0.045-0.077,0.064-0.107,0.11c0.063,0.006,0.219,0.607,0.41,0.213
				c0.105-0.158,0.007-0.169-0.017-0.341c0.267-0.091,0.32-0.288,0.491-0.345c0.021,0.341,0.319-0.023,0.183,0.354
				c-0.125-0.182-0.518-0.086-0.565,0.245c0.165,0.383-0.226-0.024-0.223,0.389c0.225-0.024,0.277,0.369,0.355,0.62
				c0.066,0.009,0.11-0.109,0.141-0.155c-0.013-0.246-0.095-0.229-0.14-0.477c0.261,0.023,0.48-0.157,0.575-0.415
				c0.104,0.104,0.121,0.349,0.026,0.39c0.285-0.126,0.609-0.144,0.906-0.13c-0.259-0.355,0.296-0.156,0.107-0.456
				c-0.168-0.058-0.35-0.31-0.302-0.502c0.098,0.006,0.03,0.172,0.086,0.248c0.077-0.238,0.253,0.305,0.303-0.056
				c-0.244,0.181,0.043,0.488,0.054,0.804c0.162-0.212,0.035,0.22,0.23,0.18c0.162-0.21,0.374-0.393,0.577-0.503
				c0.335,0.229,0.691-0.149,0.931-0.215c0.162,0.126,0.155,0.49,0.307,0.519c0.161-0.043-0.206-0.345,0.071-0.241l-0.007,0.074
				c0.054-0.095,0.496,0.129,0.45-0.382l0.015,0.39c0.053,0.023,0.074-0.072,0.102-0.121c0.031,0.121,0.11,0.219,0.056,0.316
				c0.211,0.221,0.303-0.116,0.462-0.165l-0.158-0.195c0.233-0.238,0.472-0.064,0.721-0.209l0.046,0.217l0.127-0.169
				c0.013,0.218,0.193,0.316,0.233,0.121l-0.282,0.63c-0.147-0.098,0.061-0.291-0.065-0.485c-0.108-0.171-0.341-0.049-0.329,0.167
				c0.101,0.001,0.093-0.048,0.148-0.144c0.106,0.291-0.04,0.317-0.062,0.533c0.047-0.024,0.141,0.049,0.128-0.048
				c-0.061,0.171-0.155,0.216-0.317,0.263c0.082-0.144-0.106-0.171-0.085-0.267c0.052,0.267-0.085,0.386-0.306,0.36
				c-0.218-0.271-0.334,0.288-0.59,0.259c0.034-0.29,0.105-0.535,0.221-0.677c-0.178-0.099-0.161,0.047-0.34-0.053
				c-0.025,0.216-0.005,0.533-0.17,0.699l-0.056-0.196c-0.151,0.14-0.086,0.433-0.321,0.428c-0.403-0.009-0.798,0.075-1.097,0.107
				l-0.052-0.196c-0.076,0.458-0.511,0.267-0.694,0.501c-0.412-0.123-0.786,0.337-1.039,0.028c-0.638,0.267-1.207,0.508-1.917,0.522
				l0.081-0.306c-0.098,0.23-0.103-0.159-0.219-0.102c0.169,0.217-0.133,0.323-0.2,0.512c-0.339-0.192-0.71,0.106-0.976,0.328
				l-0.028-0.202c-0.253,0.401-0.621,0.094-0.975,0.058c-0.045-0.083-0.119-0.271-0.222-0.245c-0.177,0.334-0.279,0.313-0.558,0.527
				c-0.209,0.004-0.547-0.059-0.759-0.198c-0.792,0.46-1.592,0.115-2.445,0.312L8.971,16.23c-0.429,0.194-0.887,0.142-1.318,0.053
				c-0.431-0.115-0.834-0.256-1.21-0.207l0.167-0.38c-0.178-0.164-0.502-0.037-0.531,0.262c-0.176-0.185-0.594,0.023-0.625-0.337
				c-0.19-0.142-0.328,0.104-0.525,0.079c-0.375-0.318-0.541-0.348-0.975-0.444l0.09,0.064c0.08-0.064,0.153-0.221,0.065-0.285
				c-0.2,0.054-0.483-0.356-0.552,0.158c-0.213-0.34-0.685-0.344-1.019-0.537l-1.737-1.004l1.271-1.427
				c0.094-0.105,0.209-0.186,0.365-0.214c-0.127-0.055-0.074-0.158-0.113-0.253c0.252-0.328,0.749-0.447,0.801-0.842
				c0.091-0.001,0.095,0.231,0.216,0.121c0.03-0.106-0.125-0.123-0.093-0.26c0.293-0.648,1.134-0.737,1.54-1.153
				c0.646-0.874,1.641-1.396,2.487-1.93l0.039,0.09c0.107-0.505,0.869-0.04,0.843-0.665c0.112,0.043,0.291-0.099,0.322,0.097
				C8.61,6.868,9.249,7.113,9.471,6.667C9.435,6.672,9.424,6.698,9.403,6.752c0.441,0.052,0.645-0.36,1.102-0.311
				c-0.025,0.054-0.085,0.107-0.062,0.203c0.209,0.124,0.212-0.515,0.448-0.099c0.083-0.034-0.016-0.245-0.064-0.214
				c0.899-0.109,1.725-0.658,2.637-0.939c0.711,0.156,0.181,0.77,0.636,0.337c0.057,0.083,0.002-0.182,0.024-0.087
				c0.182-0.163,0.387,0.47,0.488,0.205c-0.035-0.14-0.06-0.179,0.026-0.217c0.026-0.029,0.06-0.046,0.053-0.133
				c0.396,0.145,0.5,0.395,0.771,0.144l-0.005,0.154c0.323-0.454,0.803-0.26,1.101-0.764c2.089-0.153,4.162-0.185,6.2,0.311
				c1.947,0.631,3.941,1.253,5.579,2.646c0.109,0.347,0.162,0.497,0.295,0.596l1.533,1.148l-1.206,1.242
				c-0.084,0.087-0.146,0.22-0.252,0.446c-0.033-0.06-0.022-0.096-0.092-0.108c0.227,0.239-0.236,0.314-0.043,0.567
				c-0.61,0.536-1.094,1.111-1.759,1.606c0.084-0.107-0.029-0.357-0.137-0.248l-0.003,0.263l-0.076-0.058
				c-0.055,0.102-0.054,0.303,0.097,0.322c-0.77,0.727-1.725,1.193-2.699,1.501c-0.978,0.312-1.955,0.519-2.905,0.8
				c-0.489-0.02-1.109,0.249-1.612,0.383c-1.584-0.211-2.859-0.54-4.391-0.418C15.085,16.033,15.396,15.213,15.983,15.074z"/>
			<path fill="#FFFFFF" d="M22.884,13.991c-0.086-0.148-0.26-0.197-0.192-0.439C22.744,13.697,22.864,13.844,22.884,13.991z"/>
			<path fill="#FFFFFF" d="M18.445,13.283c0.004,0.049-0.071-0.053-0.089-0.077c0.047-0.023,0.066-0.167,0.123-0.092
				C18.431,13.136,18.455,13.211,18.445,13.283z"/>
			<path fill="#FFFFFF" d="M17.398,13.385c-0.01-0.146,0.188-0.299,0.313-0.34L17.398,13.385z"/>
			<path fill="#FFFFFF" d="M16.344,12.957c-0.101-0.109-0.089-0.179,0.021-0.192C16.385,12.84,16.356,12.884,16.344,12.957z"/>
			<path fill="#FFFFFF" d="M16.329,13.295c-0.078,0.016-0.131-0.063-0.182-0.141C16.169,13.278,16.317,13.05,16.329,13.295z"/>
			<path fill="#FFFFFF" d="M14.223,13.146c-0.047,0.017-0.142,0.151-0.203-0.007C14.082,13.247,14.239,12.928,14.223,13.146z"/>
			<path fill="#FFFFFF" d="M13.296,13.444c-0.031-0.007-0.046-0.033-0.078,0.01c-0.061-0.062-0.008-0.173,0.038-0.19L13.296,13.444z
				"/>
			<polygon fill="#FFFFFF" points="10.033,9.402 9.971,9.511 9.923,9.374 			"/>
			<path fill="#FFFFFF" d="M17.342,7.803c0.103-0.089,0.069,0.139,0.086,0.161C17.337,7.977,17.465,7.786,17.342,7.803z"/>
			<polygon fill="#FFFFFF" points="21.552,7.59 21.52,7.586 21.6,7.298 			"/>
		</g>
	</g>
</g>
</svg>
