<?xml version="1.0" encoding="utf-8"?>
<!-- Generator: Adobe Illustrator 18.0.0, SVG Export Plug-In . SVG Version: 6.00 Build 0)  -->
<!DOCTYPE svg PUBLIC "-//W3C//DTD SVG 1.1//EN" "http://www.w3.org/Graphics/SVG/1.1/DTD/svg11.dtd">
<svg version="1.1" id="Layer_2" xmlns="http://www.w3.org/2000/svg" xmlns:xlink="http://www.w3.org/1999/xlink" x="0px" y="0px"
	 viewBox="0 0 30 30" enable-background="new 0 0 30 30" xml:space="preserve">
<g>
	<g>
		<g>
			<path fill="#FFFFFF" d="M12.607,24.809c0.224-0.031-0.074-0.271,0.158-0.089C12.717,24.832,12.661,24.913,12.607,24.809z"/>
			<path fill="#FFFFFF" d="M13.774,23.933c0.274-0.994,1.443-0.736,1.887-1.528c0.064-0.071,0.178,0.379,0.308,0.194
				c0.369-0.873,1.549-1.127,2.563-1.188l0.012,0.13c0.192-0.013,0.177-0.457,0.362-0.502c0.041,0.067,0.006,0.125,0.097,0.197
				c-0.08-0.227,0.229-0.262,0.206-0.453c0.109,0.042,0.198,0.207,0.332,0.249l-0.048-0.284c-0.08-0.697,0.628-0.325,0.794-0.814
				c0.016,0.063,0.009,0.125,0.067,0.161c0.337-0.662,1.053-1.017,1.544-1.538c0.032,0.093,0.109,0.25,0.205,0.314
				c-0.133-0.252,0.002-0.435,0.118-0.591c0.244,0.18,0.093-0.403,0.356-0.413l0.026,0.062c-0.071-0.333,0.296-0.02,0.155-0.379
				l0.227,0.104c-0.227-0.349,0.316,0.001,0.267-0.246L23.19,17.35c0.018-0.155,0.209-0.056,0.238-0.189l0.042,0.024
				c0.104-0.267,0.374-0.24,0.126-0.439c0.259,0.093-0.08,0.271,0.299,0.403c0.359-0.903,0.808-1.642,0.991-2.522
				c0.147-0.072,0.193-0.133,0.317-0.136c-0.043-0.101-0.016-0.356-0.172-0.446c0.005,0.031,0.167-0.048,0.183-0.097
				c0.125-0.17-0.344-0.181-0.211-0.356c0.088,0.065,0.193,0.088,0.311,0.058c-0.254-0.149-0.235-0.349-0.348-0.511
				c0.059,0.017,0.099,0.054,0.197,0.031c-0.314-0.14-0.02-0.375-0.247-0.493l0.195,0.006c0.119-0.356-0.391,0.05-0.348-0.211
				c0.073,0.026,0.132-0.021,0.205-0.043c-0.386-0.072-0.459-0.423-0.688-0.519c0.028-0.006,0.066-0.039,0.066-0.039
				c-0.169-0.155-0.269-0.412-0.563-0.462c-0.022-0.121,0.317-0.334,0.057-0.44c-0.208,0.298-0.45-0.116-0.55,0.319
				c-0.131-0.156-0.372-0.434-0.553-0.365c0.144-0.093,0.072-0.46,0.258-0.418l-0.05-0.265c0.078-0.132,0.124,0.107,0.153-0.088
				c-0.102-0.03-0.427,0.009-0.492-0.074c-0.25,0.163-0.505,0.529-0.768,0.527c0.153-0.118,0.005-0.415,0.104-0.461
				c-0.018-0.008-0.491,0.639-0.469,0.644c-0.082,0.007,0.009-0.294-0.132-0.211c-0.002,0.099-0.067,0.154-0.115,0.23
				c-0.011-0.049-0.338,0.087-0.373-0.28c-0.041-0.143,0.146-0.074,0.047-0.206c-0.169,0.006-0.173,0.117-0.337,0.141l-0.006-0.048
				c-0.116-0.044-0.305,0.182-0.17,0.374c0.073,0.005-0.047-0.216,0.07-0.12c-0.057,0.223-0.225,0.281-0.372,0.319
				c0.042-0.068,0.022-0.163,0.028-0.27c-0.166,0.331-0.355,0.435-0.534,0.623c0.04,0.169-0.001-0.329,0.056-0.25
				c-0.361-0.157-0.465,0.493-0.81,0.257c0.026-0.042,0.114,0.221,0.093,0.177c-0.136,0.027-0.232-0.202-0.277-0.077
				c-0.07-0.13-0.086,0.095-0.149,0.176c0.005,0.116-0.055-0.054,0.013-0.104c-0.075,0.168-0.399,0.603-0.756,0.607
				c0.059,0.078,0.064,0.395,0.006,0.423l-0.118-0.196c-0.139-0.076-0.162,0.161-0.297,0.016c0.05,0.303,0.306-0.543,0.28-0.247
				c-0.161-0.121-0.003,0.452-0.159,0.183c-0.103,0.1-0.033,0.378-0.276,0.303c0.053,0.004-0.124-0.311-0.202-0.223
				c-0.123,0.17,0.031,0.12-0.032,0.29l-0.005,0.138c0.155,0.161-0.145,0.103,0.086,0.224c-0.156-0.112-0.103,0.277-0.365,0.021
				l-0.201-0.213c-0.042,0.084,0.14,0.311,0.197,0.442c-0.027-0.008-0.087-0.028-0.121-0.061c0.339,0.287-0.162,0.132,0.064,0.421
				c-0.227,0.05-0.255,0.342-0.527,0.276c0.053,0.189,0.122,0.356-0.017,0.451c-0.026-0.045-0.021-0.088-0.103-0.139
				c-0.156,0.029-0.062,0.105-0.031,0.213c-0.049-0.046-0.323,0.065-0.508,0.118c0.079,0.181,0.321,0.215,0.454,0.279
				c-0.455-0.024,0.148,0.42-0.257,0.454c-0.049-0.056-0.166-0.245-0.297-0.162c-0.404,0.018,0.112,0.264,0.058,0.41l-0.836,2.246
				l-0.809-2.009c-0.008-0.019-0.007-0.042,0.003-0.073l-0.302,0.207c0.158-0.179-0.314-0.135,0.018-0.302
				c-0.146,0.013-0.017-0.256-0.306-0.048c0.081-0.439-0.568-0.464-0.238-1.038c-0.077,0.008-0.117-0.118-0.229,0.029
				c-0.087,0.193,0.177-0.024,0.101,0.091c-0.037-0.022-0.113,0.04-0.151,0.072c-0.01-0.124-0.051-0.201,0.225-0.344
				c-0.02-0.327-0.582,0.279-0.693,0.004c0.103-0.107,0.121-0.163,0.042-0.197l-0.273,0.109c-0.107-0.147,0.11-0.333,0.251-0.538
				c-0.107-0.027-0.209-0.102-0.346,0.031l0.057-0.333c-0.037,0.241-0.149,0.085-0.222,0.117l0.072-0.03
				c0.036-0.101-0.102-0.103-0.168-0.104c-0.058,0.144,0.014,0.255,0.046,0.324c-0.098,0.071-0.153,0.012-0.269,0.095
				c0.134-0.208-0.06-0.225-0.119-0.28c-0.058-0.087-0.179,0.156-0.198,0.141c0.049-0.117-0.121-0.072,0.01-0.211
				c0.044-0.026,0.015,0.138,0.105,0.056c-0.014-0.109,0.077-0.309-0.101-0.208c-0.13,0.078-0.157,0.455-0.256,0.251
				c0.062-0.043,0.104-0.129,0.169-0.198l-0.111-0.176l-0.081,0.208c-0.002-0.061,0.019-0.074,0.019-0.105
				c-0.124,0.203-0.255-0.009-0.348,0.242c-0.068,0.006-0.085-0.189-0.188-0.234l0.022-0.015c-0.043-0.076-0.106-0.101-0.174-0.091
				c-0.017,0.009-0.106,0.01-0.067,0.048c-0.028,0.023-0.056,0.053-0.081,0.088l0.012-0.048c-0.047-0.023-0.17-0.01-0.245,0.115
				c-0.105-0.177,0.04-0.84-0.136-0.575c-0.144-0.005-0.232,0.4-0.185,0.542c-0.232-0.164-0.466,0.216-0.706-0.109
				c-0.023,0.092,0.004,0.145-0.056,0.208c-0.355-0.044-0.608,0.377-0.99,0.05c0.066-0.119-0.063-0.213-0.107-0.333
				c-0.017,0.213-0.17-0.161-0.083,0.172c0.077,0.187,0.103,0.278,0.218,0.325c-0.153,0.166-0.412,0.279-0.595,0.162
				c0.089,0.057,0.078,0.133,0.069,0.207c-0.128-0.294-0.29-0.268-0.332-0.113l0.083,0.178l-0.162-0.137
				c-0.006,0.077,0.173,0.374-0.016,0.269c-0.046-0.061-0.092-0.122-0.139-0.158c-0.016,0.203,0.027,0.503-0.14,0.425l-0.252-0.168
				c-0.031,0.068-0.004,0.273,0.14,0.256c-0.14,0.009-0.316,0.095-0.338,0.041c-0.089,0.004-0.171-0.008-0.284-0.07
				c0.165,0.678-0.031,1.023-0.154,1.224l-0.131-0.067c-0.17,0.064,0.19,0.213,0.104,0.169c-0.125-0.073-0.305-0.034-0.448-0.156
				C4.892,15.869,5.26,16.015,5.319,16.1c0.186,0.053-0.11-0.088,0.125-0.018c0.067,0.023-0.175,0.127,0.107,0.185
				c-0.116,0.011-0.328-0.038-0.44-0.073l0.133,0.095c-0.357,0.078-0.57-0.323-0.997-0.279l0.028,0.107
				c-0.321,0.068-0.291-0.34-0.443-0.074c0.13,0.152,0.543,0.271,0.68,0.192c0.061,0.217,0.677,0.14,0.654,0.32
				c-0.17,0.052-0.042-0.147-0.281-0.12c-0.229,0.095,0.126,0.189,0.055,0.273c0.099-0.099,0.402-0.034,0.46,0.009
				c-0.129,0.103-0.28-0.039-0.298,0.1c0.167,0.007,0.307,0.103,0.411-0.011c0.381-0.012-0.08,0.144,0.218,0.158
				c-0.254,0.102-0.631-0.024-0.736,0.159c0.244-0.072,0.39,0.114,0.741-0.055c-0.059,0.069-0.253,0.13-0.418,0.124
				c-0.134,0.134,0.506,0.07,0.029,0.251l0.26-0.053c-0.068,0.058-0.128,0.109-0.241,0.206c0.03,0.085,0.43,0.112,0.061,0.263
				c0.05,0.01,0.119,0.196,0.335,0.009c0.104-0.174-0.245-0.043,0.076-0.247c-0.253,0.193,0.107,0.135,0.221,0.145l-0.135,0.077
				c0.069,0.009,0.081,0.105,0.241,0.049c-0.092,0.015-0.178,0.077-0.196,0.122l0.226-0.074c0.179,0.081-0.348,0.234-0.202,0.342
				l-0.222-0.02c0.046,0.005-0.115,0.166-0.007,0.201c0.2-0.078,0.446-0.173,0.603-0.234c0.124,0.025-0.182,0.165,0.052,0.12
				L6.14,18.39c-0.071,0.021-0.255,0.26-0.172,0.369c0.11,0.032,0.432-0.046,0.456-0.217c0.037,0.049-0.013,0.196-0.171,0.248
				c0.148,0.074,0.175-0.15,0.356-0.131c-0.084,0.131-0.154,0.367-0.254,0.572l-0.359,0.126l0.054,0.072
				c-0.297,0.089-0.129,0.188-0.406,0.328c0.01,0.085,0.133,0.08,0.244,0.083c0.217-0.486,0.66-0.253,0.949-0.593
				c0.232,0.076-0.677,0.847,0.009,0.566c0.051-0.113,0.379-0.256,0.175-0.284c0.079,0.149,0.386-0.23,0.393,0.026
				c-0.229,0.033-0.2,0.427-0.536,0.472c0.112-0.094-0.006-0.161-0.056-0.156c-0.072,0.169-0.329,0.305-0.202,0.428
				c0.109,0.045,0.222,0.141,0.364-0.042c0.171-0.187-0.135-0.091,0.09-0.23c0.209,0.077-0.026,0.388,0.341,0.11
				c-0.122-0.058,0.035-0.275,0.154-0.399l0.176,0.019l-0.134,0.106c0.095,0.243,0.255-0.182,0.391-0.004l-0.136,0.323
				C7.64,20.363,7.7,19.867,7.423,20.244c0.104,0.114,0.293-0.031,0.324,0.152c-0.051,0.012-0.091-0.009-0.141,0.002
				c0.028,0.047-0.32,0.559,0.084,0.419c0.177-0.039,0.126-0.111,0.237-0.246c0.221,0.113,0.391,0.006,0.528,0.076
				c-0.225,0.257,0.202,0.19-0.138,0.371c0.051-0.213-0.243-0.394-0.509-0.199c-0.177,0.374-0.118-0.167-0.418,0.116
				c0.155,0.136-0.099,0.441-0.232,0.667c0.036,0.053,0.15,0.002,0.202-0.007c0.169-0.179,0.105-0.224,0.256-0.426
				c0.145,0.193,0.409,0.216,0.646,0.09c-0.006,0.141-0.163,0.33-0.254,0.298c0.271,0.096,0.496,0.285,0.687,0.483
				c0.06-0.43,0.297,0.069,0.365-0.278c-0.075-0.146-0.023-0.451,0.13-0.566c0.057,0.064-0.092,0.149-0.106,0.24
				c0.198-0.132-0.031,0.386,0.23,0.138c-0.274-0.003-0.282,0.4-0.474,0.651c0.248-0.064-0.117,0.19,0.046,0.28
				c0.246-0.058,0.511-0.081,0.721-0.052c0.104,0.379,0.587,0.275,0.799,0.341c0.053,0.191-0.15,0.491-0.047,0.598
				c0.149,0.05,0.025-0.397,0.185-0.166L10.5,23.282c0.091-0.056,0.327,0.37,0.548-0.094l-0.186,0.342
				c0.03,0.049,0.097-0.025,0.143-0.053c-0.036,0.12-0.021,0.243-0.114,0.3c0.063,0.294,0.31,0.05,0.463,0.083l-0.036-0.247
				c0.302-0.102,0.42,0.162,0.688,0.14l-0.054,0.215l0.177-0.099c-0.08,0.203,0.038,0.369,0.15,0.209c0,0-0.125,0.113-0.251,0.225
				c-0.132,0.111-0.265,0.222-0.265,0.222c-0.087-0.152,0.185-0.235,0.158-0.464c-0.019-0.196-0.264-0.198-0.356,0
				c0.086,0.047,0.102,0.001,0.191-0.059c-0.041,0.308-0.178,0.261-0.3,0.443c0.052,0,0.101,0.109,0.135,0.017
				c-0.133,0.121-0.239,0.119-0.405,0.085c0.142-0.089-0.01-0.2,0.056-0.274c-0.084,0.26-0.264,0.293-0.443,0.16
				c-0.048-0.338-0.435,0.071-0.642-0.093c0.188-0.226,0.376-0.394,0.545-0.454c-0.094-0.178-0.157-0.046-0.248-0.225
				c-0.136,0.17-0.293,0.451-0.523,0.492l0.063-0.193c-0.202,0.03-0.318,0.312-0.51,0.169c-0.326-0.248-0.688-0.426-0.943-0.589
				l0.085-0.184c-0.351,0.302-0.564-0.125-0.852-0.082c-0.224-0.361-0.817-0.3-0.773-0.704C6.366,22.3,5.795,22.02,5.338,21.463
				l0.293-0.127c-0.243,0.068,0.06-0.176-0.055-0.232c-0.069,0.268-0.335,0.092-0.529,0.152c-0.03-0.193-0.166-0.341-0.31-0.414
				c-0.156-0.092-0.373-0.177-0.546-0.232l0.154-0.133c-0.484-0.011-0.431-0.506-0.561-0.855c0.051-0.081,0.178-0.23,0.109-0.315
				c-0.382-0.018-0.416-0.12-0.731-0.316c-0.098-0.206-0.16-0.591-0.105-0.851c-0.709-0.714-0.544-1.766-0.556-2.823l0.251-0.012
				c-0.023-0.144-0.044-0.253-0.022-0.433c-0.011-0.077,0.029-0.247,0.076-0.385c0.086-0.263,0.225-0.504,0.379-0.719
				c0.312-0.431,0.672-0.748,0.865-1.112L4.279,13c0.308-0.12,0.288-0.397,0.078-0.601c0.231-0.037,0.408-0.573,0.709-0.364
				c0.242-0.076,0.151-0.321,0.305-0.478c0.516-0.112,0.656-0.217,1.067-0.465l-0.119,0.019c-0.015,0.102,0.049,0.263,0.164,0.246
				c0.117-0.174,0.626-0.106,0.311-0.513c0.546,0.108,1.114-0.53,1.665-0.202c-0.055-0.128,0.067-0.165,0.113-0.259
				c0.464-0.046,0.926,0.231,1.301,0.041c0.065,0.073-0.133,0.216,0.047,0.245c0.112-0.041,0.019-0.173,0.162-0.234
				c0.207-0.033,0.352-0.033,0.6,0.029c0.141,0.043,0.25,0.099,0.463,0.204c0.39,0.192,0.635,0.408,0.96,0.508
				c1.189,0.229,2.148,1.102,2.903,1.931l-0.083,0.054c0.545,0.065,0.234,0.91,0.853,0.864c-0.028,0.125,0.141,0.323-0.058,0.358
				c0.121,0.044,0.185,0.153,0.23,0.286c-0.984,0.142-1.969,0.284-3.023,0.436c0.114-0.272,0.325-0.562,0.207-0.903
				c-0.021,0.035-0.01,0.063,0.016,0.119c0.334-0.346,0.195-0.81,0.574-1.141c0.018,0.06,0.011,0.149,0.094,0.202
				c0.231-0.07-0.186-0.557,0.277-0.413c0.044-0.086-0.171-0.177-0.19-0.117c0.627-0.754,1.043-1.724,1.78-2.479
				c0.745-0.238,0.517,0.591,0.754-0.024c0.089,0.048-0.077-0.166-0.015-0.09c0.105-0.239,0.562,0.244,0.553-0.033
				c-0.205-0.214-0.001-0.188-0.088-0.341c0.471-0.069,0.659,0.141,0.864-0.204l0.042,0.149c0.179-0.561,0.696-0.518,0.892-1.082
				c1.113-0.371,2.316-0.564,3.54-0.422c1.204,0.138,2.481,0.573,3.543,1.594c0.497,0.534,0.893,1.161,1.156,1.827
				c0.288,0.734,0.392,1.407,0.394,2.092c-0.008,1.351-0.432,2.586-1.208,3.581c-0.174,0.083-0.265,0.093-0.403,0.197
				c-0.084,0.026-0.144,0.055-0.19,0.095c-0.074,0.058-0.184,0.271-0.307,0.541c-0.033-0.06-0.022-0.097-0.093-0.107
				c0.23,0.238-0.244,0.325-0.055,0.575c-0.621,0.567-1.135,1.096-1.77,1.558c0.08-0.101-0.028-0.354-0.133-0.25l-0.002,0.257
				l-0.073-0.061c-0.052,0.097-0.049,0.293,0.095,0.32c-0.735,0.681-1.529,1.044-2.34,1.4c-0.813,0.352-1.635,0.665-2.368,1.129
				c-0.425,0.085-0.875,0.479-1.236,0.754c-1.376,0.255-2.585,0.49-3.647,1.363C13.595,25.192,13.374,24.355,13.774,23.933z"/>
			<path fill="#FFFFFF" d="M12.345,24.8c-0.02-0.169-0.155-0.283-0.001-0.479C12.334,24.476,12.384,24.658,12.345,24.8z"/>
			<path fill="#FFFFFF" d="M9.183,21.916c-0.028,0.04-0.014-0.083-0.011-0.112c0.046,0.011,0.149-0.09,0.139,0.002
				C9.265,21.794,9.234,21.866,9.183,21.916z"/>
			<path fill="#FFFFFF" d="M8.434,21.346c0.094-0.114,0.317-0.098,0.425-0.056L8.434,21.346z"/>
			<path fill="#FFFFFF" d="M8.105,20.364c0.021-0.141,0.079-0.181,0.149-0.119C8.212,20.31,8.164,20.321,8.105,20.364z"/>
			<path fill="#FFFFFF" d="M7.852,20.588c-0.057-0.041-0.031-0.129-0.004-0.215C7.771,20.472,8.023,20.411,7.852,20.588z"/>
			<path fill="#FFFFFF" d="M6.845,19.046c-0.049-0.036-0.198-0.026-0.088-0.15C6.679,18.985,7.027,18.931,6.845,19.046z"/>
			<path fill="#FFFFFF" d="M6.216,18.59c-0.006-0.026,0.011-0.049-0.039-0.05c0.03-0.074,0.146-0.093,0.177-0.071L6.216,18.59z"/>
			<polygon fill="#FFFFFF" points="15.623,15.464 15.674,15.56 15.535,15.521 			"/>
			<path fill="#FFFFFF" d="M20.047,11.286c0.07-0.107,0.081,0.124,0.098,0.142C20.072,11.458,20.144,11.246,20.047,11.286z"/>
			<polygon fill="#FFFFFF" points="23.626,11.328 23.6,11.314 23.785,11.079 			"/>
		</g>
	</g>
</g>
</svg>
