<?xml version="1.0" encoding="utf-8"?>
<!-- Generator: Adobe Illustrator 18.0.0, SVG Export Plug-In . SVG Version: 6.00 Build 0)  -->
<!DOCTYPE svg PUBLIC "-//W3C//DTD SVG 1.1//EN" "http://www.w3.org/Graphics/SVG/1.1/DTD/svg11.dtd">
<svg version="1.1" id="Layer_2" xmlns="http://www.w3.org/2000/svg" xmlns:xlink="http://www.w3.org/1999/xlink" x="0px" y="0px"
	 viewBox="0 0 40.253 32.25" enable-background="new 0 0 40.253 32.25" xml:space="preserve">
<g>
	<g>
		<g>
			<path fill="#FCFCFC" d="M8.313,22.567c0.087-0.054,0.135-0.105,0.161-0.139c0.003-0.018-0.003-0.03-0.01-0.04
				c-0.017-0.019-0.036-0.034-0.068-0.033c-0.041,0.008-0.074,0.015-0.053,0.002c0.037-0.024,0.066-0.032,0.134-0.047
				C8.506,22.428,8.654,22.47,8.313,22.567z"/>
			<path fill="#FCFCFC" d="M29.466,22.604c0.178-0.488,0.507-0.658,0.866-0.852c0.353-0.187,0.734-0.409,0.823-0.843
				c0.037-0.084,0.283,0.314,0.35,0.095c0.074-0.929,0.887-1.547,1.514-2.453l0.105,0.08c0.118-0.176-0.235-0.451-0.17-0.626
				c0.078,0.004,0.106,0.07,0.217,0.034c-0.226-0.066-0.093-0.357-0.269-0.436c0.093-0.075,0.277-0.071,0.377-0.177l-0.274-0.097
				c-0.653-0.225-0.039-0.729-0.484-1.042c0.066-0.001,0.125,0.022,0.173-0.026c-0.557-0.491-0.866-1.148-1.48-1.481
				c0.08-0.055,0.215-0.166,0.255-0.275c-0.21,0.184-0.416,0.119-0.585,0.064c0.086-0.287-0.384,0.066-0.477-0.151l0.044-0.05
				c-0.254,0.208-0.133-0.251-0.378,0.04l-0.006-0.248c-0.192,0.371-0.14-0.271-0.325-0.103l-0.017,0.082
				c-0.134,0.072-0.146-0.144-0.267-0.099l-0.002-0.048c-0.265,0.063-0.387-0.177-0.413,0.145c-0.066-0.266,0.257-0.092,0.16-0.479
				c-0.91,0.226-1.753,0.309-2.536,0.685c-0.143-0.071-0.219-0.076-0.295-0.172c-0.052,0.093-0.267,0.22-0.248,0.399
				c0.022-0.021-0.137-0.11-0.184-0.094c-0.204-0.004,0.052,0.384-0.167,0.373c0.003-0.11-0.038-0.209-0.128-0.29
				c0.026,0.295-0.154,0.383-0.231,0.563c-0.015-0.058-0.004-0.111-0.075-0.182c0.04,0.336-0.305,0.201-0.302,0.449l-0.087-0.175
				c-0.357,0.05,0.223,0.327-0.034,0.407c-0.005-0.08-0.072-0.115-0.121-0.172c0.098,0.387-0.201,0.586-0.235,0.831
				c-0.013-0.025-0.057-0.052-0.057-0.052c-0.099,0.215-0.326,0.369-0.326,0.669c-0.117,0.042-0.378-0.251-0.444,0.01
				c0.331,0.167-0.061,0.455,0.384,0.508c-0.145,0.157-0.405,0.414-0.337,0.591c-0.097-0.141-0.462-0.063-0.424-0.244l-0.261,0.051
				c-0.135-0.074,0.1-0.12-0.095-0.146c-0.015,0.072,0.005,0.263-0.018,0.379l0.55,0.197c0.008-0.04,0.022-0.072,0.044-0.087
				c-0.153-0.244-0.504-0.527-0.473-0.79c0.103,0.163,0.412,0.048,0.449,0.149c0,0-0.144-0.141-0.289-0.281
				c-0.149-0.133-0.297-0.266-0.297-0.266c0.002-0.086,0.289,0.052,0.224-0.092c-0.097-0.016-0.144-0.082-0.216-0.134
				c0.051-0.025-0.025-0.347,0.337-0.332c0.147-0.018,0.056,0.152,0.198,0.076c0.019-0.163-0.103-0.186-0.094-0.344l0.049,0.001
				c0.064-0.105-0.135-0.315-0.343-0.214c-0.016,0.068,0.221-0.015,0.108,0.082c-0.206-0.085-0.257-0.25-0.267-0.388
				c0.06,0.046,0.157,0.039,0.261,0.058c-0.144-0.099-0.245-0.189-0.326-0.278c-0.083-0.072-0.141-0.136-0.227-0.269
				c-0.172,0.026,0.328,0.039,0.244,0.092c0.185-0.36-0.44-0.393-0.198-0.706c0.041,0.018-0.218,0.118-0.174,0.096
				c-0.023-0.108,0.196-0.218,0.08-0.245c0.127-0.08-0.092-0.062-0.167-0.1c-0.109,0.026,0.05-0.058,0.099-0.007
				c-0.171-0.051-0.562-0.186-0.592-0.463c-0.061,0.073-0.304,0.224-0.323,0.202l0.131-0.189c0.033-0.138-0.133-0.052-0.058-0.228
				c-0.1,0.109,0.004,0.084,0.119,0.075c0.115-0.01,0.242-0.01,0.118,0.034c0.064-0.191-0.349,0.213-0.169-0.042
				c-0.103-0.046-0.256,0.176-0.218-0.043c-0.004,0.041,0.139-0.283,0.073-0.292c-0.193-0.006-0.135,0.078-0.225,0.136l-0.081,0.083
				c-0.03,0.217-0.108-0.039-0.085,0.211c-0.005-0.188-0.163,0.109-0.165-0.26l0.01-0.291c-0.074,0.025-0.095,0.314-0.123,0.445
				c-0.011-0.025-0.035-0.08-0.038-0.127c0.059,0.439-0.157-0.013-0.156,0.342c-0.165-0.121-0.327,0.092-0.502-0.132
				c-0.06,0.172-0.082,0.362-0.251,0.345c0.005-0.05,0.033-0.08-0.004-0.168c-0.143-0.073-0.109,0.042-0.146,0.148
				c-0.014-0.07-0.297-0.129-0.475-0.199c-0.041,0.185,0.135,0.357,0.206,0.485c-0.378-0.276-0.156,0.455-0.527,0.233
				c0.001-0.079,0.042-0.296-0.122-0.316c-0.371-0.27-0.019,0.419-0.312,0.383l0.267,0.253c-0.214-0.117-0.101,0.355-0.321,0.056
				c0.03,0.144-0.266,0.069-0.016,0.323c-0.461,0-0.475,0.679-1.073,0.388c0.008,0.077-0.123,0.125,0.027,0.232
				c0.201,0.078-0.022-0.18,0.097-0.109c-0.023,0.039,0.041,0.114,0.073,0.151c-0.133,0.019-0.208,0.067-0.355-0.212
				c-0.326,0.034,0.273,0.59-0.022,0.722c-0.103-0.107-0.16-0.125-0.2-0.043l0.088,0.289c-0.167,0.111-0.33-0.125-0.526-0.279
				c-0.036,0.109-0.124,0.207-0.006,0.358l-0.328-0.086c0.238,0.06,0.066,0.16,0.087,0.237l-0.019-0.076
				c-0.097-0.048-0.117,0.093-0.129,0.161c0.135,0.077,0.258,0.013,0.333-0.015c0.057,0.108-0.012,0.16,0.052,0.292
				c-0.185-0.162-0.241,0.037-0.307,0.092c-0.097,0.05,0.121,0.211,0.099,0.229c-0.108-0.069-0.103,0.116-0.211-0.043
				c-0.017-0.05,0.144,0.007,0.081-0.1c-0.113-0.001-0.296-0.129-0.232,0.071c0.049,0.149,0.419,0.241,0.19,0.312
				c-0.025-0.073-0.103-0.133-0.156-0.212l-0.202,0.081l0.185,0.124c-0.061-0.01-0.069-0.034-0.099-0.04
				c0.174,0.165-0.069,0.257,0.141,0.418c-0.021,0.08-0.232,0.097-0.297,0.161l-0.009-0.025c-0.174,0.042-0.147,0.174-0.048,0.312
				l-0.042-0.025c-0.038,0.035-0.049,0.144,0.058,0.23c-0.184,0.012-0.802-0.262-0.571-0.066c-0.022,0.11,0.373,0.199,0.515,0.208
				c-0.04,0.008-0.046,0.017-0.039,0.021c0.012,0.036,0.017-0.112,0.046,0.022c0.01-0.16-0.022-0.19-0.184-0.129
				c0.067-0.06,0.121-0.087,0.139-0.145c-0.08-0.018-0.142-0.197-0.479-0.24c-0.041-0.003-0.138-0.002-0.202,0.014
				c-0.078,0.019,0.023-0.004,0.023-0.004c-0.175,0.049-0.155,0.062-0.221,0.108c-0.085,0.081-0.094,0.184-0.023,0.268
				c0.091,0.039,0.161,0.152,0.264,0.229c-0.152-0.127,0.185,0.098-0.093-0.101c-0.166-0.113-0.26-0.151-0.304-0.227
				c-0.073,0.009-0.081-0.027-0.07-0.029c0.039-0.08,0.092-0.114,0.198-0.129c-0.101,0.011-0.151-0.034-0.202-0.072
				c0.313,0.094,0.373-0.013,0.279-0.107l-0.191-0.036l0.204-0.026c-0.06-0.04-0.408-0.065-0.215-0.122
				c0.076-0.001,0.154-0.003,0.211-0.016c-0.166-0.096-0.429-0.166-0.283-0.265l0.272-0.117c-0.034-0.038-0.22-0.065-0.285,0.016
				c0.134-0.181,0.126-0.295,0.335-0.429c-0.668-0.094-0.847-0.339-1.035-0.592l0.112-0.095c0.036-0.157-0.213,0.149-0.18,0.037
				c0.117-0.079,0.162-0.27,0.33-0.341c0.001-0.213-0.304,0.075-0.397,0.077c-0.128,0.143,0.124-0.055-0.04,0.126
				c-0.046,0.042-0.039-0.215-0.216,0.015c0.043-0.11,0.177-0.277,0.258-0.364l-0.139,0.074c0.089-0.352,0.531-0.367,0.683-0.773
				l-0.107-0.019c0.081-0.315,0.428-0.12,0.26-0.365c-0.188,0.039-0.465,0.38-0.462,0.525c-0.213-0.022-0.351,0.587-0.527,0.473
				c-0.001-0.094,0.055-0.081,0.116-0.074c0.034,0,0.065-0.011,0.108-0.125c0.06-0.247-0.269,0.021-0.324-0.097
				c0.038,0.076,0.002,0.17-0.056,0.248c-0.029,0.039-0.063,0.073-0.096,0.099c-0.017,0.013-0.033,0.024-0.048,0.032l-0.011,0.005
				l-0.005,0.002l-0.003,0.001l0.077,0.031l0,0l0,0l-0.001,0.001c-0.005,0.003-0.013,0.009-0.013,0.009
				c-0.034-0.154,0.15-0.241,0.039-0.307c-0.078,0.152-0.21,0.24-0.161,0.38c-0.144,0.351-0.078-0.137-0.208,0.139
				c0.016-0.271,0.271-0.574,0.159-0.736c-0.041,0.254-0.238,0.306-0.238,0.696c-0.03-0.078-0.008-0.28,0.058-0.431
				c-0.063-0.166-0.234,0.439-0.209-0.069l-0.048,0.262c-0.016-0.087-0.045-0.153-0.081-0.298c-0.078-0.016-0.221,0.361-0.229-0.041
				c-0.022,0.036-0.191,0.038-0.104,0.306c0.104,0.154,0.103-0.205,0.166,0.163c-0.074-0.305-0.132,0.043-0.167,0.152l-0.023-0.153
				c-0.025,0.065-0.101,0.033-0.095,0.204c0.01-0.092-0.016-0.194-0.047-0.225l0.004,0.238c-0.099,0.137-0.101-0.402-0.219-0.309
				l0.067-0.197c-0.015,0.044-0.108-0.169-0.162-0.076c0.021,0.216,0.038,0.476,0.063,0.641c-0.04,0.108-0.097-0.229-0.101,0.005
				l0.019-0.273c-0.002-0.072-0.16-0.327-0.268-0.282c-0.05,0.095-0.036,0.413,0.098,0.494c-0.044,0.015-0.156-0.075-0.174-0.238
				c-0.083,0.115,0.096,0.21,0.056,0.37c-0.089-0.121-0.287-0.254-0.458-0.399l-0.046-0.376l-0.077,0.035
				c-0.023-0.309-0.149-0.171-0.223-0.472c-0.079-0.012-0.108,0.11-0.122,0.213c0.377,0.341,0.154,0.676,0.429,1.027
				c-0.089,0.194-0.698-0.83-0.492-0.135c0.096,0.073,0.216,0.4,0.24,0.226c-0.128,0.033,0.202,0.404-0.013,0.337
				c-0.03-0.205-0.377-0.275-0.414-0.578c0.083,0.121,0.143,0.031,0.139-0.019c-0.146-0.101-0.255-0.365-0.377-0.271
				c-0.056,0.091-0.12,0.17,0.045,0.329c0.172,0.186,0.062-0.092,0.197,0.131c-0.038,0.156-0.312-0.131-0.064,0.262
				c0.074-0.127,0.24,0.088,0.368,0.203c0.006-0.007,0.018,0.119,0.001,0.141l-0.098-0.14c-0.137,0.054-0.096,0.121-0.048,0.194
				c0.024,0.037,0.05,0.075,0.057,0.113c0.003,0.019,0.002,0.039-0.007,0.058c-0.005,0.01-0.011,0.019-0.02,0.029l-0.007,0.007
				l-0.004,0.004l-0.002,0.002l0,0l0.053-0.056l0,0l0,0l-0.001,0.001l-0.011,0.009l-0.299-0.16
				c-0.107-0.094-0.003-0.171-0.014-0.141c0.063-0.052,0.101-0.109-0.082-0.255c-0.047,0.035-0.107,0.175-0.033,0.158
				c0.006,0.058,0.005,0.105-0.077,0.109c-0.014-0.045-0.001-0.079-0.016-0.125c-0.034,0.02-0.548-0.341-0.381,0.038
				c0.055,0.162,0.118,0.12,0.255,0.227c-0.078,0.185,0.048,0.338,0.003,0.448c-0.277-0.201-0.138,0.175-0.368-0.124
				c0.203,0.038,0.333-0.195,0.12-0.445c-0.368-0.177,0.139-0.099-0.146-0.386c-0.119,0.132-0.428-0.109-0.657-0.239
				c-0.05,0.035,0.007,0.145,0.02,0.194c0.187,0.159,0.226,0.1,0.433,0.244c-0.173,0.129-0.165,0.377-0.007,0.586
				c-0.138-0.003-0.343-0.137-0.321-0.221c-0.064,0.249-0.2,0.471-0.361,0.667c0.424,0.005-0.003,0.28,0.344,0.298
				c0.127-0.084,0.423-0.066,0.568,0.057c-0.047,0.054-0.162-0.066-0.251-0.07c0.174,0.159-0.379,0.013-0.084,0.212
				c-0.051-0.236-0.444-0.201-0.726-0.34c0.108,0.218-0.21-0.082-0.264,0.084c0.109,0.222,0.188,0.457,0.212,0.652
				c-0.344,0.169-0.114,0.591-0.12,0.793c-0.17,0.095-0.513-0.012-0.584,0.111c-0.003,0.15,0.388-0.082,0.212,0.125l-0.069-0.025
				c0.073,0.065-0.255,0.405,0.252,0.467l-0.382-0.067c-0.037,0.042,0.052,0.08,0.094,0.112c-0.125,0.003-0.237,0.054-0.321-0.014
				c-0.261,0.15,0.046,0.298,0.069,0.45l0.22-0.115c0.194,0.287-0.032,0.35,0.136,0.52l-0.198,0.099
				c0,0.005,0.178,0.043,0.178,0.036c-0.202,0.089-0.222,0.298-0.038,0.222c0,0-0.157,0.04-0.336,0.021
				c-0.175-0.014-0.357-0.078-0.357-0.078c0.062-0.176,0.305,0.015,0.462-0.164c0.137-0.139,0.028-0.273-0.188-0.282
				c-0.003,0.096,0.046,0.092,0.144,0.128c-0.28,0.136-0.32-0.007-0.538-0.07c0.024,0.064-0.041,0.184,0.058,0.169
				c-0.182-0.056-0.238-0.301-0.248-0.422c0.128,0.098,0.187-0.07,0.278-0.036c-0.271,0.003-0.368-0.131-0.295-0.359
				c0.309-0.157-0.204-0.397-0.104-0.646c0.266,0.116,0.487,0.244,0.594,0.383c0.142-0.139-0.006-0.16,0.14-0.295
				c-0.2-0.079-0.511-0.148-0.621-0.358l0.203,0.008c-0.082-0.184-0.385-0.221-0.296-0.447c0.152-0.382,0.251-0.777,0.359-1.063
				l0.197,0.047c-0.368-0.287,0.019-0.581-0.064-0.862c0.321-0.279,0.216-0.875,0.626-0.87c0.118-0.335,0.259-0.649,0.448-0.938
				c0.138-0.186,0.176-0.25,0.316-0.393c0.138-0.136,0.292-0.267,0.451-0.361l0.084,0.308c-0.031-0.25,0.172,0.082,0.242-0.028
				c-0.258-0.101-0.043-0.352-0.059-0.552c0.401-0.002,0.643-0.408,0.856-0.727l0.092,0.182c0.142-0.475,0.632-0.295,1.01-0.314
				c0.062,0.07,0.167,0.243,0.27,0.203c0.143-0.362,0.258-0.353,0.561-0.586c0.238-0.018,0.63,0.07,0.852,0.22
				c0.479-0.176,0.908-0.133,1.444,0.059l0.252,0.097l0.379,0.183c0.246,0.13,0.456,0.229,0.696,0.344l-0.099,0.228
				c0.524,0.111,0.919,0.527,1.177,0.978c0.266,0.455,0.414,0.932,0.664,1.3l-0.414,0.044c-0.049,0.265,0.242,0.523,0.514,0.41
				c-0.071,0.278,0.288,0.673-0.051,0.863c-0.074,0.274,0.175,0.35,0.212,0.605c-0.127,0.287-0.186,0.476-0.251,0.666
				c-0.062,0.194-0.07,0.366-0.208,0.717l0.1-0.146c-0.051-0.106-0.207-0.176-0.298-0.046c-0.002,0.134-0.143,0.333-0.265,0.511
				c-0.116,0.173-0.205,0.34,0.108,0.374c-0.243,0.152-0.534,0.356-0.907,0.494l-0.07,0.025l-0.035,0.012l-0.124,0.034l-0.04,0.013
				c0.022,0-0.155,0.042-0.304,0.058c-0.292,0.028-0.452,0.014-0.669-0.02c-0.808-0.155-1.297-0.646-1.396-1.153
				c-0.068,0.144-0.224-0.057-0.353-0.125c-0.477-1.094,0.054-1.768-0.038-2.27c0.093-0.064,0.167,0.209,0.256-0.002
				c-0.001-0.139-0.163-0.066-0.171-0.244c0.056-0.459,0.298-0.731,0.494-0.911c0.246-0.25,0.499-0.448,0.626-0.699
				c0.345-0.991,1.141-1.74,1.802-2.447l0.061,0.077c-0.022-0.504,0.808-0.238,0.636-0.826c0.118,0.019,0.255-0.157,0.331,0.025
				c0.037-0.373,0.713-0.253,0.82-0.736c-0.033,0.013-0.038,0.041-0.046,0.098c0.423-0.038,0.566-0.488,1.058-0.532
				c-0.02,0.058-0.077,0.123-0.039,0.215c0.226,0.086,0.171-0.557,0.463-0.174c0.088-0.045-0.033-0.245-0.086-0.206
				c0.495-0.127,0.997-0.339,1.619-0.467c0.307-0.065,0.645-0.101,0.991-0.086l0.13,0.006l0.004,0l0.077,0.016l0.005,0l0.01,0
				l0.019,0.001l0.039,0.002c0.061,0.006,0.082-0.002,0.176,0.016c0.214,0.044,0.43,0.106,0.578,0.164
				c0.718,0.708-0.324,0.696,0.456,0.778c-0.011,0.106,0.14-0.119,0.088-0.035c0.305,0.07-0.04,0.652,0.244,0.586
				c0.157-0.255,0.195-0.03,0.327-0.145c0.204,0.52,0.017,0.725,0.402,0.932l-0.146,0.052c0.604,0.178,0.58,0.755,1.147,1.03
				c0.425,1.661,0.15,3.158-0.197,4.403l-3.739-1.34c0.201-0.76,0.491-1.506,0.912-2.207c1.239-1.792,3.096-3.632,5.84-3.594
				c0.602,0.367,0.604,0.359,1.245,0.247c-0.033,0.062-0.072,0.074-0.038,0.138c0.07-0.328,0.436,0.032,0.551-0.265
				c0.899,0.244,1.781,0.501,2.615,1.154c-0.155-0.074-0.376,0.095-0.215,0.19l0.287-0.038l-0.035,0.092
				c0.128,0.049,0.349,0.032,0.315-0.142l0.204,0.156l0.025,0.02l0.076,0.077l0.008,0.006l0.03,0.026l0.06,0.053l0.117,0.107
				l0.189,0.218c0.279,0.34,0.418,0.575,0.572,0.887c0.291,0.594,0.442,1.224,0.494,1.837c0.099,1.236-0.16,2.383-0.549,3.497
				c-0.302,0.423-0.588,1.195-0.898,1.684c-1.447,1.082-2.73,1.45-4.112,2.217C29.072,23.856,29.035,22.995,29.466,22.604z"/>
			<path fill="#FCFCFC" d="M7.582,22.582c-0.046-0.203-0.12-0.388,0.131-0.47C7.624,22.244,7.665,22.461,7.582,22.582z"/>
			<path fill="#FCFCFC" d="M8.749,18.688c-0.045-0.02,0.077-0.024,0.105-0.025c0,0.043,0.12,0.12,0.03,0.124
				C8.884,18.746,8.808,18.727,8.749,18.688z"/>
			<path fill="#FCFCFC" d="M9.154,17.972c0.125,0.081,0.15,0.274,0.131,0.371L9.154,17.972z"/>
			<path fill="#FCFCFC" d="M10.026,17.711c0.13,0.031,0.174,0.085,0.13,0.137C10.091,17.806,10.074,17.765,10.026,17.711z"/>
			<path fill="#FCFCFC" d="M9.79,17.472c0.03-0.049,0.115-0.017,0.198,0.017C9.886,17.41,9.971,17.636,9.79,17.472z"/>
			<path fill="#FCFCFC" d="M11.069,16.916c0.019-0.027,0.023-0.165,0.123-0.032C11.108,16.796,11.151,17.115,11.069,16.916z"/>
			<path fill="#FCFCFC" d="M11.533,16.474c0.022,0.003,0.037,0.026,0.047-0.02c0.054,0.052,0.049,0.166,0.026,0.188L11.533,16.474z"
				/>
			<polygon fill="#FCFCFC" points="18.961,14.712 18.932,14.826 18.854,14.704 			"/>
			<path fill="#FCFCFC" d="M22.671,15.556c0.094,0.073-0.135,0.058-0.156,0.071C22.498,15.561,22.695,15.647,22.671,15.556z"/>
			<polygon fill="#FCFCFC" points="24.119,17.063 24.109,17.091 23.85,16.941 			"/>
		</g>
	</g>
</g>
</svg>
