<?xml version="1.0" encoding="utf-8"?>
<!-- Generator: Adobe Illustrator 18.0.0, SVG Export Plug-In . SVG Version: 6.00 Build 0)  -->
<!DOCTYPE svg PUBLIC "-//W3C//DTD SVG 1.1//EN" "http://www.w3.org/Graphics/SVG/1.1/DTD/svg11.dtd">
<svg version="1.1" id="Layer_1" xmlns="http://www.w3.org/2000/svg" xmlns:xlink="http://www.w3.org/1999/xlink" x="0px" y="0px"
	 viewBox="0 0 16 16" enable-background="new 0 0 16 16" xml:space="preserve">
<path fill="#cc2f3c" d="M15.622,7.22l-2.89,6.496c-0.173,0.387-0.558,0.638-0.983,0.638h-7.5c-0.424,0-0.81-0.25-0.982-0.638
	l-2.89-6.495C0.229,6.888,0.26,6.503,0.458,6.198S0.996,5.709,1.36,5.709h1.694l1.607-3.442C4.913,1.729,5.552,1.496,6.09,1.747
	c0.538,0.251,0.77,0.891,0.519,1.429L5.427,5.709h5.144L9.39,3.176C9.139,2.638,9.372,1.998,9.91,1.747
	c0.538-0.251,1.177-0.018,1.429,0.519l1.606,3.442h1.694c0.365,0,0.704,0.184,0.903,0.489S15.77,6.888,15.622,7.22z"/>
</svg>
