<?xml version="1.0" encoding="utf-8"?>
<!-- Generator: Adobe Illustrator 18.0.0, SVG Export Plug-In . SVG Version: 6.00 Build 0)  -->
<!DOCTYPE svg PUBLIC "-//W3C//DTD SVG 1.1//EN" "http://www.w3.org/Graphics/SVG/1.1/DTD/svg11.dtd">
<svg version="1.1" id="Layer_1" xmlns="http://www.w3.org/2000/svg" xmlns:xlink="http://www.w3.org/1999/xlink" x="0px" y="0px"
	 viewBox="0 0 33.001 30" enable-background="new 0 0 33.001 30" xml:space="preserve">
<path fill="#FFFFFF" d="M30.899,13.537l-5.419,12.18c-0.324,0.726-1.046,1.196-1.843,1.196H9.575c-0.795,0-1.519-0.469-1.841-1.196
	L2.315,13.539c-0.277-0.624-0.219-1.346,0.152-1.918s1.009-0.917,1.691-0.917h3.176l3.013-6.454
	c0.473-1.009,1.671-1.446,2.679-0.975S14.471,4.946,14,5.955l-2.216,4.749h9.645l-2.214-4.749c-0.471-1.009-0.034-2.209,0.975-2.679
	c1.009-0.471,2.207-0.034,2.679,0.973l3.011,6.454h3.176c0.684,0,1.32,0.345,1.693,0.917S31.177,12.915,30.899,13.537z"/>
</svg>
