<?xml version="1.0" encoding="utf-8"?>
<!-- Generator: Adobe Illustrator 18.0.0, SVG Export Plug-In . SVG Version: 6.00 Build 0)  -->
<!DOCTYPE svg PUBLIC "-//W3C//DTD SVG 1.1//EN" "http://www.w3.org/Graphics/SVG/1.1/DTD/svg11.dtd">
<svg version="1.1" id="Layer_1" xmlns="http://www.w3.org/2000/svg" xmlns:xlink="http://www.w3.org/1999/xlink" x="0px" y="0px"
	 viewBox="0 0 69 69" enable-background="new 0 0 69 69" xml:space="preserve">
<g>
	<circle fill="none" stroke="#5C6670" stroke-miterlimit="10" cx="34.521" cy="34.618" r="33"/>
	<g>
		<g>
			<g>
				<path fill="#5C6670" d="M40.984,37c0.251,0,0.392,1.246,0.392,1.968c0,3.605-3.382,6.528-7.554,6.528
					c-4.172,0-7.554-2.842-7.554-6.446c0-0.722,0.141-2.05,0.392-2.05H41 M40.984,34H26.66c-1.267,0-2.397,0.601-2.824,1.793
					c-0.372,1.037-0.568,2.049-0.568,3.11c0,5.289,4.735,9.544,10.554,9.544c5.82,0,10.554-4.342,10.554-9.65
					c0-1.055-0.191-1.94-0.568-2.992C43.381,34.613,42.251,34,40.984,34L40.984,34z"/>
			</g>
			<g>
				<g>
					<path fill="#5C6670" d="M44.503,36.486c-0.007-0.05-0.015-0.099-0.022-0.149c0,0.266,0,0.532,0,0.798
						c-0.168,0.666-1.307,0.348-1.192-0.299c-0.056,0.168-0.053,0.184,0.01,0.049c-0.041,0.087-0.088,0.171-0.141,0.251
						c0.156-0.258-0.322,0.237-0.072,0.065c-0.673,0.462-0.974,1.308-0.538,2.052c0.391,0.667,1.377,1.001,2.052,0.538
						c1.388-0.952,2.392-3.075,1.066-4.528c-0.614-0.672-1.623-0.932-2.484-0.622c-0.422,0.152-0.811,0.392-1.094,0.745
						c-0.48,0.598-0.591,1.141-0.478,1.897c0.121,0.81,1.129,1.245,1.845,1.048C44.313,38.095,44.623,37.294,44.503,36.486
						L44.503,36.486z"/>
				</g>
			</g>
		</g>
		<g>
			<g>
				<path fill="#5C6670" d="M35.303,28.922c-1.576-0.378-1.831-1.648-1.317-3.038c0.612-1.657,2.798-2.504,4.267-3.209
					c0.571-0.274,0.852-1.145,1.414-1.414c-2.171,1.041-3.926,2.342-5.604,4.039c-1.33,1.346-3.055,4.346-0.174,5.036
					C34.24,30.42,34.976,28.844,35.303,28.922L35.303,28.922z"/>
			</g>
		</g>
		<g>
			<g>
				<path fill="#5C6670" d="M39.788,28.922c-1.197-0.31-1.286-1.363-0.915-2.39c0.08-0.189,0.175-0.37,0.285-0.543
					c0.421-0.727-0.469,0.269,0.293-0.315c0.626-0.48,1.327-0.863,2.026-1.225c0.568-0.295,0.854-1.124,1.414-1.414
					c-1.706,0.885-3.003,2.024-4.332,3.38c-0.974,0.994-2.293,3.376-0.186,3.922C38.714,30.424,39.473,28.84,39.788,28.922
					L39.788,28.922z"/>
			</g>
		</g>
		<g>
			<g>
				<path fill="#5C6670" d="M29.868,28.922c-0.953-0.354-0.913-1.361-0.733-2.211c0.114-0.54,0.412-1.031,0.711-1.484
					c0.264-0.322,0.28-0.364,0.049-0.126c0.277-0.236,0.577-0.444,0.875-0.652c0.54-0.377,0.878-1.04,1.414-1.414
					c-1.126,0.786-2.134,1.761-3.06,2.773c-0.854,0.933-2.665,3.788-0.669,4.529C28.727,30.437,29.62,28.83,29.868,28.922
					L29.868,28.922z"/>
			</g>
		</g>
	</g>
</g>
</svg>
