<?xml version="1.0" encoding="utf-8"?>
<!-- Generator: Adobe Illustrator 18.0.0, SVG Export Plug-In . SVG Version: 6.00 Build 0)  -->
<!DOCTYPE svg PUBLIC "-//W3C//DTD SVG 1.1//EN" "http://www.w3.org/Graphics/SVG/1.1/DTD/svg11.dtd">
<svg version="1.1" id="Layer_1" xmlns="http://www.w3.org/2000/svg" xmlns:xlink="http://www.w3.org/1999/xlink" x="0px" y="0px"
	 viewBox="0 0 239 85" enable-background="new 0 0 239 85" xml:space="preserve">
<g>
	<g>
		<g>
			<g>
				<path fill="#FFFFFF" d="M91.326,15.938c-0.349,17.152-0.698,34.304-1.047,51.455c-0.019,0.945,2.847,1.927,2.828,2.828
					c0.349-17.152,0.698-34.304,1.047-51.455C94.173,17.822,91.307,16.839,91.326,15.938L91.326,15.938z"/>
			</g>
		</g>
		<g>
			<g>
				<path fill="#FFFFFF" d="M144.565,15.938c-0.349,17.152-0.698,34.304-1.047,51.455c-0.019,0.945,2.847,1.927,2.828,2.828
					c0.349-17.152,0.698-34.304,1.047-51.455C147.413,17.822,144.547,16.839,144.565,15.938L144.565,15.938z"/>
			</g>
		</g>
		<g>
			<g>
				<path fill="#FFFFFF" d="M106.563,11.876c12.62-1.782,31.397-2.025,41.511,7.291c-0.925-0.927-1.849-1.854-2.774-2.782
					c6.066,8.951-15.676,9.968-20.002,10.047c-10.438,0.191-23.902-0.954-32.592-7.309c0.927,0.925,1.854,1.849,2.782,2.774
					c-8.266-8.825,19.763-8.498,23.669-8.197c-0.989-0.076-1.8-2.749-2.828-2.828c-7.483-0.577-16.03-0.587-23.131,2.172
					c-4.725,1.836-0.775,5.834,1.285,7.883c3.592,3.572,8.704,4.972,13.502,6.132c7.783,1.883,15.853,2.41,23.834,2.094
					c5.507-0.218,14.427-0.727,17.245-6.377c1.15-2.305-2.144-4.835-3.563-6.206c-9.938-9.604-29.159-9.304-41.766-7.523
					C104.504,8.939,105.746,11.992,106.563,11.876L106.563,11.876z"/>
			</g>
		</g>
		<g>
			<g>
				<path fill="#FFFFFF" d="M143.48,66.132c0.885,8.565-17.262,8.242-22.276,8.22c-9.708-0.042-22.017-1.426-29.934-7.543
					c0.927,0.925,1.854,1.849,2.782,2.774c-1.969-2.219-2.254-3.881-0.146-5.81c-0.021,0.019-2.763-2.889-2.828-2.828
					c-7.353,6.73,14.219,13.743,16.9,14.365c7.603,1.763,15.472,2.151,23.239,1.661c4.273-0.27,15.757-1.556,15.091-8.009
					C146.2,67.913,143.584,67.142,143.48,66.132L143.48,66.132z"/>
			</g>
		</g>
	</g>
	<g>
		<g>
			<g>
				<path fill="#FFFFFF" d="M113.805,49.936c4.908-2.863,10.112-4.909,15.655-6.157c-0.67,0.151-2.108-2.99-2.828-2.828
					c-5.543,1.248-10.747,3.294-15.655,6.157C111.244,46.952,113.487,50.122,113.805,49.936L113.805,49.936z"/>
			</g>
		</g>
		<g>
			<g>
				<path fill="#FFFFFF" d="M117.014,38.521c-0.086-0.052-0.171-0.105-0.257-0.157c0.067,0.062,0.133,0.124,0.2,0.186
					c-0.071-0.069-0.143-0.139-0.214-0.208c0.876,0.881,1.752,1.762,2.628,2.642c-1.283-1.868,1.051-5.388,3.282-4.697
					c1.077,0.564,0.545-0.026-1.596-1.77c0.215,0.302,0.332,0.674,0.452,1.019c0.181,0.525,0.499,1.323,0.049,1.692
					c-1.004,0.824-2.325,1.171-3.6,1.184c0.943,0.943,1.886,1.886,2.828,2.828c-0.148-0.296-0.296-0.593-0.444-0.889
					c-0.258-0.516-1-1.028-1.4-1.428c-0.384-0.384-1.184-0.91-1.428-1.4c0.148,0.296,0.296,0.593,0.444,0.889
					c0.258,0.516,1,1.028,1.4,1.428c0.203,0.203,1.119,1.403,1.428,1.4c0.965-0.01,1.837-0.214,2.71-0.624
					c0.425-0.2,0.801-0.487,1.161-0.783c0.167-0.137-0.371-1.616-0.442-1.822c-0.316-0.914-1.109-1.57-1.769-2.234
					c-0.738-0.742-1.454-1.592-2.328-2.178c-1.933-1.294-3.937,1.798-3.989,3.423c-0.03,0.937,0.852,1.594,1.439,2.184
					c0.708,0.712,1.411,1.612,2.274,2.142C118.744,40.675,118.125,39.202,117.014,38.521L117.014,38.521z"/>
			</g>
		</g>
		<g>
			<g>
				<path fill="#FFFFFF" d="M120.14,44.994c-2.732,2.255-4.2,6.739-5.777,9.841c-0.125,0.246,2.933,2.713,2.828,2.828
					c2.491-2.741,5.428-4.362,9.076-5.008c-0.943-0.943-1.886-1.886-2.828-2.828c-3.009,2.717-5.126,5.883-6.485,9.703
					c-0.068,0.192,2.815,2.837,2.828,2.828c1.534-0.996,3.318-2.127,5.08-1.111c-0.943-0.943-1.886-1.886-2.828-2.828
					c1.491,2.009,1.182,4.177-0.539,5.927c-0.029,0.03,2.815,2.842,2.828,2.828c2.341-2.381,1.603-4.879-0.486-6.979
					c-0.578-0.581-1.149-1.172-1.75-1.73c-1.471-1.367-3.817,0.209-5.134,1.065c0.943,0.943,1.886,1.886,2.828,2.828
					c1.359-3.82,3.475-6.986,6.485-9.703c-0.148,0.133-2.45-2.895-2.828-2.828c-3.647,0.646-6.584,2.266-9.076,5.008
					c0.943,0.943,1.886,1.886,2.828,2.828c1.577-3.102,3.044-7.586,5.777-9.841C122.894,47.884,120.261,44.894,120.14,44.994
					L120.14,44.994z"/>
			</g>
		</g>
	</g>
</g>
<g>
	<g>
		<g>
			<g>
				<path fill="#FFFFFF" d="M172.959,15.938c-0.349,17.152-0.698,34.304-1.047,51.455c-0.019,0.945,2.847,1.927,2.828,2.828
					c0.349-17.152,0.698-34.304,1.047-51.455C175.807,17.822,172.941,16.839,172.959,15.938L172.959,15.938z"/>
			</g>
		</g>
		<g>
			<g>
				<path fill="#FFFFFF" d="M226.199,15.938c-0.349,17.152-0.698,34.304-1.047,51.455c-0.019,0.945,2.847,1.927,2.828,2.828
					c0.349-17.152,0.698-34.304,1.047-51.455C229.046,17.822,226.18,16.839,226.199,15.938L226.199,15.938z"/>
			</g>
		</g>
		<g>
			<g>
				<path fill="#FFFFFF" d="M188.197,11.876c12.62-1.782,31.397-2.025,41.511,7.291c-0.925-0.927-1.849-1.854-2.774-2.782
					c6.066,8.951-15.676,9.968-20.002,10.047c-10.438,0.191-23.902-0.954-32.592-7.309c0.927,0.925,1.854,1.849,2.782,2.774
					c-8.266-8.825,19.763-8.498,23.669-8.197c-0.989-0.076-1.8-2.749-2.828-2.828c-7.483-0.577-16.03-0.587-23.131,2.172
					c-4.725,1.836-0.775,5.834,1.285,7.883c3.592,3.572,8.704,4.972,13.502,6.132c7.783,1.883,15.853,2.41,23.834,2.094
					c5.507-0.218,14.427-0.727,17.245-6.377c1.15-2.305-2.144-4.835-3.563-6.206c-9.938-9.604-29.159-9.304-41.766-7.523
					C186.138,8.939,187.38,11.992,188.197,11.876L188.197,11.876z"/>
			</g>
		</g>
		<g>
			<g>
				<path fill="#FFFFFF" d="M225.114,66.132c0.885,8.565-17.262,8.242-22.276,8.22c-9.708-0.042-22.017-1.426-29.934-7.543
					c0.927,0.925,1.854,1.849,2.782,2.774c-1.969-2.219-2.254-3.881-0.146-5.81c-0.021,0.019-2.763-2.889-2.828-2.828
					c-7.353,6.73,14.219,13.743,16.9,14.365c7.603,1.763,15.472,2.151,23.239,1.661c4.273-0.27,15.757-1.556,15.091-8.009
					C227.834,67.913,225.218,67.142,225.114,66.132L225.114,66.132z"/>
			</g>
		</g>
	</g>
	<g>
		<g>
			<g>
				<path fill="#FFFFFF" d="M194.097,51.395c5.168-2.011,10.486-3.174,16.022-3.502c-0.861,0.051-1.923-2.882-2.828-2.828
					c-5.536,0.329-10.854,1.491-16.022,3.502C191.742,48.382,193.571,51.6,194.097,51.395L194.097,51.395z"/>
			</g>
		</g>
		<g>
			<g>
				<path fill="#FFFFFF" d="M197.046,36.696c-0.506,7.509,1.396,15.026-0.622,22.41c-0.181,0.662,2.996,2.217,2.828,2.828
					c2.019-7.383,0.116-14.901,0.622-22.41C199.935,38.627,196.989,37.548,197.046,36.696L197.046,36.696z"/>
			</g>
		</g>
		<g>
			<g>
				<path fill="#FFFFFF" d="M195.398,59.126c-0.365-0.131-0.708-0.284-1.05-0.467c-0.167-0.094-0.329-0.196-0.486-0.306
					c-1.272-0.842,2.11,2.441,1.21,1.207c-0.568-0.779-0.899-1.704-1.057-2.647c-0.067-0.4-1.129-1.158-1.4-1.428
					c-0.333-0.333-0.667-0.666-1.004-0.996c-0.012-0.012-0.414-0.344-0.424-0.404c0.297,1.766,1.26,3.005,2.483,4.243
					c1.374,1.39,2.67,2.948,4.557,3.627c-0.09-0.032-0.361-0.38-0.404-0.424c-0.33-0.337-0.663-0.671-0.996-1.004
					C196.476,60.176,195.879,59.299,195.398,59.126L195.398,59.126z"/>
			</g>
		</g>
		<g>
			<g>
				<path fill="#FFFFFF" d="M191.413,61.328c5.067-7.078,11.073-13.281,17.985-18.573c-0.115,0.088-2.665-2.953-2.828-2.828
					c-6.911,5.293-12.917,11.495-17.985,18.573C188.441,58.701,191.523,61.175,191.413,61.328L191.413,61.328z"/>
			</g>
		</g>
		<g>
			<g>
				<path fill="#FFFFFF" d="M197.17,47.295c2.637,3.041,5.202,6.14,7.699,9.298c0.296,0.375,2.499,2.932,2.828,2.828
					c2.048-0.644,4.077-1.043,6.217-1.223c-0.834,0.07-1.948-2.902-2.828-2.828c-2.139,0.18-4.169,0.579-6.217,1.223
					c0.943,0.943,1.886,1.886,2.828,2.828c-2.527-3.195-5.124-6.329-7.792-9.406C199.116,49.105,197.786,48.005,197.17,47.295
					L197.17,47.295z"/>
			</g>
		</g>
		<g>
			<g>
				<path fill="#FFFFFF" d="M196.412,45.473c1.247-1.385,2.562-2.693,3.951-3.935c0.871-0.778,2.78-3.006,4.054-2.396
					c-0.943-0.943-1.886-1.886-2.828-2.828c0.623,1.027-0.636,2.845-1.047,3.819c-0.206,0.488,3.013,2.392,2.828,2.828
					c0.362-0.856,1.803-3.011,1.001-3.873c-0.872-0.938-1.789-1.855-2.727-2.727c-0.958-0.891-3.03,1.423-3.688,1.983
					c-1.559,1.326-3.003,2.782-4.372,4.301C193.517,42.718,196.438,45.444,196.412,45.473L196.412,45.473z"/>
			</g>
		</g>
	</g>
</g>
<g>
	<g>
		<g>
			<g>
				<path fill="#FFFFFF" d="M9.692,15.938C9.343,33.09,8.994,50.241,8.645,67.393c-0.019,0.945,2.847,1.927,2.828,2.828
					c0.349-17.152,0.698-34.304,1.047-51.455C12.54,17.822,9.674,16.839,9.692,15.938L9.692,15.938z"/>
			</g>
		</g>
		<g>
			<g>
				<path fill="#FFFFFF" d="M62.931,15.938c-0.349,17.152-0.698,34.304-1.047,51.455c-0.019,0.945,2.847,1.927,2.828,2.828
					c0.349-17.152,0.698-34.304,1.047-51.455C65.779,17.822,62.913,16.839,62.931,15.938L62.931,15.938z"/>
			</g>
		</g>
		<g>
			<g>
				<path fill="#FFFFFF" d="M24.93,11.876c12.62-1.782,31.397-2.025,41.511,7.291c-0.925-0.927-1.849-1.854-2.774-2.782
					c6.066,8.951-15.676,9.968-20.002,10.047c-10.438,0.191-23.902-0.954-32.592-7.309c0.927,0.925,1.854,1.849,2.782,2.774
					c-8.266-8.825,19.763-8.498,23.669-8.197c-0.989-0.076-1.8-2.749-2.828-2.828c-7.483-0.577-16.03-0.587-23.131,2.172
					c-4.725,1.836-0.775,5.834,1.285,7.883c3.592,3.572,8.704,4.972,13.502,6.132c7.783,1.883,15.853,2.41,23.834,2.094
					c5.507-0.218,14.427-0.727,17.245-6.377c1.15-2.305-2.144-4.835-3.563-6.206c-9.938-9.604-29.159-9.304-41.766-7.523
					C22.871,8.939,24.113,11.992,24.93,11.876L24.93,11.876z"/>
			</g>
		</g>
		<g>
			<g>
				<path fill="#FFFFFF" d="M61.847,66.132c0.885,8.565-17.262,8.242-22.276,8.22c-9.708-0.042-22.017-1.426-29.934-7.543
					c0.927,0.925,1.854,1.849,2.782,2.774c-1.969-2.219-2.254-3.881-0.146-5.81c-0.021,0.019-2.763-2.889-2.828-2.828
					c-7.353,6.73,14.219,13.743,16.9,14.365c7.603,1.763,15.472,2.151,23.239,1.661c4.273-0.27,15.757-1.556,15.091-8.009
					C64.567,67.913,61.951,67.142,61.847,66.132L61.847,66.132z"/>
			</g>
		</g>
	</g>
	<g>
		<g>
			<g>
				<path fill="#FFFFFF" d="M36.911,39.036c-0.034-0.005-0.068-0.011-0.103-0.016c1.288,0.345,2.576,0.69,3.864,1.035
					c-0.045-0.168-0.034-0.228,0.123-0.309c-1.288-0.345-2.576-0.69-3.864-1.035c0.724,0.313,0.53,1.886,0.466,2.515
					c-0.119,1.166-0.683,2.242-1.437,3.118c0.079-0.092,1.783,0.499,1.927,0.537c0.16,0.043,1.827,0.626,1.937,0.498
					c1.234-1.433,1.901-3.542,1.258-5.393c-0.178-0.511-1.817-0.67-2.214-0.777c-0.245-0.066-2.239-0.852-2.06-0.189
					c0.052,0.191,1.745,0.488,1.927,0.537c0.634,0.17,1.286,0.398,1.937,0.498c0.034,0.005,0.068,0.011,0.103,0.016
					C39.468,39.87,38.223,39.238,36.911,39.036L36.911,39.036z"/>
			</g>
		</g>
		<g>
			<g>
				<path fill="#FFFFFF" d="M34.684,47.312c3.487-2.765,7.641-4.088,12.085-3.851c-1.296-0.069-2.556-0.965-3.864-1.035
					c-4.444-0.238-8.598,1.086-12.085,3.851C31.423,45.799,34.042,47.821,34.684,47.312L34.684,47.312z"/>
			</g>
		</g>
		<g>
			<g>
				<path fill="#FFFFFF" d="M36.022,46.189c0.576,1.56-0.459,2.927-1.248,4.218c-1.087,1.781-2.326,3.464-3.632,5.089
					c0.32-0.398,3.509,1.476,3.864,1.035c1.164-1.448,2.248-2.944,3.261-4.501c0.902-1.387,2.254-3.082,1.618-4.806
					c-0.081-0.22-1.716-0.48-1.927-0.537C37.771,46.637,36.087,46.365,36.022,46.189L36.022,46.189z"/>
			</g>
		</g>
		<g>
			<g>
				<path fill="#FFFFFF" d="M41.888,46.867c-0.611,2.923-1.861,5.566-3.732,7.892c0.32-0.398,3.509,1.476,3.864,1.035
					c1.871-2.327,3.121-4.969,3.732-7.892C45.773,47.8,41.879,46.91,41.888,46.867L41.888,46.867z"/>
			</g>
		</g>
		<g>
			<g>
				<path fill="#FFFFFF" d="M30.127,52.554c6.171-1.779,10.681,1.867,13.175,7.177c0.375,0.799,3.508,0.278,3.864,1.035
					c-2.184-4.65-4.956-6.642-9.825-8.006c-3.63-1.017-7.313-2.326-11.078-1.241C27.345,51.207,29.016,52.874,30.127,52.554
					L30.127,52.554z"/>
			</g>
		</g>
		<g>
			<g>
				<path fill="#FFFFFF" d="M30.348,52.471c7.144-0.89,13.508-3.857,19.512-7.721c-0.734,0.473-3.092-1.532-3.864-1.035
					c-6.005,3.864-12.368,6.832-19.512,7.721C27.698,51.284,29.111,52.625,30.348,52.471L30.348,52.471z"/>
			</g>
		</g>
	</g>
</g>
</svg>
