<?xml version="1.0" encoding="utf-8"?>
<!-- Generator: Adobe Illustrator 18.0.0, SVG Export Plug-In . SVG Version: 6.00 Build 0)  -->
<!DOCTYPE svg PUBLIC "-//W3C//DTD SVG 1.1//EN" "http://www.w3.org/Graphics/SVG/1.1/DTD/svg11.dtd">
<svg version="1.1" id="Layer_1" xmlns="http://www.w3.org/2000/svg" xmlns:xlink="http://www.w3.org/1999/xlink" x="0px" y="0px"
	 viewBox="0 0 960 560" enable-background="new 0 0 960 560" xml:space="preserve">
<g>
	<g>
		<path fill="#FCFCFC" d="M250.291,262.393c140.727,0,281.455,0,422.182,0c-11.629,0-23.353-9.411-35.127-9.411
			c-140.727,0-281.455,0-422.182,0C226.793,252.982,238.516,262.393,250.291,262.393L250.291,262.393z"/>
	</g>
</g>
<g>
	<g>
		<path fill="#FCFCFC" d="M247.891,251.658c0,73.295,0,146.596,0,219.891c0,3.404,35.127,6.538,35.127,9.411
			c0-73.295,0-146.596,0-219.891C283.018,257.665,247.891,254.531,247.891,251.658L247.891,251.658z"/>
	</g>
</g>
<g>
	<g>
		<path fill="#FCFCFC" d="M604.255,251.658c0,73.295,0,146.596,0,219.891c0,3.404,35.127,6.538,35.127,9.411
			c0-73.295,0-146.596,0-219.891C639.382,257.665,604.255,254.531,604.255,251.658L604.255,251.658z"/>
	</g>
</g>
<g>
	<g>
		<path fill="#FCFCFC" d="M235.745,479.636c155.149,0,310.305,0,465.455,0c-11.629,0-23.353-9.411-35.127-9.411
			c-155.149,0-310.305,0-465.455,0C212.247,470.225,223.971,479.636,235.745,479.636L235.745,479.636z"/>
	</g>
</g>
<g>
	<g>
		<path fill="#FCFCFC" d="M582.356,156.036c18.327,32.007,36.662,64.015,54.989,96.022c4.342,7.578,30.982,2.175,35.127,9.411
			c-18.327-32.007-36.662-64.015-54.989-96.022C613.142,157.869,586.502,163.273,582.356,156.036L582.356,156.036z"/>
	</g>
</g>
<g>
	<g>
		<path fill="#FCFCFC" d="M266.436,156.036c-18.327,32.007-36.662,64.015-54.989,96.022c1.404-2.458,33.455,12.327,35.127,9.411
			c18.327-32.007,36.662-64.015,54.989-96.022C300.153,167.905,268.109,153.12,266.436,156.036L266.436,156.036z"/>
	</g>
</g>
<g>
	<g>
		<g>
			<path fill="#FCFCFC" d="M201.818,167.273c164.851,0,329.695,0,494.545,0c0.276,0,0.276-36.364,0-36.364
				c-164.851,0-329.695,0-494.545,0C201.542,130.909,201.542,167.273,201.818,167.273L201.818,167.273z"/>
		</g>
	</g>
	<g>
		<g>
			<path fill="#FCFCFC" d="M286.655,108.945c113.229,0,226.451,0,339.68,0c-11.629,0-23.353-9.411-35.127-9.411
				c-113.229,0-226.451,0-339.68,0C263.156,99.535,274.88,108.945,286.655,108.945L286.655,108.945z"/>
		</g>
	</g>
	<g>
		<g>
			<path fill="#FCFCFC" d="M511.658,32.138c-5.535,12.189-11.2,12.109-23.295,12.109c-17.738,0-35.484,0-53.222,0
				c-0.276,0-0.276,36.364,0,36.364c12.415,0,24.822,0,37.236,0c0.276,0,0.276-36.364,0-36.364c-17.738,0-35.484,0-53.222,0
				c-12.095,0-17.76,0.08-23.295-12.109c4.516,9.942-4.611,26.218,0,36.364c5.535,12.189,11.2,12.109,23.295,12.109
				c17.738,0,35.484,0,53.222,0c0.276,0,0.276-36.364,0-36.364c-12.415,0-24.822,0-37.236,0c-0.276,0-0.276,36.364,0,36.364
				c17.738,0,35.484,0,53.222,0c12.095,0,17.76,0.08,23.295-12.109C516.269,58.356,507.142,42.08,511.658,32.138L511.658,32.138z"/>
		</g>
	</g>
	<g>
		<g>
			<path fill="#FCFCFC" d="M234.065,104.829c39.891-20.291,48.96,42.735,57.745,65.716c-4.007-10.48,4.073-25.702,0-36.364
				c-8.785-22.982-17.855-86.007-57.745-65.716c-1.433,0.727-0.182,16.625-0.182,18.182
				C233.884,88.044,235.113,104.298,234.065,104.829L234.065,104.829z"/>
		</g>
	</g>
	<g>
		<g>
			<path fill="#FCFCFC" d="M656.865,68.465c-39.891-20.291-48.96,42.735-57.745,65.716c-4.073,10.662,4.007,25.884,0,36.364
				c8.785-22.982,17.855-86.007,57.745-65.716c-1.047-0.531,0.182-16.785,0.182-18.182
				C657.047,85.084,658.298,69.193,656.865,68.465L656.865,68.465z"/>
		</g>
	</g>
</g>
<g>
	<g>
		<g>
			<path fill="#FCFCFC" d="M381.2,333.331c50.487,0,100.967,0,151.455,0c-11.629,0-23.353-9.411-35.127-9.411c-10,0-20,0-30.007,0
				c11.629,0,23.353,9.411,35.127,9.411c10,0,20,0,30.007,0c-11.629,0-23.353-9.411-35.127-9.411c-50.487,0-100.967,0-151.455,0
				C357.702,323.92,369.425,333.331,381.2,333.331L381.2,333.331z"/>
		</g>
	</g>
	<g>
		<g>
			<path fill="#FCFCFC" d="M381.2,410.487c50.487,0,100.967,0,151.455,0c-11.629,0-23.353-9.411-35.127-9.411c-10,0-20,0-30.007,0
				c11.629,0,23.353,9.411,35.127,9.411c10,0,20,0,30.007,0c-11.629,0-23.353-9.411-35.127-9.411c-50.487,0-100.967,0-151.455,0
				C357.702,401.076,369.425,410.487,381.2,410.487L381.2,410.487z"/>
		</g>
	</g>
	<g>
		<g>
			<path fill="#FCFCFC" d="M487.091,305.2c0,39.665,0,79.324,0,118.989c0-3.345,10.284-6.778,10.284-10.284
				c0-39.665,0-79.324,0-118.989C497.375,298.262,487.091,301.695,487.091,305.2L487.091,305.2z"/>
		</g>
	</g>
	<g>
		<g>
			<path fill="#FCFCFC" d="M436.182,330.596c0,27.876,0,55.76,0,83.636c0-3.345,10.284-6.778,10.284-10.284
				c0-27.876,0-55.76,0-83.636C446.465,323.658,436.182,327.091,436.182,330.596L436.182,330.596z"/>
		</g>
	</g>
	<g>
		<g>
			<path fill="#FCFCFC" d="M498.778,362.131c-33.331,0-66.662,0-99.993,0c-3.505,0-6.938,10.284-10.284,10.284
				c33.331,0,66.662,0,99.993,0C492,372.415,495.433,362.131,498.778,362.131L498.778,362.131z"/>
		</g>
	</g>
	<g>
		<g>
			<path fill="#FCFCFC" d="M388.502,310.909c0,43.069,0,86.131,0,129.2c0-3.345,10.284-6.778,10.284-10.284
				c0-43.069,0-86.131,0-129.2C398.785,303.971,388.502,307.404,388.502,310.909L388.502,310.909z"/>
		</g>
	</g>
</g>
</svg>
