<?xml version="1.0" encoding="utf-8"?>
<!-- Generator: Adobe Illustrator 18.0.0, SVG Export Plug-In . SVG Version: 6.00 Build 0)  -->
<!DOCTYPE svg PUBLIC "-//W3C//DTD SVG 1.1//EN" "http://www.w3.org/Graphics/SVG/1.1/DTD/svg11.dtd">
<svg version="1.1" id="Layer_1" xmlns="http://www.w3.org/2000/svg" xmlns:xlink="http://www.w3.org/1999/xlink" x="0px" y="0px"
	 viewBox="0 0 960 560" enable-background="new 0 0 960 560" xml:space="preserve">
<g>
	<g>
		<g>
			<path fill="#FFFFFF" d="M469.198,465.522c0.872,0,1.749,0,2.621,0c0.479,0,2.985-2.84,3.06-2.915
				c2.431-2.379,4.844-4.78,7.245-7.188c2.407-2.407,4.803-4.815,7.188-7.245c-0.052,0.052,2.638-3.06,2.915-3.06
				c-0.872,0-1.749,0-2.621,0c-0.479,0-2.985,2.84-3.06,2.915c-2.431,2.379-4.844,4.78-7.245,7.188
				c-2.407,2.407-4.803,4.815-7.188,7.245C472.166,462.41,469.475,465.522,469.198,465.522L469.198,465.522z"/>
		</g>
	</g>
	<g>
		<g>
			<path fill="#FFFFFF" d="M566.661,367.984c59.845-3.741,43.876,58.927,1.969,75.034c-19.438,7.47-45.372,3.285-65.56,3.285
				c-20.483,0-40.967,0-61.45,0c-29.339,0-114.344-46.428-81.454-83.475c-6.691,6.674-13.382,13.348-20.073,20.021
				c13.122-8.706,26.164-8.677,41.521-7.915c6.61,0.329,14.127-20.72,20.414-20.414c-25.396-1.259-37.861,3.966-54.539,20.737
				c-18.913,19.017-14.941,34.079,1.928,55.417c30.823,38.981,78.158,36.042,122.086,36.042c41.486,0,77.805,5.404,111.019-24.75
				c8.769-7.961,18.388-16.817,25.679-26.187c24.438-31.406,29.287-71.368-21.124-68.21
				C579.732,348.031,573.716,367.539,566.661,367.984L566.661,367.984z"/>
		</g>
	</g>
	<g>
		<g>
			<path fill="#FFFFFF" d="M473.69,389.287c-46.405-30.454-71.616-120.885-37.676-167.042c-1.657,1.715-3.314,3.429-4.965,5.144
				c1.986-2.015,3.972-4.03,5.958-6.039c-5.15,5.092-10.299,10.178-15.443,15.27c23.503-17.539,46.884-13.024,73.343-4.809
				c4.463,1.386,16.321-21.684,20.414-20.414c-25.269-7.846-53.489-14.433-74.786,6.148c-8.342,8.059-16.69,16.228-24.582,24.721
				c-39.206,42.162-5.467,139.342,37.335,167.434C455.094,410.884,472.235,388.328,473.69,389.287L473.69,389.287z"/>
		</g>
	</g>
	<g>
		<g>
			<path fill="#FFFFFF" d="M499.288,409.695c27.55-18.082,47.467-46.203,60.307-75.993c12.978-30.101,17.932-66.265,6.668-97.4
				c-14.035-38.79-56.843-34.645-88.186-24.911c-8.227,2.552-12.378,17.92-20.414,20.414c43.824-13.607,82.805-6.374,93.537,43.536
				c4.116,19.138-0.843,40.707-5.433,59.245c-3.683,14.878-12.655,45.891-26.072,54.695
				C511.787,394.477,507.122,404.557,499.288,409.695L499.288,409.695z"/>
		</g>
	</g>
	<g>
		<path fill="#FFFFFF" d="M410.104,314.581c19.034,25.529,31.493,53.373,37.151,84.745c-6.114-6.114-12.228-12.228-18.341-18.341
			c21.713-30.402,33.762-64.169,35.095-101.568c5.196,5.242,10.392,10.478,15.588,15.72c-4.209-4.134-6.991,7.904-9.41,11.697
			c-4.209,6.599-9.491,12.435-14.722,18.22c0.058-0.064-16.754-16.355-18.341-18.341c-8.025-10.045-17.81-17.169-28.543-24.247
			c-7.101-4.682-11.304-13.706-18.341-18.341c24.617,16.228,46.815,37.878,65.226,60.925c-6.114-6.114-12.228-12.228-18.341-18.341
			c8.845-9.791,16.194-19.952,22.642-31.464c-0.006,0.006,2.944,2.812,2.748,2.621c8.666,8.51,20.004,15.056,19.554,27.59
			c-1.218,34.056-15.276,66.501-34.824,93.866c0.924-1.287-17.799-15.351-18.341-18.341c-5.658-31.372-18.111-59.216-37.151-84.745
			C396.86,303.07,404.977,307.7,410.104,314.581L410.104,314.581z"/>
	</g>
	<g>
		<path fill="#FFFFFF" d="M548.828,314.581c-19.034,25.529-31.493,53.373-37.151,84.745c6.114-6.114,12.228-12.228,18.341-18.341
			c-21.713-30.402-33.762-64.169-35.095-101.568c-5.196,5.242-10.392,10.478-15.588,15.72c4.209-4.134,6.991,7.904,9.41,11.697
			c4.209,6.599,9.491,12.435,14.722,18.22c-0.058-0.064,16.754-16.355,18.341-18.341c8.025-10.045,17.81-17.169,28.543-24.247
			c7.101-4.682,11.304-13.706,18.341-18.341c-24.617,16.228-46.815,37.878-65.226,60.925c6.114-6.114,12.228-12.228,18.341-18.341
			c-8.845-9.791-16.194-19.952-22.642-31.464c0.006,0.006-2.944,2.812-2.748,2.621c-8.666,8.51-20.004,15.056-19.554,27.59
			c1.218,34.056,15.276,66.501,34.824,93.866c-0.924-1.287,17.799-15.351,18.341-18.341c5.658-31.372,18.111-59.216,37.151-84.745
			C562.072,303.07,553.955,307.7,548.828,314.581L548.828,314.581z"/>
	</g>
	<g>
		<g>
			<path fill="#FFFFFF" d="M463.552,95.789c14.173-15.819-13.504,9.711,4.365-2.228c5.9-3.943,12.765-5.236,19.588-6.351
				c14.375-2.344,25.448,8.204,33.721,18.214c9.179,11.108,12.078,25.881,12.303,39.824c0.11,6.853-2.125,13.48-4.353,19.831
				c-1.645,3.978-3.678,7.742-6.096,11.304c3.574-3.216,2.28-2.621-3.88,1.784c-28.56,17.851-60.849,1.83-73.383-27.169
				c-15.12-34.98,25.939-47.202,50.175-54.303c8.198-2.402,12.412-18.07,20.414-20.414c-35.153,10.317-69.359,31.106-87.874,64.013
				c-14.826,26.349,5.565,50.59,27.763,63.101c21.107,11.893,46.728-5.34,61.513-19.831c30.361-29.761,51.439-65.127,19.19-104.154
				c-30.656-37.099-72.558,12.995-93.185,36.007C448.351,110.36,457.744,102.266,463.552,95.789L463.552,95.789z"/>
		</g>
	</g>
</g>
</svg>
