<?xml version="1.0" encoding="utf-8"?>
<!-- Generator: Adobe Illustrator 18.0.0, SVG Export Plug-In . SVG Version: 6.00 Build 0)  -->
<!DOCTYPE svg PUBLIC "-//W3C//DTD SVG 1.1//EN" "http://www.w3.org/Graphics/SVG/1.1/DTD/svg11.dtd">
<svg version="1.1" id="Layer_1" xmlns="http://www.w3.org/2000/svg" xmlns:xlink="http://www.w3.org/1999/xlink" x="0px" y="0px"
	 viewBox="0 0 92 77" enable-background="new 0 0 92 77" xml:space="preserve">
<g>
	<g>
		<path fill="#5C6670" d="M14.415,36.079c19.35,0,38.7,0,58.05,0c-1.599,0-3.211-1.294-4.83-1.294c-19.35,0-38.7,0-58.05,0
			C11.184,34.785,12.796,36.079,14.415,36.079L14.415,36.079z"/>
	</g>
</g>
<g>
	<g>
		<path fill="#5C6670" d="M14.085,34.603c0,10.078,0,20.157,0,30.235c0,0.468,4.83,0.899,4.83,1.294c0-10.078,0-20.157,0-30.235
			C18.915,35.429,14.085,34.998,14.085,34.603L14.085,34.603z"/>
	</g>
</g>
<g>
	<g>
		<path fill="#5C6670" d="M63.085,34.603c0,10.078,0,20.157,0,30.235c0,0.468,4.83,0.899,4.83,1.294c0-10.078,0-20.157,0-30.235
			C67.915,35.429,63.085,34.998,63.085,34.603L63.085,34.603z"/>
	</g>
</g>
<g>
	<g>
		<path fill="#5C6670" d="M12.415,65.95c21.333,0,42.667,0,64,0c-1.599,0-3.211-1.294-4.83-1.294c-21.333,0-42.667,0-64,0
			C9.184,64.656,10.796,65.95,12.415,65.95L12.415,65.95z"/>
	</g>
</g>
<g>
	<g>
		<path fill="#5C6670" d="M60.074,21.455c2.52,4.401,5.041,8.802,7.561,13.203c0.597,1.042,4.26,0.299,4.83,1.294
			c-2.52-4.401-5.041-8.802-7.561-13.203C64.307,21.707,60.644,22.45,60.074,21.455L60.074,21.455z"/>
	</g>
</g>
<g>
	<g>
		<path fill="#5C6670" d="M16.635,21.455c-2.52,4.401-5.041,8.802-7.561,13.203c0.193-0.338,4.6,1.695,4.83,1.294
			c2.52-4.401,5.041-8.802,7.561-13.203C21.271,23.087,16.865,21.054,16.635,21.455L16.635,21.455z"/>
	</g>
</g>
<g>
	<g>
		<g>
			<path fill="#5C6670" d="M7.75,23c22.667,0,45.333,0,68,0c0.038,0,0.038-5,0-5c-22.667,0-45.333,0-68,0C7.712,18,7.712,23,7.75,23
				L7.75,23z"/>
		</g>
	</g>
	<g>
		<g>
			<path fill="#5C6670" d="M19.415,14.98c15.569,0,31.137,0,46.706,0c-1.599,0-3.211-1.294-4.83-1.294c-15.569,0-31.137,0-46.706,0
				C16.184,13.686,17.796,14.98,19.415,14.98L19.415,14.98z"/>
		</g>
	</g>
	<g>
		<g>
			<path fill="#5C6670" d="M50.353,4.419c-0.761,1.676-1.54,1.665-3.203,1.665c-2.439,0-4.879,0-7.318,0c-0.038,0-0.038,5,0,5
				c1.707,0,3.413,0,5.12,0c0.038,0,0.038-5,0-5c-2.439,0-4.879,0-7.318,0c-1.663,0-2.442,0.011-3.203-1.665
				c0.621,1.367-0.634,3.605,0,5c0.761,1.676,1.54,1.665,3.203,1.665c2.439,0,4.879,0,7.318,0c0.038,0,0.038-5,0-5
				c-1.707,0-3.413,0-5.12,0c-0.038,0-0.038,5,0,5c2.439,0,4.879,0,7.318,0c1.663,0,2.442,0.011,3.203-1.665
				C50.987,8.024,49.732,5.786,50.353,4.419L50.353,4.419z"/>
		</g>
	</g>
	<g>
		<g>
			<path fill="#5C6670" d="M12.184,14.414c5.485-2.79,6.732,5.876,7.94,9.036c-0.551-1.441,0.56-3.534,0-5
				c-1.208-3.16-2.455-11.826-7.94-9.036c-0.197,0.1-0.025,2.286-0.025,2.5C12.159,12.106,12.328,14.341,12.184,14.414
				L12.184,14.414z"/>
		</g>
	</g>
	<g>
		<g>
			<path fill="#5C6670" d="M70.319,9.414c-5.485-2.79-6.732,5.876-7.94,9.036c-0.56,1.466,0.551,3.559,0,5
				c1.208-3.16,2.455-11.826,7.94-9.036c-0.144-0.073,0.025-2.308,0.025-2.5C70.344,11.699,70.516,9.514,70.319,9.414L70.319,9.414z
				"/>
		</g>
	</g>
</g>
<g>
	<g>
		<g>
			<path fill="#5C6670" d="M32.415,45.833c6.942,0,13.883,0,20.825,0c-1.599,0-3.211-1.294-4.83-1.294c-1.375,0-2.75,0-4.126,0
				c1.599,0,3.211,1.294,4.83,1.294c1.375,0,2.75,0,4.126,0c-1.599,0-3.211-1.294-4.83-1.294c-6.942,0-13.883,0-20.825,0
				C29.184,44.539,30.796,45.833,32.415,45.833L32.415,45.833z"/>
		</g>
	</g>
	<g>
		<g>
			<path fill="#5C6670" d="M32.415,56.442c6.942,0,13.883,0,20.825,0c-1.599,0-3.211-1.294-4.83-1.294c-1.375,0-2.75,0-4.126,0
				c1.599,0,3.211,1.294,4.83,1.294c1.375,0,2.75,0,4.126,0c-1.599,0-3.211-1.294-4.83-1.294c-6.942,0-13.883,0-20.825,0
				C29.184,55.148,30.796,56.442,32.415,56.442L32.415,56.442z"/>
		</g>
	</g>
	<g>
		<g>
			<path fill="#5C6670" d="M46.975,41.965c0,5.454,0,10.907,0,16.361c0-0.46,1.414-0.932,1.414-1.414c0-5.454,0-10.907,0-16.361
				C48.389,41.011,46.975,41.483,46.975,41.965L46.975,41.965z"/>
		</g>
	</g>
	<g>
		<g>
			<path fill="#5C6670" d="M39.975,45.457c0,3.833,0,7.667,0,11.5c0-0.46,1.414-0.932,1.414-1.414c0-3.833,0-7.667,0-11.5
				C41.389,44.503,39.975,44.975,39.975,45.457L39.975,45.457z"/>
		</g>
	</g>
	<g>
		<g>
			<path fill="#5C6670" d="M48.582,49.793c-4.583,0-9.166,0-13.749,0c-0.482,0-0.954,1.414-1.414,1.414c4.583,0,9.166,0,13.749,0
				C47.65,51.207,48.122,49.793,48.582,49.793L48.582,49.793z"/>
		</g>
	</g>
	<g>
		<g>
			<path fill="#5C6670" d="M33.419,42.75c0,5.922,0,11.843,0,17.765c0-0.46,1.414-0.932,1.414-1.414c0-5.922,0-11.843,0-17.765
				C34.833,41.796,33.419,42.268,33.419,42.75L33.419,42.75z"/>
		</g>
	</g>
</g>
</svg>
