<?xml version="1.0" encoding="utf-8"?>
<!-- Generator: Adobe Illustrator 18.0.0, SVG Export Plug-In . SVG Version: 6.00 Build 0)  -->
<!DOCTYPE svg PUBLIC "-//W3C//DTD SVG 1.1//EN" "http://www.w3.org/Graphics/SVG/1.1/DTD/svg11.dtd">
<svg version="1.1" id="Layer_1" xmlns="http://www.w3.org/2000/svg" xmlns:xlink="http://www.w3.org/1999/xlink" x="0px" y="0px"
	 viewBox="0 0 91 68" enable-background="new 0 0 91 68" xml:space="preserve">
<g>
	<g>
		<g>
			<path fill="#FFFFFF" d="M25.144,22.607c-1.404,13.027-2.808,26.054-4.211,39.081c-0.031,0.292,4.853,1.076,4.83,1.294
				c1.404-13.027,2.808-26.054,4.211-39.081C30.005,23.609,25.121,22.824,25.144,22.607L25.144,22.607z"/>
		</g>
	</g>
	<g>
		<g>
			<path fill="#FFFFFF" d="M59.839,22.607c1.404,13.027,2.808,26.054,4.211,39.081c0.068,0.633,4.769,0.732,4.83,1.294
				c-1.404-13.027-2.808-26.054-4.211-39.081C64.601,23.268,59.9,23.169,59.839,22.607L59.839,22.607z"/>
		</g>
	</g>
	<g>
		<g>
			<path fill="#FFFFFF" d="M17.257,31.113c20.861,0.653,41.673,2.168,62.408,4.542c-1.631-0.187-3.187-1.106-4.83-1.294
				c-20.735-2.374-41.547-3.889-62.408-4.542C14.04,29.869,15.627,31.062,17.257,31.113L17.257,31.113z"/>
		</g>
	</g>
	<g>
		<g>
			<path fill="#FFFFFF" d="M42.646,22.707c0,3.037,0,6.074,0,9.111c0,0.468,4.83,0.899,4.83,1.294c0-3.037,0-6.074,0-9.111
				C47.475,23.534,42.646,23.102,42.646,22.707L42.646,22.707z"/>
		</g>
	</g>
	<g>
		<g>
			<path fill="#FFFFFF" d="M22.415,16.98c15.569,0,31.137,0,46.706,0c-1.599,0-3.211-1.294-4.83-1.294c-15.569,0-31.137,0-46.706,0
				C19.184,15.686,20.796,16.98,22.415,16.98L22.415,16.98z"/>
		</g>
	</g>
	<g>
		<g>
			<path fill="#FFFFFF" d="M53.353,6.419c-0.761,1.676-1.54,1.665-3.203,1.665c-2.439,0-4.879,0-7.318,0c-0.038,0-0.038,5,0,5
				c1.707,0,3.413,0,5.12,0c0.038,0,0.038-5,0-5c-2.439,0-4.879,0-7.318,0c-1.663,0-2.442,0.011-3.203-1.665
				c0.621,1.367-0.634,3.605,0,5c0.761,1.676,1.54,1.665,3.203,1.665c2.439,0,4.879,0,7.318,0c0.038,0,0.038-5,0-5
				c-1.707,0-3.413,0-5.12,0c-0.038,0-0.038,5,0,5c2.439,0,4.879,0,7.318,0c1.663,0,2.442,0.011,3.203-1.665
				C53.987,10.024,52.732,7.786,53.353,6.419L53.353,6.419z"/>
		</g>
	</g>
	<g>
		<g>
			<path fill="#FFFFFF" d="M10.75,25c22.667,0,45.333,0,68,0c0.038,0,0.038-5,0-5c-22.667,0-45.333,0-68,0
				C10.712,20,10.712,25,10.75,25L10.75,25z"/>
		</g>
	</g>
	<g>
		<g>
			<path fill="#FFFFFF" d="M15.184,16.414c5.485-2.79,6.732,5.876,7.94,9.036c-0.551-1.441,0.56-3.534,0-5
				c-1.208-3.16-2.455-11.826-7.94-9.036c-0.197,0.1-0.025,2.286-0.025,2.5C15.159,14.106,15.328,16.341,15.184,16.414
				L15.184,16.414z"/>
		</g>
	</g>
	<g>
		<g>
			<path fill="#FFFFFF" d="M73.319,11.414c-5.485-2.79-6.732,5.876-7.94,9.036c-0.56,1.466,0.551,3.559,0,5
				c1.208-3.16,2.455-11.826,7.94-9.036c-0.144-0.073,0.025-2.308,0.025-2.5C73.344,13.699,73.516,11.514,73.319,11.414
				L73.319,11.414z"/>
		</g>
	</g>
</g>
</svg>
