<?xml version="1.0" encoding="utf-8"?>
<!-- Generator: Adobe Illustrator 18.0.0, SVG Export Plug-In . SVG Version: 6.00 Build 0)  -->
<!DOCTYPE svg PUBLIC "-//W3C//DTD SVG 1.1//EN" "http://www.w3.org/Graphics/SVG/1.1/DTD/svg11.dtd">
<svg version="1.1" id="Layer_1" xmlns="http://www.w3.org/2000/svg" xmlns:xlink="http://www.w3.org/1999/xlink" x="0px" y="0px"
	 viewBox="0 0 66 97" enable-background="new 0 0 66 97" xml:space="preserve">
<g>
	<g>
		<g>
			<path fill="#5C6670" d="M31.129,80.635c0.151,0,0.303,0,0.454,0c0.083,0,0.517-0.492,0.53-0.505
				c0.421-0.412,0.839-0.828,1.255-1.245c0.417-0.417,0.832-0.834,1.245-1.255c-0.009,0.009,0.457-0.53,0.505-0.53
				c-0.151,0-0.303,0-0.454,0c-0.083,0-0.517,0.492-0.53,0.505c-0.421,0.412-0.839,0.828-1.255,1.245
				c-0.417,0.417-0.832,0.834-1.245,1.255C31.643,80.096,31.177,80.635,31.129,80.635L31.129,80.635z"/>
		</g>
	</g>
	<g>
		<g>
			<path fill="#5C6670" d="M48.011,63.74c10.366-0.648,7.6,10.207,0.341,12.997c-3.367,1.294-7.859,0.569-11.356,0.569
				c-3.548,0-7.096,0-10.644,0c-5.082,0-19.806-8.042-14.109-14.459c-1.159,1.156-2.318,2.312-3.477,3.468
				c2.273-1.508,4.532-1.503,7.192-1.371c1.145,0.057,2.447-3.589,3.536-3.536c-4.399-0.218-6.558,0.687-9.447,3.592
				c-3.276,3.294-2.588,5.903,0.334,9.599c5.339,6.752,13.538,6.243,21.147,6.243c7.186,0,13.477,0.936,19.23-4.287
				c1.519-1.379,3.185-2.913,4.448-4.536c4.233-5.44,5.073-12.362-3.659-11.815C50.275,60.284,49.233,63.663,48.011,63.74
				L48.011,63.74z"/>
		</g>
	</g>
	<g>
		<g>
			<path fill="#5C6670" d="M31.907,67.43c-8.038-5.275-12.405-20.939-6.526-28.934c-0.287,0.297-0.574,0.594-0.86,0.891
				c0.344-0.349,0.688-0.698,1.032-1.046c-0.892,0.882-1.784,1.763-2.675,2.645c4.071-3.038,8.121-2.256,12.704-0.833
				c0.773,0.24,2.827-3.756,3.536-3.536c-4.377-1.359-9.265-2.5-12.954,1.065c-1.445,1.396-2.891,2.811-4.258,4.282
				c-6.791,7.303-0.947,24.136,6.467,29.002C28.686,71.171,31.655,67.264,31.907,67.43L31.907,67.43z"/>
		</g>
	</g>
	<g>
		<g>
			<path fill="#5C6670" d="M36.341,70.965c4.772-3.132,8.222-8.003,10.446-13.163c2.248-5.214,3.106-11.478,1.155-16.871
				c-2.431-6.719-9.846-6.001-15.275-4.315c-1.425,0.442-2.144,3.104-3.536,3.536c7.591-2.357,14.343-1.104,16.202,7.541
				c0.713,3.315-0.146,7.051-0.941,10.262c-0.638,2.577-2.192,7.949-4.516,9.474C38.506,68.329,37.698,70.075,36.341,70.965
				L36.341,70.965z"/>
		</g>
	</g>
	<g>
		<path fill="#5C6670" d="M20.893,54.49c3.297,4.422,5.455,9.245,6.435,14.679c-1.059-1.059-2.118-2.118-3.177-3.177
			c3.761-5.266,5.848-11.115,6.079-17.593c0.9,0.908,1.8,1.815,2.7,2.723c-0.729-0.716-1.211,1.369-1.63,2.026
			c-0.729,1.143-1.644,2.154-2.55,3.156c0.01-0.011-2.902-2.833-3.177-3.177c-1.39-1.74-3.085-2.974-4.944-4.2
			c-1.23-0.811-1.958-2.374-3.177-3.177c4.264,2.811,8.109,6.561,11.298,10.553c-1.059-1.059-2.118-2.118-3.177-3.177
			c1.532-1.696,2.805-3.456,3.922-5.45c-0.001,0.001,0.51,0.487,0.476,0.454c1.501,1.474,3.465,2.608,3.387,4.779
			c-0.211,5.899-2.646,11.519-6.032,16.259c0.16-0.223-3.083-2.659-3.177-3.177c-0.98-5.434-3.137-10.257-6.435-14.679
			C18.599,52.496,20.005,53.298,20.893,54.49L20.893,54.49z"/>
	</g>
	<g>
		<path fill="#5C6670" d="M44.922,54.49c-3.297,4.422-5.455,9.245-6.435,14.679c1.059-1.059,2.118-2.118,3.177-3.177
			c-3.761-5.266-5.848-11.115-6.079-17.593c-0.9,0.908-1.8,1.815-2.7,2.723c0.729-0.716,1.211,1.369,1.63,2.026
			c0.729,1.143,1.644,2.154,2.55,3.156c-0.01-0.011,2.902-2.833,3.177-3.177c1.39-1.74,3.085-2.974,4.944-4.2
			c1.23-0.811,1.958-2.374,3.177-3.177c-4.264,2.811-8.109,6.561-11.298,10.553c1.059-1.059,2.118-2.118,3.177-3.177
			c-1.532-1.696-2.805-3.456-3.922-5.45c0.001,0.001-0.51,0.487-0.476,0.454c-1.501,1.474-3.465,2.608-3.387,4.779
			c0.211,5.899,2.646,11.519,6.032,16.259c-0.16-0.223,3.083-2.659,3.177-3.177c0.98-5.434,3.137-10.257,6.435-14.679
			C47.216,52.496,45.81,53.298,44.922,54.49L44.922,54.49z"/>
	</g>
	<g>
		<g>
			<path fill="#5C6670" d="M30.151,16.592c2.455-2.74-2.339,1.682,0.756-0.386c1.022-0.683,2.211-0.907,3.393-1.1
				c2.49-0.406,4.408,1.421,5.841,3.155c1.59,1.924,2.092,4.483,2.131,6.898c0.019,1.187-0.368,2.335-0.754,3.435
				c-0.285,0.689-0.637,1.341-1.056,1.958c0.619-0.557,0.395-0.454-0.672,0.309c-4.947,3.092-10.54,0.317-12.711-4.706
				c-2.619-6.059,4.493-8.176,8.691-9.406c1.42-0.416,2.15-3.13,3.536-3.536C33.217,15,27.292,18.601,24.085,24.301
				c-2.568,4.564,0.964,8.763,4.809,10.93c3.656,2.06,8.094-0.925,10.655-3.435c5.259-5.155,8.91-11.281,3.324-18.041
				c-5.31-6.426-12.568,2.251-16.141,6.237C27.518,19.116,29.145,17.714,30.151,16.592L30.151,16.592z"/>
		</g>
	</g>
</g>
</svg>
