<?xml version="1.0" encoding="utf-8"?>
<!-- Generator: Adobe Illustrator 18.0.0, SVG Export Plug-In . SVG Version: 6.00 Build 0)  -->
<!DOCTYPE svg PUBLIC "-//W3C//DTD SVG 1.1//EN" "http://www.w3.org/Graphics/SVG/1.1/DTD/svg11.dtd">
<svg version="1.1" id="Layer_1" xmlns="http://www.w3.org/2000/svg" xmlns:xlink="http://www.w3.org/1999/xlink" x="0px" y="0px"
	 viewBox="0 0 145 86" enable-background="new 0 0 145 86" xml:space="preserve">
<g>
	<g>
		<g>
			<path fill="#5C6670" d="M74.129,74.635c0.151,0,0.303,0,0.454,0c0.083,0,0.517-0.492,0.53-0.505
				c0.421-0.412,0.839-0.828,1.255-1.245s0.832-0.834,1.245-1.255c-0.009,0.009,0.457-0.53,0.505-0.53c-0.151,0-0.303,0-0.454,0
				c-0.083,0-0.517,0.492-0.53,0.505c-0.421,0.412-0.839,0.828-1.255,1.245s-0.832,0.834-1.245,1.255
				C74.643,74.096,74.177,74.635,74.129,74.635L74.129,74.635z"/>
		</g>
	</g>
	<g>
		<g>
			<path fill="#5C6670" d="M91.011,57.74c10.366-0.648,7.6,10.207,0.341,12.997c-3.367,1.294-7.859,0.569-11.356,0.569
				c-3.548,0-7.096,0-10.644,0c-5.082,0-19.806-8.042-14.109-14.459c-1.159,1.156-2.318,2.312-3.477,3.468
				c2.273-1.508,4.532-1.503,7.192-1.371c1.145,0.057,2.447-3.589,3.536-3.536c-4.399-0.218-6.558,0.687-9.447,3.592
				c-3.276,3.294-2.588,5.903,0.334,9.599c5.339,6.752,13.538,6.243,21.147,6.243c7.186,0,13.477,0.936,19.23-4.287
				c1.519-1.379,3.185-2.913,4.448-4.536c4.233-5.44,5.073-12.362-3.659-11.815C93.275,54.284,92.233,57.663,91.011,57.74
				L91.011,57.74z"/>
		</g>
	</g>
	<g>
		<g>
			<path fill="#5C6670" d="M74.907,61.43c-8.038-5.275-12.405-20.939-6.526-28.934c-0.287,0.297-0.574,0.594-0.86,0.891
				c0.344-0.349,0.688-0.698,1.032-1.046c-0.892,0.882-1.784,1.763-2.675,2.645c4.071-3.038,8.121-2.256,12.704-0.833
				c0.773,0.24,2.827-3.756,3.536-3.536c-4.377-1.359-9.265-2.5-12.954,1.065c-1.445,1.396-2.891,2.811-4.258,4.282
				c-6.791,7.303-0.947,24.136,6.467,29.002C71.686,65.171,74.655,61.264,74.907,61.43L74.907,61.43z"/>
		</g>
	</g>
	<g>
		<g>
			<path fill="#5C6670" d="M79.341,64.965c4.772-3.132,8.222-8.003,10.446-13.163c2.248-5.214,3.106-11.478,1.155-16.871
				c-2.431-6.719-9.846-6.001-15.275-4.315c-1.425,0.442-2.144,3.104-3.536,3.536c7.591-2.357,14.343-1.104,16.202,7.541
				c0.713,3.315-0.146,7.051-0.941,10.262c-0.638,2.577-2.192,7.949-4.516,9.474C81.506,62.329,80.698,64.075,79.341,64.965
				L79.341,64.965z"/>
		</g>
	</g>
	<g>
		<path fill="#5C6670" d="M63.893,48.49c3.297,4.422,5.455,9.245,6.435,14.679c-1.059-1.059-2.118-2.118-3.177-3.177
			c3.761-5.266,5.848-11.115,6.079-17.593c0.9,0.908,1.8,1.815,2.7,2.723c-0.729-0.716-1.211,1.369-1.63,2.026
			c-0.729,1.143-1.644,2.154-2.55,3.156c0.01-0.011-2.902-2.833-3.177-3.177c-1.39-1.74-3.085-2.974-4.944-4.2
			c-1.23-0.811-1.958-2.374-3.177-3.177c4.264,2.811,8.109,6.561,11.298,10.553c-1.059-1.059-2.118-2.118-3.177-3.177
			c1.532-1.696,2.805-3.456,3.922-5.45c-0.001,0.001,0.51,0.487,0.476,0.454c1.501,1.474,3.465,2.608,3.387,4.779
			c-0.211,5.899-2.646,11.519-6.032,16.259c0.16-0.223-3.083-2.659-3.177-3.177c-0.98-5.434-3.137-10.257-6.435-14.679
			C61.599,46.496,63.005,47.298,63.893,48.49L63.893,48.49z"/>
	</g>
	<g>
		<path fill="#5C6670" d="M87.922,48.49c-3.297,4.422-5.455,9.245-6.435,14.679c1.059-1.059,2.118-2.118,3.177-3.177
			c-3.761-5.266-5.848-11.115-6.079-17.593c-0.9,0.908-1.8,1.815-2.7,2.723c0.729-0.716,1.211,1.369,1.63,2.026
			c0.729,1.143,1.644,2.154,2.55,3.156c-0.01-0.011,2.902-2.833,3.177-3.177c1.39-1.74,3.085-2.974,4.944-4.2
			c1.23-0.811,1.958-2.374,3.177-3.177c-4.264,2.811-8.109,6.561-11.298,10.553c1.059-1.059,2.118-2.118,3.177-3.177
			c-1.532-1.696-2.805-3.456-3.922-5.45c0.001,0.001-0.51,0.487-0.476,0.454c-1.501,1.474-3.465,2.608-3.387,4.779
			c0.211,5.899,2.646,11.519,6.032,16.259c-0.16-0.223,3.083-2.659,3.177-3.177c0.98-5.434,3.137-10.257,6.435-14.679
			C90.216,46.496,88.81,47.298,87.922,48.49L87.922,48.49z"/>
	</g>
	<g>
		<g>
			<path fill="#5C6670" d="M73.151,10.592c2.455-2.74-2.339,1.682,0.756-0.386c1.022-0.683,2.211-0.907,3.393-1.1
				c2.49-0.406,4.408,1.421,5.841,3.155c1.59,1.924,2.092,4.483,2.131,6.898c0.019,1.187-0.368,2.335-0.754,3.435
				c-0.285,0.689-0.637,1.341-1.056,1.958c0.619-0.557,0.395-0.454-0.672,0.309c-4.947,3.092-10.54,0.317-12.711-4.706
				c-2.619-6.059,4.493-8.176,8.691-9.406c1.42-0.416,2.15-3.13,3.536-3.536C76.217,9,70.292,12.601,67.085,18.301
				c-2.568,4.564,0.964,8.763,4.809,10.93c3.656,2.06,8.094-0.925,10.655-3.435c5.259-5.155,8.91-11.281,3.324-18.041
				c-5.31-6.426-12.568,2.251-16.141,6.237C70.518,13.116,72.145,11.714,73.151,10.592L73.151,10.592z"/>
		</g>
	</g>
</g>
<g>
	<g>
		<g>
			<path fill="#5C6670" d="M117.213,74.695c0.108,0,0.215,0,0.323,0c0.083,0,0.517-0.492,0.53-0.505
				c0.421-0.412,0.839-0.828,1.255-1.245c0.417-0.417,0.832-0.834,1.245-1.255c-0.009,0.009,0.457-0.53,0.505-0.53
				c-0.108,0-0.215,0-0.323,0c-0.083,0-0.517,0.492-0.53,0.505c-0.421,0.412-0.839,0.828-1.255,1.245s-0.832,0.834-1.245,1.255
				C117.727,74.156,117.261,74.695,117.213,74.695L117.213,74.695z"/>
		</g>
	</g>
	<g>
		<g>
			<path fill="#5C6670" d="M129.217,62.681c7.052-0.305,5.218,5.65,1.719,9.321c1.159-1.156,2.318-2.312,3.477-3.468
				c-4.611,3.83-10.387,2.771-16.006,2.771c-2.298,0-4.235,0.002-6.491-0.583c-3.393-0.879-9.406-5.322-7.46-9.345
				c-1.179,1.179-2.357,2.357-3.536,3.536c1.695-1.453,3.323-1.451,5.506-1.376c1.164,0.04,2.427-3.573,3.536-3.536
				c-3.17-0.109-4.733,0.579-6.821,2.657c-1.708,1.698-3.241,2.688-2.266,5.326c2.595,7.025,10.772,6.857,16.818,6.857
				c5.137,0,9.706,0.653,13.715-3.276c3.377-3.31,11.416-12.855,1.345-12.42C131.5,59.2,130.418,62.629,129.217,62.681
				L129.217,62.681z"/>
		</g>
	</g>
	<g>
		<g>
			<path fill="#5C6670" d="M118.788,64.284c-5.781-3.949-8.953-15.169-4.361-20.883c-1.156,1.159-2.312,2.318-3.468,3.477
				c2.975-2.598,5.923-2.037,9.419-0.968c0.78,0.238,2.82-3.754,3.536-3.536c-6.185-1.891-9.019,0.251-12.964,4.494
				c-5.031,5.411-1.227,17.174,4.302,20.951C115.538,68.014,118.564,64.131,118.788,64.284L118.788,64.284z"/>
		</g>
	</g>
	<g>
		<g>
			<path fill="#5C6670" d="M120.919,67.819c3.443-2.352,6.3-5.822,8.095-9.542c1.892-3.92,2.592-8.696,1.175-12.836
				c-1.646-4.811-7.067-4.228-10.861-3.068c-1.424,0.435-2.146,3.111-3.536,3.536c14.319-4.379,13.13,12.587,6.964,20.41
				c1.095-1.101,2.19-2.202,3.285-3.303c-0.529,0.423-1.058,0.845-1.587,1.268C123.097,65.211,122.265,66.9,120.919,67.819
				L120.919,67.819z"/>
		</g>
	</g>
	<g>
		<path fill="#5C6670" d="M110.446,55.593c2.345,3.144,3.879,6.574,4.575,10.438c-0.753-0.753-1.506-1.506-2.259-2.259
			c2.675-3.744,4.158-7.904,4.323-12.51c0.64,0.645,1.28,1.291,1.92,1.936c-0.519-0.509-0.861,0.974-1.159,1.441
			c-0.518,0.813-1.169,1.532-1.813,2.244c0.007-0.008-2.063-2.014-2.259-2.259c-0.988-1.237-2.194-2.115-3.516-2.986
			c-0.874-0.576-1.392-1.688-2.259-2.259c3.032,1.999,5.766,4.665,8.033,7.504c-0.753-0.753-1.506-1.506-2.259-2.259
			c1.089-1.206,1.995-2.457,2.789-3.875c0,0.001,0.363,0.347,0.339,0.323c1.067,1.048,2.463,1.855,2.408,3.398
			c-0.15,4.195-1.881,8.191-4.289,11.561c0.114-0.159-2.192-1.891-2.259-2.259c-0.697-3.864-2.231-7.293-4.575-10.438
			C108.814,54.176,109.814,54.746,110.446,55.593L110.446,55.593z"/>
	</g>
	<g>
		<path fill="#5C6670" d="M127.531,55.593c-2.345,3.144-3.879,6.574-4.575,10.438c0.753-0.753,1.506-1.506,2.259-2.259
			c-2.675-3.744-4.158-7.904-4.323-12.51c-0.64,0.645-1.28,1.291-1.92,1.936c0.519-0.509,0.861,0.974,1.159,1.441
			c0.518,0.813,1.169,1.532,1.813,2.244c-0.007-0.008,2.063-2.014,2.259-2.259c0.988-1.237,2.194-2.115,3.516-2.986
			c0.874-0.576,1.392-1.688,2.259-2.259c-3.032,1.999-5.766,4.665-8.033,7.504c0.753-0.753,1.506-1.506,2.259-2.259
			c-1.089-1.206-1.995-2.457-2.789-3.875c0,0.001-0.363,0.347-0.339,0.323c-1.067,1.048-2.463,1.855-2.408,3.398
			c0.15,4.195,1.881,8.191,4.289,11.561c-0.114-0.159,2.192-1.891,2.259-2.259c0.697-3.864,2.231-7.293,4.575-10.438
			C129.162,54.176,128.163,54.746,127.531,55.593L127.531,55.593z"/>
	</g>
	<g>
		<g>
			<path fill="#5C6670" d="M117.522,28.155c2.05-2.287-3.042,2.448-0.467,0.727c0.726-0.485,1.572-0.645,2.412-0.782
				c1.771-0.289,3.134,1.011,4.153,2.243c1.13,1.368,1.488,3.187,1.516,4.905c0.014,0.844-0.262,1.66-0.536,2.443
				c-0.203,0.49-0.453,0.954-0.751,1.393c1.527-1.335,1.708-1.602,0.544-0.802c-3.517,2.198-7.494,0.225-9.038-3.346
				c-0.646-1.495,0.057-3.251,0.788-4.55c-0.334,0.366-0.668,0.732-1.001,1.098c0.539-0.344,1.099-0.649,1.681-0.913
				c1.164-0.58,2.447-0.937,3.69-1.301c1.42-0.416,2.15-3.13,3.536-3.536c-4.704,1.378-9.372,4.511-11.844,8.904
				c-1.826,3.246,0.685,6.231,3.419,7.772c2.689,1.515,5.867-0.764,7.729-2.589c1.393-1.365,2.86-2.708,4.031-4.273
				c2.189-2.923,1.367-6.809-0.799-9.431c-4.026-4.872-9.878,2.532-12.482,5.437C114.889,30.679,116.517,29.277,117.522,28.155
				L117.522,28.155z"/>
		</g>
	</g>
</g>
<g>
	<g>
		<g>
			<path fill="#5C6670" d="M29.176,74.695c0.108,0,0.215,0,0.323,0c0.083,0,0.517-0.492,0.53-0.505
				c0.421-0.412,0.839-0.828,1.255-1.245c0.417-0.417,0.832-0.834,1.245-1.255c-0.009,0.009,0.457-0.53,0.505-0.53
				c-0.108,0-0.215,0-0.323,0c-0.083,0-0.517,0.492-0.53,0.505c-0.421,0.412-0.839,0.828-1.255,1.245
				c-0.417,0.417-0.832,0.834-1.245,1.255C29.691,74.156,29.224,74.695,29.176,74.695L29.176,74.695z"/>
		</g>
	</g>
	<g>
		<g>
			<path fill="#5C6670" d="M41.18,62.681c7.052-0.305,5.218,5.65,1.719,9.321c1.159-1.156,2.318-2.312,3.477-3.468
				c-4.611,3.83-10.387,2.771-16.006,2.771c-2.298,0-4.235,0.002-6.491-0.583c-3.393-0.879-9.406-5.322-7.46-9.345
				c-1.179,1.179-2.357,2.357-3.536,3.536c1.695-1.453,3.323-1.451,5.506-1.376c1.164,0.04,2.427-3.573,3.536-3.536
				c-3.17-0.109-4.733,0.579-6.821,2.657c-1.708,1.698-3.241,2.688-2.266,5.326c2.595,7.025,10.772,6.857,16.818,6.857
				c5.137,0,9.706,0.653,13.715-3.276c3.377-3.31,11.416-12.855,1.345-12.42C43.464,59.2,42.381,62.629,41.18,62.681L41.18,62.681z"
				/>
		</g>
	</g>
	<g>
		<g>
			<path fill="#5C6670" d="M30.751,64.284c-5.781-3.949-8.953-15.169-4.361-20.883c-1.156,1.159-2.312,2.318-3.468,3.477
				c2.975-2.598,5.923-2.037,9.419-0.968c0.78,0.238,2.82-3.754,3.536-3.536c-6.185-1.891-9.019,0.251-12.964,4.494
				c-5.031,5.411-1.227,17.174,4.302,20.951C27.501,68.014,30.528,64.131,30.751,64.284L30.751,64.284z"/>
		</g>
	</g>
	<g>
		<g>
			<path fill="#5C6670" d="M32.882,67.819c3.443-2.352,6.3-5.822,8.095-9.542c1.892-3.92,2.592-8.696,1.175-12.836
				c-1.646-4.811-7.067-4.228-10.861-3.068c-1.424,0.435-2.146,3.111-3.536,3.536c14.319-4.379,13.13,12.587,6.964,20.41
				c1.095-1.101,2.19-2.202,3.285-3.303c-0.529,0.423-1.058,0.845-1.587,1.268C35.06,65.211,34.228,66.9,32.882,67.819
				L32.882,67.819z"/>
		</g>
	</g>
	<g>
		<path fill="#5C6670" d="M22.409,55.593c2.345,3.144,3.879,6.574,4.575,10.438c-0.753-0.753-1.506-1.506-2.259-2.259
			c2.675-3.744,4.158-7.904,4.323-12.51c0.64,0.645,1.28,1.291,1.92,1.936c-0.519-0.509-0.861,0.974-1.159,1.441
			c-0.518,0.813-1.169,1.532-1.813,2.244c0.007-0.008-2.063-2.014-2.259-2.259c-0.988-1.237-2.194-2.115-3.516-2.986
			c-0.874-0.576-1.392-1.688-2.259-2.259c3.032,1.999,5.766,4.665,8.033,7.504c-0.753-0.753-1.506-1.506-2.259-2.259
			c1.089-1.206,1.995-2.457,2.789-3.875c0,0.001,0.363,0.347,0.339,0.323c1.067,1.048,2.463,1.855,2.408,3.398
			c-0.15,4.195-1.881,8.191-4.289,11.561c0.114-0.159-2.192-1.891-2.259-2.259c-0.697-3.864-2.231-7.293-4.575-10.438
			C20.778,54.176,21.777,54.746,22.409,55.593L22.409,55.593z"/>
	</g>
	<g>
		<path fill="#5C6670" d="M39.494,55.593c-2.345,3.144-3.879,6.574-4.575,10.438c0.753-0.753,1.506-1.506,2.259-2.259
			c-2.675-3.744-4.158-7.904-4.323-12.51c-0.64,0.645-1.28,1.291-1.92,1.936c0.519-0.509,0.861,0.974,1.159,1.441
			c0.518,0.813,1.169,1.532,1.813,2.244c-0.007-0.008,2.063-2.014,2.259-2.259c0.988-1.237,2.194-2.115,3.516-2.986
			c0.874-0.576,1.392-1.688,2.259-2.259c-3.032,1.999-5.766,4.665-8.033,7.504c0.753-0.753,1.506-1.506,2.259-2.259
			c-1.089-1.206-1.995-2.457-2.789-3.875c0,0.001-0.363,0.347-0.339,0.323c-1.067,1.048-2.463,1.855-2.408,3.398
			c0.15,4.195,1.881,8.191,4.289,11.561c-0.114-0.159,2.192-1.891,2.259-2.259c0.697-3.864,2.231-7.293,4.575-10.438
			C41.126,54.176,40.126,54.746,39.494,55.593L39.494,55.593z"/>
	</g>
	<g>
		<g>
			<path fill="#5C6670" d="M29.486,28.155c2.05-2.287-3.042,2.448-0.467,0.727c0.726-0.485,1.572-0.645,2.412-0.782
				c1.771-0.289,3.134,1.011,4.153,2.243c1.13,1.368,1.488,3.187,1.516,4.905c0.014,0.844-0.262,1.66-0.536,2.443
				c-0.203,0.49-0.453,0.954-0.751,1.393c1.527-1.335,1.708-1.602,0.544-0.802c-3.517,2.198-7.494,0.225-9.038-3.346
				c-0.646-1.495,0.057-3.251,0.788-4.55c-0.334,0.366-0.668,0.732-1.001,1.098c0.539-0.344,1.099-0.649,1.681-0.913
				c1.164-0.58,2.447-0.937,3.69-1.301c1.42-0.416,2.15-3.13,3.536-3.536c-4.704,1.378-9.372,4.511-11.844,8.904
				c-1.826,3.246,0.685,6.231,3.419,7.772c2.689,1.515,5.867-0.764,7.729-2.589c1.393-1.365,2.86-2.708,4.031-4.273
				c2.189-2.923,1.367-6.809-0.799-9.431c-4.026-4.872-9.878,2.532-12.482,5.437C26.852,30.679,28.48,29.277,29.486,28.155
				L29.486,28.155z"/>
		</g>
	</g>
</g>
</svg>
