<?xml version="1.0" encoding="utf-8"?>
<!-- Generator: Adobe Illustrator 18.0.0, SVG Export Plug-In . SVG Version: 6.00 Build 0)  -->
<!DOCTYPE svg PUBLIC "-//W3C//DTD SVG 1.1//EN" "http://www.w3.org/Graphics/SVG/1.1/DTD/svg11.dtd">
<svg version="1.1" id="Layer_1" xmlns="http://www.w3.org/2000/svg" xmlns:xlink="http://www.w3.org/1999/xlink" x="0px" y="0px"
	 viewBox="0 0 100 100" enable-background="new 0 0 100 100" xml:space="preserve">
<g>
	<circle fill="none" stroke="#FFFFFF" stroke-miterlimit="10" cx="49.414" cy="50.276" r="33"/>
	<g>
		<g>
			<g>
				<path fill="#FFFFFF" d="M47.612,58.429c-8.333-4.51-4.007-16.765,2.062-21.066c1.564-1.109,0.068-3.712-1.514-2.59
					c-7.85,5.564-12.496,20.599-2.062,26.247C47.8,61.94,49.314,59.35,47.612,58.429L47.612,58.429z"/>
			</g>
			<g>
				<path fill="#FFFFFF" d="M52.288,61.019c10.434-5.647,5.789-20.683-2.062-26.247c-1.582-1.121-3.079,1.482-1.514,2.59
					c6.068,4.301,10.394,16.556,2.062,21.066C49.072,59.35,50.586,61.94,52.288,61.019L52.288,61.019z"/>
			</g>
		</g>
		<g>
			<path fill="#FFFFFF" d="M51,64c0,0,0-15,0-22c0-2-3-2-3,0c0,7,0,15,0,22C48,66,51,66,51,64C51,64,51,66,51,64z"/>
		</g>
		<g>
			<g>
				<path fill="#FFFFFF" d="M51.398,44.689c-0.625,0.625-1.25,1.25-1.875,1.875c-0.578,0.578-0.578,1.543,0,2.121
					c0.578,0.578,1.543,0.578,2.121,0c0.625-0.625,1.25-1.25,1.875-1.875c0.578-0.578,0.578-1.543,0-2.121
					C52.941,44.111,51.976,44.111,51.398,44.689L51.398,44.689z"/>
			</g>
			<g>
				<path fill="#FFFFFF" d="M51.398,49.689c-0.625,0.625-1.25,1.25-1.875,1.875c-0.578,0.578-0.578,1.543,0,2.121
					c0.578,0.578,1.543,0.578,2.121,0c0.625-0.625,1.25-1.25,1.875-1.875c0.578-0.578,0.578-1.543,0-2.121
					C52.941,49.111,51.976,49.111,51.398,49.689L51.398,49.689z"/>
			</g>
		</g>
		<g>
			<g>
				<path fill="#FFFFFF" d="M45.523,46.811c0.625,0.625,1.25,1.25,1.875,1.875c0.578,0.578,1.543,0.578,2.121,0
					c0.578-0.578,0.578-1.543,0-2.121c-0.625-0.625-1.25-1.25-1.875-1.875c-0.578-0.578-1.543-0.578-2.121,0
					C44.945,45.267,44.945,46.233,45.523,46.811L45.523,46.811z"/>
			</g>
			<g>
				<path fill="#FFFFFF" d="M45.523,51.811c0.625,0.625,1.25,1.25,1.875,1.875c0.578,0.578,1.543,0.578,2.121,0
					c0.578-0.578,0.578-1.543,0-2.121c-0.625-0.625-1.25-1.25-1.875-1.875c-0.578-0.578-1.543-0.578-2.121,0
					C44.945,50.267,44.945,51.233,45.523,51.811L45.523,51.811z"/>
			</g>
		</g>
	</g>
</g>
</svg>
