<?xml version="1.0" encoding="utf-8"?>
<!-- Generator: Adobe Illustrator 18.0.0, SVG Export Plug-In . SVG Version: 6.00 Build 0)  -->
<!DOCTYPE svg PUBLIC "-//W3C//DTD SVG 1.1//EN" "http://www.w3.org/Graphics/SVG/1.1/DTD/svg11.dtd">
<svg version="1.1" id="Layer_1" xmlns="http://www.w3.org/2000/svg" xmlns:xlink="http://www.w3.org/1999/xlink" x="0px" y="0px"
	 viewBox="0 0 69 69" enable-background="new 0 0 69 69" xml:space="preserve">
<g>
	<circle fill="none" stroke="#5C6670" stroke-miterlimit="10" cx="34.414" cy="34.618" r="33"/>
	<g>
		<path fill="#5C6670" d="M20.216,46.431c-0.206,0-0.415-0.037-0.618-0.113c-0.911-0.342-1.372-1.357-1.031-2.268l8.385-22.354
			c0.674-1.784,2.158-2.89,3.874-2.89c1.736,0,3.295,1.175,3.888,2.927l3.017,8.306c0.246-0.469,0.452-0.857,0.568-1.061
			c0.817-1.435,1.876-2.162,3.148-2.162c1.391,0,2.735,0.994,3.268,2.416l5.546,14.798c0.342,0.911-0.12,1.926-1.031,2.268
			c-0.911,0.342-1.927-0.12-2.268-1.031L41.57,30.883c-0.061-0.176-0.205-0.153-0.305,0.012c-0.357,0.59-1.707,3.286-2.242,4.337
			c-0.318,0.625-0.977,1.002-1.678,0.96c-0.701-0.042-1.309-0.497-1.549-1.157l-4.403-12.119c-0.005-0.016-0.011-0.031-0.016-0.047
			c-0.142-0.426-0.414-0.54-0.552-0.54c-0.211,0-0.437,0.239-0.577,0.608l-8.384,22.349C21.6,45.993,20.929,46.431,20.216,46.431z"
			/>
	</g>
</g>
</svg>
