<?xml version="1.0" encoding="utf-8"?>
<!-- Generator: Adobe Illustrator 18.0.0, SVG Export Plug-In . SVG Version: 6.00 Build 0)  -->
<!DOCTYPE svg PUBLIC "-//W3C//DTD SVG 1.1//EN" "http://www.w3.org/Graphics/SVG/1.1/DTD/svg11.dtd">
<svg version="1.1" id="Layer_1" xmlns="http://www.w3.org/2000/svg" xmlns:xlink="http://www.w3.org/1999/xlink" x="0px" y="0px"
	 viewBox="0 0 69 69" enable-background="new 0 0 69 69" xml:space="preserve">
<g>
	<circle fill="none" stroke="#5C6670" stroke-miterlimit="10" cx="34.468" cy="34.618" r="33"/>
	<path fill="#5C6670" d="M21.24,26.612c-0.2-0.404-0.506-0.672-0.918-0.806c-0.406-0.143-0.808-0.119-1.206,0.071
		c-0.404,0.2-0.672,0.506-0.806,0.918c-0.134,0.412-0.105,0.817,0.085,1.215l2.797,5.69c0.004,0.055,0.035,0.14,0.092,0.255
		c0.064,0.146,0.153,0.334,0.267,0.565c0.401,0.376,0.717,0.69,0.948,0.943l5.068,4.572c0.584,0.663,0.871,1.431,0.861,2.303
		l-0.148,3.661c-0.005,0.783,0.265,1.455,0.81,2.015c0.539,0.569,1.205,0.859,1.998,0.87c0.548,0.01,1.038-0.121,1.471-0.392
		c0.13-0.072,0.251-0.158,0.363-0.259c0.061-0.044,0.118-0.093,0.172-0.145c0.28-0.273,0.494-0.575,0.641-0.906
		c0.143-0.334,0.219-0.698,0.229-1.092l0.368-7.984c0.031-0.885-0.234-1.861-0.794-2.929c-0.614-1.168-1.769-2.257-3.467-3.268
		l-1.636-0.913c-0.04,0.001-0.078-0.011-0.115-0.035l-2.505-1.55c-0.306-0.197-0.645-0.251-1.017-0.162
		c-0.357,0.086-0.633,0.282-0.83,0.588c-0.203,0.316-0.257,0.655-0.162,1.017l-0.009,0.014c0.086,0.357,0.286,0.636,0.602,0.839
		l2.491,1.541c0.056,0.036,0.095,0.087,0.117,0.154c0.013,0.061-0.001,0.124-0.043,0.189c-0.03,0.046-0.078,0.081-0.145,0.103
		c-0.061,0.013-0.119,0.002-0.175-0.034l-2.519-1.559c-0.032-0.073-0.062-0.138-0.091-0.196L21.24,26.612"/>
	<path fill="#5C6670" d="M48.463,26.612c0.2-0.404,0.506-0.672,0.918-0.806c0.406-0.143,0.808-0.119,1.206,0.071
		c0.404,0.2,0.672,0.506,0.806,0.918c0.134,0.412,0.105,0.817-0.085,1.215l-2.797,5.69c-0.004,0.055-0.035,0.14-0.092,0.255
		c-0.064,0.146-0.153,0.334-0.267,0.565c-0.401,0.376-0.717,0.69-0.948,0.943l-5.068,4.572c-0.584,0.663-0.871,1.431-0.861,2.303
		l0.148,3.661c0.005,0.783-0.265,1.455-0.81,2.015c-0.539,0.569-1.205,0.859-1.998,0.87c-0.548,0.01-1.038-0.121-1.471-0.392
		c-0.13-0.072-0.251-0.158-0.363-0.259c-0.061-0.044-0.118-0.093-0.172-0.145c-0.28-0.273-0.494-0.575-0.641-0.906
		c-0.143-0.334-0.219-0.698-0.229-1.092l-0.368-7.984c-0.031-0.885,0.234-1.861,0.794-2.929c0.614-1.168,1.769-2.257,3.467-3.268
		l1.636-0.913c0.04,0.001,0.078-0.011,0.115-0.035l2.505-1.55c0.306-0.197,0.645-0.251,1.017-0.162
		c0.357,0.086,0.633,0.282,0.83,0.588c0.203,0.316,0.257,0.655,0.162,1.017l0.009,0.014c-0.086,0.357-0.286,0.636-0.602,0.839
		l-2.491,1.541c-0.056,0.036-0.095,0.087-0.117,0.154c-0.013,0.061,0.001,0.124,0.043,0.189c0.03,0.046,0.078,0.081,0.145,0.103
		c0.061,0.013,0.119,0.002,0.175-0.034l2.519-1.559c0.032-0.073,0.062-0.138,0.091-0.196L48.463,26.612"/>
</g>
</svg>
