<?xml version="1.0" encoding="utf-8"?>
<!-- Generator: Adobe Illustrator 18.0.0, SVG Export Plug-In . SVG Version: 6.00 Build 0)  -->
<!DOCTYPE svg PUBLIC "-//W3C//DTD SVG 1.1//EN" "http://www.w3.org/Graphics/SVG/1.1/DTD/svg11.dtd">
<svg version="1.1" id="Layer_1" xmlns="http://www.w3.org/2000/svg" xmlns:xlink="http://www.w3.org/1999/xlink" x="0px" y="0px"
	 viewBox="0 0 30 17.906" enable-background="new 0 0 30 17.906" xml:space="preserve">
<ellipse fill="none" stroke="#FFFFFF" stroke-miterlimit="10" cx="14.395" cy="14.93" rx="12.452" ry="1.607"/>
<g>
	<g>
		<g>
			<path fill="#FFFFFF" d="M15.389,10.844c-2.087-0.132-2.394-2.159-2.195-3.893c0.266-2.314,2.072-4.573,3.643-6.148
				c0.994-0.996,0.043-0.072-0.39,0.362c-1.488,1.493-2.86,3.016-3.875,4.884c-1.026,1.887-1.685,6.014,1.402,6.209
				C14.426,12.287,14.961,10.817,15.389,10.844L15.389,10.844z"/>
		</g>
	</g>
	<g>
		<g>
			<path fill="#FFFFFF" d="M9.389,10.844c-2.087-0.132-2.394-2.159-2.195-3.893c0.266-2.314,2.072-4.573,3.643-6.148
				c0.994-0.996,0.043-0.072-0.39,0.362C8.96,2.658,7.588,4.182,6.573,6.049c-1.026,1.887-1.685,6.014,1.402,6.209
				C8.426,12.287,8.961,10.817,9.389,10.844L9.389,10.844z"/>
		</g>
	</g>
	<g>
		<g>
			<path fill="#FFFFFF" d="M22.389,10.844c-2.087-0.132-2.394-2.159-2.195-3.893c0.266-2.314,2.072-4.573,3.643-6.148
				c0.994-0.996,0.043-0.072-0.39,0.362c-1.488,1.493-2.86,3.016-3.875,4.884c-1.026,1.887-1.685,6.014,1.402,6.209
				C21.426,12.287,21.961,10.817,22.389,10.844L22.389,10.844z"/>
		</g>
	</g>
</g>
</svg>
