<?xml version="1.0" encoding="utf-8"?>
<!-- Generator: Adobe Illustrator 18.0.0, SVG Export Plug-In . SVG Version: 6.00 Build 0)  -->
<!DOCTYPE svg PUBLIC "-//W3C//DTD SVG 1.1//EN" "http://www.w3.org/Graphics/SVG/1.1/DTD/svg11.dtd">
<svg version="1.1" id="Layer_1" xmlns="http://www.w3.org/2000/svg" xmlns:xlink="http://www.w3.org/1999/xlink" x="0px" y="0px"
	 viewBox="0 0 69 69" enable-background="new 0 0 69 69" xml:space="preserve">
<g>
	<g>
		<g>
			<path fill="#FFFFFF" d="M45.081,33.388c-0.335-3.01-0.812-5.992-1.419-8.959c-0.388-1.895-3.28-1.091-2.893,0.798
				c0.554,2.704,1.007,5.417,1.312,8.161C42.293,35.289,45.295,35.309,45.081,33.388L45.081,33.388z"/>
		</g>
	</g>
	<g>
		<g>
			<path fill="#FFFFFF" d="M27.205,31.903c0.248,1.375,0.495,2.751,0.743,4.126c0.145,0.805,1.112,1.249,1.845,1.048
				c0.841-0.231,1.192-1.041,1.048-1.845c-0.248-1.375-0.495-2.751-0.743-4.126c-0.145-0.805-1.112-1.249-1.845-1.048
				C27.412,30.289,27.06,31.099,27.205,31.903L27.205,31.903z"/>
		</g>
	</g>
	<ellipse fill="none" stroke="#FFFFFF" stroke-width="3" stroke-miterlimit="10" cx="44.773" cy="38.308" rx="4.355" ry="4.49"/>
	<ellipse fill="none" stroke="#FFFFFF" stroke-width="3" stroke-miterlimit="10" cx="28.773" cy="40.308" rx="4.355" ry="4.49"/>
	
		<line fill="none" stroke="#FFFFFF" stroke-width="3" stroke-linecap="round" stroke-linejoin="round" stroke-miterlimit="10" x1="36.785" y1="23.753" x2="42.535" y2="24.628"/>
	
		<line fill="none" stroke="#FFFFFF" stroke-width="3" stroke-linecap="round" stroke-linejoin="round" stroke-miterlimit="10" x1="25.785" y1="29.753" x2="31.535" y2="30.628"/>
	
		<line fill="none" stroke="#FFFFFF" stroke-width="3" stroke-linecap="round" stroke-linejoin="round" stroke-miterlimit="10" x1="29.395" y1="34.753" x2="39.535" y2="35.628"/>
	<ellipse fill="none" stroke="#FFFFFF" stroke-width="3" stroke-miterlimit="10" cx="25.41" cy="26.847" rx="3.709" ry="2.566"/>
</g>
<circle fill="none" stroke="#FFFFFF" stroke-miterlimit="10" cx="35.414" cy="34.276" r="33"/>
</svg>
